<svg xmlns="http://www.w3.org/2000/svg">
<defs>
<font id="UTMCENTURREGULAR" horiz-adv-x="1024" >
  <font-face 
    font-family="UTMCENTURREGULAR"
    font-weight="400"
    font-stretch="normal"
    units-per-em="2048"
    panose-1="2 4 6 3 5 5 6 2 2 4"
    ascent="1638"
    descent="-410"
    x-height="937"
    cap-height="1479"
    bbox="-64 -443 4942 2423"
    underline-thickness="109"
    underline-position="-359"
    unicode-range="U+0020-2026"
  />
<missing-glyph horiz-adv-x="5040" 
d="M3351 2045h10q37 -10 37 -52q0 -12 -32 -57h-28q0 24 28 54l2 10q-5 13 -10 15h-9q-8 0 -10 -19h-30q6 49 42 49zM2019 2016l29 -31q0 -16 -40 -30h-19l-59 12l-11 -12l-28 25q11 29 43 29h11l42 -11h2q10 0 30 18zM468 1980h142v-60h-94v-75h89v-59h-89v-129l-5 -5h-49
v323zM1155 1980h43l6 -5v-78h30v-52h-30v-188l-6 -5h-49v193h-25v52h25v78zM1621 1980h42l4 -5v-94h3q23 24 54 24h2q58 0 83 -71l2 -39v-143h-52v115q0 80 -42 80h-7q-43 0 -43 -86v-109h-51v323zM2200 1980h49l5 -5v-222q10 -51 45 -51q44 7 44 59v214l5 5h49v-216
q0 -85 -66 -112q-15 -8 -35 -8q-47 0 -82 55q-14 24 -14 57v224zM2435 1980h159v-60h-56v-268h-53v268h-55v55zM2621 1980h71q7 -4 83 -251h2l80 251h73v-328h-54v242h-2l-74 -242h-44q-4 0 -58 182l-19 60h-3v-242h-55v328zM3760 1980h52v-328h-45l-5 5v11l3 2l-3 14
q-29 -40 -78 -40q-67 0 -100 91l-5 39v3q0 94 92 125l23 3q35 0 63 -32h3v107zM2057 1928h36l4 -6v-49h-45v-221h-48v23q-23 -31 -59 -31q-89 14 -89 97v156h51v-104q0 -79 26 -86l18 -5h6q26 0 39 36l3 26v133h53v25zM3476 1928v-55h-31v-221h-47v25h-2q-15 -33 -57 -33
q-68 0 -86 78l-3 29v146h52v-120q0 -50 19 -68l21 -7h9q42 0 42 69v126h27q4 0 4 28l3 3h49zM758 1905q68 0 103 -77q9 -18 12 -54q0 -88 -90 -127l-32 -3q-63 0 -101 73q-12 22 -12 52v10q0 94 101 126h19zM1011 1905h3q74 0 83 -101v-152h-51v119q0 76 -42 76h-5
q-44 0 -44 -76v-119h-52v245h46v-21q30 29 62 29zM1466 1905h7q72 0 105 -89h-60q-16 31 -42 31h-17q-53 -14 -53 -61l-3 -15q12 -69 61 -69h9q22 0 47 27h40l2 3h3l2 -3l2 3l3 -3l2 3l2 -7q-33 -81 -110 -81q-76 0 -110 94l-4 36v3q0 85 77 120q15 8 37 8zM3141 1905h2

<glyph glyph-name=".notdef" horiz-adv-x="5040" 
d="M3351 2045h10q37 -10 37 -52q0 -12 -32 -57h-28q0 24 28 54l2 10q-5 13 -10 15h-9q-8 0 -10 -19h-30q6 49 42 49zM2019 2016l29 -31q0 -16 -40 -30h-19l-59 12l-11 -12l-28 25q11 29 43 29h11l42 -11h2q10 0 30 18zM468 1980h142v-60h-94v-75h89v-59h-89v-129l-5 -5h-49
v323zM1155 1980h43l6 -5v-78h30v-52h-30v-188l-6 -5h-49v193h-25v52h25v78zM1621 1980h42l4 -5v-94h3q23 24 54 24h2q58 0 83 -71l2 -39v-143h-52v115q0 80 -42 80h-7q-43 0 -43 -86v-109h-51v323zM2200 1980h49l5 -5v-222q10 -51 45 -51q44 7 44 59v214l5 5h49v-216
q0 -85 -66 -112q-15 -8 -35 -8q-47 0 -82 55q-14 24 -14 57v224zM2435 1980h159v-60h-56v-268h-53v268h-55v55zM2621 1980h71q7 -4 83 -251h2l80 251h73v-328h-54v242h-2l-74 -242h-44q-4 0 -58 182l-19 60h-3v-242h-55v328zM3760 1980h52v-328h-45l-5 5v11l3 2l-3 14
q-29 -40 -78 -40q-67 0 -100 91l-5 39v3q0 94 92 125l23 3q35 0 63 -32h3v107zM2057 1928h36l4 -6v-49h-45v-221h-48v23q-23 -31 -59 -31q-89 14 -89 97v156h51v-104q0 -79 26 -86l18 -5h6q26 0 39 36l3 26v133h53v25zM3476 1928v-55h-31v-221h-47v25h-2q-15 -33 -57 -33
q-68 0 -86 78l-3 29v146h52v-120q0 -50 19 -68l21 -7h9q42 0 42 69v126h27q4 0 4 28l3 3h49zM758 1905q68 0 103 -77q9 -18 12 -54q0 -88 -90 -127l-32 -3q-63 0 -101 73q-12 22 -12 52v10q0 94 101 126h19zM1011 1905h3q74 0 83 -101v-152h-51v119q0 76 -42 76h-5
q-44 0 -44 -76v-119h-52v245h46v-21q30 29 62 29zM1466 1905h7q72 0 105 -89h-60q-16 31 -42 31h-17q-53 -14 -53 -61l-3 -15q12 -69 61 -69h9q22 0 47 27h40l2 3h3l2 -3l2 3l3 -3l2 3l2 -7q-33 -81 -110 -81q-76 0 -110 94l-4 36v3q0 85 77 120q15 8 37 8zM3141 1905h2
q49 0 70 -60v-14h-52q0 16 -16 16h-4q-14 0 -19 -13v-13q0 -9 68 -35q30 -19 30 -59q0 -58 -61 -80l-23 -3q-76 12 -76 83h54q0 -20 27 -25h4q19 0 24 23q0 22 -68 44q-34 27 -34 59q0 66 74 77zM4203 1905q55 0 77 -63q7 -18 7 -65v-125h-52v112q0 83 -40 83h-11
q-33 0 -40 -54v-141h-52v5h-2l2 2v238h47v-21q25 29 64 29zM4432 1905h5q40 0 69 -40v18l-3 3l3 11h47v-208q0 -97 -85 -132l-33 -4h-7q-70 0 -104 80h59q24 -22 45 -23h13q22 0 43 22q15 13 22 52h-3q-32 -40 -73 -40q-57 0 -96 70q-10 18 -14 63q0 88 87 125zM3851 1897
h53v-136q6 -59 40 -59h7q46 0 46 93v102h51v-245h-47l-3 10h3l-3 3v5l3 2v3h-4q0 -23 -57 -31h-3q-59 0 -84 75l-2 85v93zM690 1771q10 -69 63 -69h7q59 14 59 65v15q-13 65 -59 65h-5q-58 0 -65 -76zM3630 1774q13 -72 61 -72h5q58 0 66 75q0 49 -51 70h-22q-37 0 -56 -57z
M4374 1774q8 -72 65 -72h5q59 12 59 72q0 61 -59 73h-14q-56 -16 -56 -62v-11zM3928 1620h52v-57h-52v57zM1054 1402q43 -11 43 -49v-4q0 -17 -32 -60h-28q0 25 31 57v7q0 12 -7 15h-12q-10 -4 -10 -19h-28v6q0 32 33 44zM3349 1339q92 0 138 -99h-60q-37 42 -80 42
q-55 0 -87 -68q-10 -22 -10 -47q0 -78 81 -110l18 -1q36 0 75 39h61q-44 -97 -138 -97q-93 0 -141 112q-10 31 -10 62q0 97 90 152q29 15 63 15zM3664 1339q57 0 103 -47q46 -51 46 -115v-20q0 -89 -91 -146q-33 -13 -63 -13q-89 0 -138 101q-13 33 -13 60v18q0 98 98 151
q29 11 58 11zM2261 1337h2l47 -11h3q11 0 26 11l18 -36q-18 -19 -35 -19h-3l-54 10l-20 -7l-20 36q18 16 36 16zM716 1334h19q118 0 129 -26q25 -26 25 -62q-10 -57 -30 -57v-6q47 -23 47 -66v-18q0 -63 -69 -88l-54 -5h-67v328zM2550 1334h53v-217q6 -61 45 -61q29 0 44 39
l3 30v203l4 6h45l5 -6v-171q0 -118 -40 -133q-24 -26 -64 -26q-55 0 -91 76l-4 54v206zM2805 1334h59q4 0 122 -237h4v237h50l4 -6v-322h-58q-29 48 -125 238h-3v-238h-53v328zM3101 1334h54v-328h-54v328zM3859 1334h8q155 0 174 -40q23 -11 47 -75l4 -36v-11l3 -2
q0 -94 -82 -149q-35 -15 -99 -15h-55v328zM4141 1334h153v-60h-103v-75h101v-57h-101v-74l4 -5h99v-57h-157v322zM3563 1175v-10q0 -76 79 -108l19 -1q68 0 96 86l3 20v15q0 61 -60 94q-12 8 -39 11q-66 0 -96 -83zM770 1274v-67h9q54 0 54 28l3 14q-11 25 -29 25h-37z
M3912 1274v-206l2 -3v-2q104 0 122 76l2 15v29q0 34 -32 68q-25 23 -78 23h-16zM1041 1259h5q38 0 71 -40v32h49v-245h-49v32q-36 -40 -80 -40q-75 0 -101 97l-5 36q0 89 85 125zM1314 1259h3q74 0 83 -102v-151h-51v128q0 67 -42 67h-10q-34 0 -39 -62v-133h-52v245h47v-21
q28 29 61 29zM1543 1259h5q45 0 71 -40v32h47v-219q0 -95 -104 -126h-16q-74 0 -108 82h59q26 -25 44 -25h14q52 0 64 77q-33 -42 -76 -42q-60 0 -101 81l-7 44v16q0 79 85 117zM1912 1259h2q43 0 61 -37h2q32 37 69 37h4q57 0 79 -55q8 -25 8 -45v-153h-52v138q0 44 -23 55
l-12 2h-15q-32 0 -36 -65v-130h-52v136q0 59 -43 59h-8q-32 0 -36 -57v-138h-54v245h50v-21h2q6 24 54 29zM2282 1259q47 0 75 -42v34h47v-245h-47v32q-36 -40 -78 -40q-74 0 -102 92l-6 41q0 90 85 125zM985 1117q0 -48 61 -61h4q45 0 62 46l3 15v22q-12 62 -57 62h-14
q-41 0 -59 -57v-27zM1487 1128q0 -48 43 -68l18 -4h5q47 0 63 57v23q-11 65 -58 65h-12q-50 0 -59 -73zM2225 1131v-14q15 -61 57 -61h14q58 12 58 64v11q0 45 -37 65l-18 5h-10q-64 -8 -64 -70zM770 1150v-82q0 -5 7 -5q77 0 77 45q0 34 -47 42h-37zM2966 753l24 -28
l-51 -55q-18 12 -27 26zM1524 727l85 -54q0 -15 -21 -42l-87 54q18 41 23 42zM2850 693h38l55 -60h-54l-21 26l-23 -26h-54q54 60 59 60zM3422 693h40l56 -60h-54l-24 26h-1q0 -5 -19 -26h-54zM622 685h52q8 -4 47 -137l34 -110q9 8 34 100l48 147h54v-2l-112 -326h-44z
M1159 685h51v-54h-51v54zM1354 685h46l6 -5v-323h-52v328zM2317 685h45l4 -5v-78h31v-52h-31v-193h-53v193h-26v52h26v78zM2425 685h52v-98h2q23 23 54 23h3q57 0 81 -71l3 -38v-144h-52v115q0 81 -39 81h-10q-42 0 -42 -87v-109h-52v328zM2664 685h52v-54h-52v54zM3028 685
h44l6 -5v-78h29v-52h-29v-193h-54v193h-27v52h27v78zM3234 685h52v-328h-52v328zM3957 685h52v-328h-52v328zM4316 685h51v-54h-51v54zM1555 610h5q83 0 110 -102l3 -23v-11q0 -83 -85 -120l-35 -5q-76 0 -111 97l-4 32q0 97 93 130zM1811 610h4q53 0 78 -60q7 -25 7 -81
v-112h-54v146q-7 50 -37 50h-10q-38 0 -42 -57v-139h-54v245h49v-21q26 29 59 29zM2046 610h4q45 0 63 -39h3v31h49v-206q0 -102 -89 -135l-28 -3h-5q-73 0 -106 81h52l37 -20l15 -3h14q50 0 61 72q-33 -39 -73 -39q-62 0 -98 76q-11 23 -12 60q0 85 86 123zM2866 610h2
q82 0 111 -104l2 -25l-2 -27h-172q15 -45 45 -45l14 -3q29 0 49 22h57v-3q-35 -76 -108 -76q-77 0 -111 97l-1 28v8q0 49 32 89q34 39 82 39zM3429 610h5q41 0 70 -39h2v31h47v-245h-47v31h-2q-35 -39 -77 -39q-71 0 -101 89l-5 36v14q0 86 84 120zM3711 610h7
q88 0 107 -128l-2 -1v-15q0 -65 -66 -106q-21 -11 -46 -11q-34 0 -64 32v-99l-5 -5h-49v325h49v-28q31 36 69 36zM4151 610q44 0 75 -39v31h49v-245h-49v31q-35 -39 -77 -39q-92 0 -108 132q0 84 73 121q15 8 37 8zM922 602h50v-136q3 -60 42 -60h5q44 0 44 87v109h52v-245
h-47v24h-5q0 -23 -56 -32h-3q-55 0 -82 68q-4 35 -4 99v81zM1159 602h51v-245h-51v245zM2664 602h52v-245h-52v245zM4316 602h51v-245h-51v245zM1492 488v-16q13 -66 59 -66h4q59 0 66 76q-13 71 -59 71h-11q-59 -16 -59 -65zM1987 472q15 -66 59 -66h11q48 0 59 75v1
q-13 71 -59 71h-14q-39 0 -56 -57v-24zM2805 506h122v2q-16 45 -59 45h-7q-35 0 -56 -47zM3373 474q13 -68 61 -68h5q52 0 65 63v12q-10 72 -57 72h-16q-56 -14 -56 -63zM3642 478q12 -72 61 -72h3q50 0 65 60v22q0 43 -49 65h-22q-47 0 -58 -72v-3zM4095 472q10 -66 66 -66
q43 0 61 48l2 15v16q0 54 -52 68h-18q-42 0 -59 -60v-21zM3416 321h51v-52h-51v52zM4137 321h51v-52h-51v52zM2733 133h4q35 0 43 -50v-2q0 -16 -24 -41l-10 -17h-28q0 25 28 56l3 2v2q-3 19 -9 19h-10q-8 0 -9 -19h-30q6 50 42 50zM1546 116l52 -60l-26 -19l-52 52zM352 79
h4q75 -48 85 -60l-20 -37q-88 49 -88 58zM3490 79l86 -58l-18 -39q-10 0 -91 55q15 36 23 42zM4578 76l19 -42l-91 -52l-20 39l92 58v-3zM1204 53h51v-19l5 -5h14v-36h-14l-5 -5v-279h-46v31q-34 -40 -81 -40q-72 0 -102 105l-3 26q0 102 101 131h14q33 0 66 -33v59l-6 5
h-43v36h49v24zM1480 45h40l56 -61h-53l-23 27l-23 -27h-53zM2641 45h33q12 0 63 -61h-54l-23 27q-19 -21 -19 -27h-58v4zM49 37h160v-60h-56v-268h-50l-4 5v245l2 3v2l-2 2l2 3l-2 2l2 3l-2 3h-54v54zM699 37h47v-73l2 -2l-2 -3v-3l2 -2l-2 -3v-3l2 -2v-2l-2 -3l2 -3h3
q17 24 51 24h3q53 0 77 -58q7 -17 7 -42v-153h-52v127q0 68 -40 68h-8q-43 0 -43 -86v-109h-52v322zM1297 37h47l5 -6v-49h-52v55zM1987 37h52v-198l70 115h62l-78 -118l90 -125v-2h-70q-10 22 -74 115v-115h-52v328zM2271 37v-99q24 24 53 24q57 0 80 -56q10 -19 10 -77
v-120h-54v133q0 62 -41 62h-11q-31 0 -37 -55v-140h-53v314l-1 3v3l1 2l-1 3l1 3h53zM2458 37h51v-55h-51v55zM3148 37h51v-108q27 33 68 33h3q75 0 105 -94l5 -37q0 -75 -64 -120q-30 -11 -49 -11q-41 0 -72 40v-31h-47v328zM4275 37h52v-99h2q23 24 54 24h3q60 0 82 -74
l2 -41v-138h-52v111q0 82 -32 82l-10 2h-12q-37 0 -37 -80v-115h-52v328zM329 -38h3v-58h-5q-42 0 -42 -57v-138h-53v245h47v-21q18 29 50 29zM564 -38q71 0 86 -87v-166h-51v136q-6 59 -41 59h-6q-45 0 -45 -84v-111h-52v245h50v-21q25 29 59 29zM1504 -38q72 0 105 -94
l5 -39q-2 -24 -7 -24h-169q17 -47 62 -47q24 0 48 21h57q-33 -79 -108 -79q-82 0 -113 105v37q0 81 89 117zM2657 -38h5q77 0 107 -97l3 -26v-21l-3 -13h-170q18 -47 53 -47h12q21 0 42 21h59q-34 -79 -105 -79q-84 0 -115 102l-2 29q0 93 91 128zM2915 -38h4q54 0 78 -60
q7 -25 7 -82v-111h-54v138q0 48 -35 57h-11q-38 0 -43 -57v-138h-54v245h50v-21q25 29 58 29zM3508 -38h6q40 0 70 -40h2v32h47v-245h-47v31h-2q-34 -40 -78 -40q-71 0 -101 90l-4 37v12q0 82 77 117q11 6 30 6zM3781 -38h4q62 0 82 -78l3 -84v-91h-54v138q0 48 -38 57h-9
q-38 0 -42 -52v-143h-54v245h49v-21q26 29 59 29zM4133 -38h1q74 0 104 -93l4 -40q0 -88 -84 -126l-25 -3q-41 0 -68 34v-106h-52v326h47v-29q30 37 73 37zM4714 -38h5q34 0 63 -37q27 37 69 37h6q56 0 79 -66l6 -51v-136h-52v122q0 73 -39 73h-7q-35 0 -41 -50v-140l-5 -5
h-48v140q0 42 -31 55h-17q-40 0 -40 -77v-118h-51v245h47v-21q22 29 56 29zM359 -46h49l5 -6v-234l-5 -5h-49v245zM1297 -46h52v-245h-52v245zM1649 -46h52v-136q4 -60 43 -60h4q44 0 44 81v115h52v-245h-47v24h-5q-12 -33 -59 -33q-52 0 -79 63q-5 12 -5 34v157zM2458 -46
h51v-245h-51v245zM4515 -46h51v-245h-51v245zM1077 -169q0 -53 51 -73h12q54 0 66 66v10q0 53 -54 70h-17q-38 0 -58 -57v-16zM1438 -143h122q-18 47 -53 47h-7q-43 0 -62 -44v-3zM2599 -143h122q-21 47 -54 47h-7q-46 0 -61 -47zM3196 -158v-11q10 -73 61 -73h5q64 8 64 71
v5q0 45 -38 65l-18 5h-14q-60 -14 -60 -62zM3452 -173q14 -69 62 -69h11q41 0 59 60v13q-8 73 -56 73h-17q-47 0 -59 -73v-4zM4062 -158v-22q0 -47 59 -62h9q50 0 61 76q-13 70 -58 70h-15q-56 -17 -56 -62z" />
    <glyph glyph-name=".null" horiz-adv-x="0" 
 />
    <glyph glyph-name="nonmarkingreturn" horiz-adv-x="571" 
 />
    <glyph glyph-name="space" unicode=" " horiz-adv-x="569" 
 />
    <glyph glyph-name="exclam" unicode="!" horiz-adv-x="606" 
d="M334 434h-52q0 191 -10 268q-15 135 -51 347q-39 224 -39 293q0 87 35 130.5t92 43.5q54 0 90.5 -42.5t36.5 -128.5q0 -81 -40 -296q-36 -194 -48 -322l-11 -142zM309 216q47 0 84.5 -36.5t37.5 -86.5q0 -46 -37 -83.5t-85 -37.5q-50 0 -85.5 35t-35.5 86q0 52 35 87.5
t86 35.5z" />
    <glyph glyph-name="quotedbl" unicode="&#x22;" horiz-adv-x="797" 
d="M189 820l-55 297l-17 100q-6 45 -6 70q0 61 27 93.5t72 32.5q42 0 73 -31t31 -80q0 -22 -6 -64l-9 -61l-11 -60l-55 -297h-44zM561 820l-56 297q-24 129 -24 175q0 58 27.5 89.5t75.5 31.5q42 0 72 -30.5t30 -80.5v-12v-11v-44q-3 -16 -4 -23l-3 -35q-1 -10 -5.5 -29.5
t-7.5 -30.5l-57 -297h-48z" />
    <glyph glyph-name="numbersign" unicode="#" horiz-adv-x="1139" 
d="M-34 1059h336l90 420h126l-90 -420h361l91 420h127l-89 -420h203v-128h-228l-80 -383h308v-130h-332l-89 -418h-128l89 418h-366l-85 -418h-129l88 418h-203v130h230l80 383h-310v128zM402 931l-80 -383h364l80 383h-364z" />
    <glyph glyph-name="dollar" unicode="$" horiz-adv-x="1139" 
d="M540 1508h84v-97q59 0 157 -33t154.5 -103t56.5 -154q0 -64 -33.5 -102t-82.5 -38q-38 0 -74 30q-31 31 -31 75q0 40 36 89t36 66q0 22 -46 56q-37 21 -79.5 33t-93.5 12v-541q218 -76 315 -191t97 -261q0 -159 -107 -262q-25 -23 -61 -46q-18 -12 -43 -24
q-12 -6 -30 -14q-79 -32 -171 -32v-249h-84v249q-118 0 -211.5 41.5t-138 109t-44.5 146.5q0 69 36 113.5t87 44.5q45 0 78.5 -34t33.5 -89q0 -57 -46 -96q-53 -45 -53 -62q0 -30 55 -60q38 -21 89 -33t114 -12v571q-380 122 -380 422q0 156 103 262q50 53 123.5 84.5
t153.5 31.5v97zM540 833v508q-62 0 -110 -18.5t-87 -57.5q-71 -68 -71 -165q0 -81 54 -144t214 -123zM624 578v-537q139 12 213.5 83t74.5 172q0 88 -57.5 154t-230.5 128z" />
    <glyph glyph-name="percent" unicode="%" horiz-adv-x="1706" 
d="M396 1413q126 0 211 -98.5t85 -274.5q0 -165 -83.5 -263.5t-211.5 -98.5q-123 0 -207.5 97.5t-84.5 269.5q0 162 84 265t207 103zM400 1366q-63 0 -104 -67.5t-41 -249.5q0 -189 39 -257.5t103 -68.5t105 68t41 244q0 194 -39.5 262.5t-103.5 68.5zM1322 1387h87
l-1019 -1387h-86zM1301 707q126 0 211 -98.5t85 -274.5q0 -90 -20 -151q-18 -63 -63 -114q-83 -97 -211 -97q-126 0 -209.5 97.5t-83.5 270.5q0 160 84.5 263.5t206.5 103.5zM1305 660q-63 0 -104 -67.5t-41 -249.5q0 -185 39 -255t103 -70q60 0 103 68t43 243
q0 194 -39.5 262.5t-103.5 68.5z" />
    <glyph glyph-name="ampersand" unicode="&#x26;" horiz-adv-x="1669" 
d="M703 852l80 -135l66 -108l53 -78q36 -52 73.5 -102t77.5 -96q156 194 156 316q0 51 -40 85t-116 34h-53v69h556v-69h-42q-54 0 -88 -15.5t-66 -50.5q-23 -26 -71 -125q-43 -92 -87 -164l-45 -72l-23 -33l-27 -33q137 -140 239 -140q60 0 102 48t57 170h62
q0 -181 -80.5 -281t-203.5 -100h-19q-14 0 -21 2q-8 0 -12.5 1t-20.5 5t-32.5 10.5t-35.5 16.5q-71 35 -172 127q-114 -90 -206.5 -126t-195.5 -36q-186 0 -311 120.5t-125 298.5q0 131 78 240.5t283 220.5q-95 196 -95 325q0 141 102 240t252 99q141 0 223.5 -72.5
t82.5 -194.5q0 -113 -77.5 -207.5t-277.5 -189.5zM665 929q145 63 198.5 134.5t53.5 171.5q0 93 -48.5 148.5t-127.5 55.5q-76 0 -126 -52.5t-50 -139.5q0 -127 100 -318zM528 774q-211 -118 -211 -281q0 -127 98.5 -265t245.5 -138q127 0 255 101q-79 95 -173 228
q-36 53 -90 141z" />
    <glyph glyph-name="quotesingle" unicode="'" horiz-adv-x="418" 
d="M185 820l-55 300q-23 135 -23 168q0 65 26 95t73 30q45 0 75 -30t30 -80q0 -36 -27 -183l-55 -300h-44z" />
    <glyph glyph-name="parenleft" unicode="(" horiz-adv-x="682" 
d="M647 1512l26 -55q-141 -150 -210 -273q-59 -114 -98.5 -275.5t-39.5 -358.5q0 -99 9 -187t28 -170.5t43 -140.5t64 -130q64 -120 204 -268l-26 -52l-77 70q-45 42 -66 62q-63 63 -100 110q-130 156 -202 339q-32 85 -51 180.5t-19 192.5q0 192 64.5 364t190.5 327
q88 109 260 265z" />
    <glyph glyph-name="parenright" unicode=")" horiz-adv-x="682" 
d="M35 1512q100 -91 153 -145q63 -63 103 -113q126 -153 192 -330q29 -81 48 -176q9 -48 14 -95.5t5 -96.5q0 -189 -63 -357.5t-193 -332.5q-91 -115 -259 -264l-26 52q62 66 114 135q19 25 45 63q22 33 44 69q71 127 108 284q17 76 27 164q4 38 7 88t3 92q0 99 -9 190
t-28 169q-36 156 -102.5 278t-208.5 271z" />
    <glyph glyph-name="asterisk" unicode="*" 
d="M538 1118q36 9 68 28q24 12 82 61t88 63l22 8l31 5q42 0 70.5 -27.5t28.5 -68.5q0 -45 -34.5 -73t-106.5 -28l-38 1l-66 3q-64 0 -131 -22q51 -60 144 -120q59 -36 78.5 -65.5t19.5 -58.5q0 -41 -28 -69.5t-65 -28.5q-39 0 -66.5 25.5t-49 105t-38.5 118.5l-6 14l-8 14
q-6 14 -20 32q-22 -31 -36 -61q-9 -21 -30 -99q-24 -85 -42 -112q-27 -36 -79 -36q-44 0 -71.5 25.5t-27.5 64.5q0 69 95 131q69 45 87 60l26 25l33 35q-53 21 -122 21l-47 -2l-50 -2q-78 0 -114.5 28.5t-36.5 78.5q0 36 27 63t66 27q59 0 146 -74l39 -32l39 -26l71 -32
l1 31q0 30 -5 46l-10 38q0 7 -4 15l-7 17l-32 93l-8 28l-3 23q0 43 27 75.5t68 32.5q39 0 68 -29q14 -15 21 -35t7 -36q0 -27 -40 -140l-12 -38l-11 -41l-6 -38z" />
    <glyph glyph-name="plus" unicode="+" horiz-adv-x="1241" 
d="M69 759h485v486h134v-486h485v-133h-485v-482h-134v482h-485v133z" />
    <glyph glyph-name="comma" unicode="," horiz-adv-x="569" 
d="M169 -348l-36 48q193 148 193 258q0 16 -5 22q-3 6 -17 9l-22 -4l-31 -3q-45 0 -78.5 35t-33.5 85q0 46 33 81.5t88 35.5q61 0 110 -52q18 -21 31 -59.5t13 -80.5q0 -196 -245 -375z" />
    <glyph glyph-name="hyphen" unicode="-" horiz-adv-x="891" 
d="M137 542h666v-152h-666v152z" />
    <glyph glyph-name="hyphen" unicode="&#x2010;" horiz-adv-x="891" 
d="M137 542h666v-152h-666v152z" />
    <glyph glyph-name="period" unicode="." horiz-adv-x="569" 
d="M285 218q48 0 84 -36.5t36 -85.5q0 -52 -35 -88t-86 -36q-44 0 -86 36q-35 37 -35 87q0 52 35.5 87.5t86.5 35.5z" />
    <glyph glyph-name="slash" unicode="/" horiz-adv-x="569" 
d="M569 1479l-440 -1479h-129l441 1479h128z" />
    <glyph glyph-name="zero" unicode="0" horiz-adv-x="1139" 
d="M572 1413q195 0 325 -152q161 -187 161 -567q0 -353 -140 -537.5t-338 -184.5q-191 0 -319 155q-160 196 -160 563q0 348 151 557q121 166 320 166zM578 1341q-129 0 -204.5 -126.5t-75.5 -524.5q0 -389 76.5 -519t205.5 -130q123 0 200 120q83 143 83 522
q0 390 -78.5 524t-206.5 134z" />
    <glyph glyph-name="one" unicode="1" horiz-adv-x="1139" 
d="M695 1387v-1248q0 -27 20 -43q29 -21 71 -21h194v-75h-719v75h166q45 0 77 24q25 25 25 66v943q0 29 -23 49t-59 20h-222v69q167 20 258 53t166 88h46z" />
    <glyph glyph-name="two" unicode="2" horiz-adv-x="1139" 
d="M322 219l-4 -9q0 -50 458 -50q73 0 103.5 37t76.5 218h68l-32 -415h-896v54l291 331q244 265 292 332q65 92 99.5 187t34.5 165q0 123 -68 193.5t-189 70.5q-136 0 -222 -65t-86 -138q0 -20 12 -35q11 -11 53 -26q101 -24 101 -118q0 -51 -33.5 -84.5t-87.5 -33.5
q-60 0 -107 56q-21 27 -33.5 65t-12.5 83q0 100 51 183t158 138q49 25 108.5 40t121.5 15q120 0 224 -51.5t156 -139.5t52 -182l-1 -32v-11q-3 -13 -4 -19l-4 -22q0 -10 -7 -24l-10 -32q-26 -71 -76 -133q-84 -105 -177 -183l-264 -222q-94 -79 -146 -143z" />
    <glyph glyph-name="three" unicode="3" horiz-adv-x="1139" 
d="M720 739q143 -35 223 -116q102 -102 102 -255q0 -172 -122 -276q-138 -120 -362 -120q-74 0 -128 9.5t-104 34.5q-97 44 -144 119.5t-47 168.5q0 72 36 118t94 46q51 0 82 -34t31 -91q0 -36 -16 -61.5t-56 -48.5q-43 -23 -43 -44q0 -24 30 -68q30 -36 90 -60l70 -16
q39 -6 81 -6q153 0 230.5 78.5t77.5 247.5q0 179 -64.5 254.5t-191.5 75.5l-41 -1l-15 -1l-29 -6q-41 -6 -59 -6q-24 0 -47 12q-16 13 -16 32q0 15 15 32q15 12 51 12l55 -2l48 -2q124 0 189.5 66.5t65.5 199.5q0 167 -60.5 237.5t-182.5 70.5q-111 0 -177 -39.5t-66 -74.5
q0 -21 38 -59q54 -50 54 -104q0 -39 -31 -69q-31 -28 -76 -28q-48 0 -80.5 39.5t-32.5 104.5q0 105 76 188q108 116 309 116q190 0 301 -101t111 -250q0 -105 -60.5 -183.5t-208.5 -139.5z" />
    <glyph glyph-name="four" unicode="4" horiz-adv-x="1139" 
d="M780 1387h65v-946h230v-85h-230v-213q0 -27 22 -45q32 -23 74 -23h85v-75h-555v75h103q51 0 76 22t25 64v195h-566v96zM675 1116l-483 -675h483v675z" />
    <glyph glyph-name="five" unicode="5" horiz-adv-x="1139" 
d="M277 1413q123 -26 232.5 -42t180.5 -16l74 3h15q12 3 18 4l36 7q65 15 97 34q17 9 22 9q4 -3 5.5 -5.5t4.5 -9.5q0 -34 -42.5 -91t-125 -92t-178.5 -35q-117 0 -279 36l-33 -382q75 38 150 57q37 9 68.5 14t57.5 5q195 0 329 -129.5t134 -321.5q0 -210 -141.5 -348
t-368.5 -138q-86 0 -156.5 24t-126.5 74q-107 99 -107 235q0 82 34.5 126.5t88.5 44.5q48 0 84 -36.5t36 -91.5q0 -41 -15 -65q-15 -21 -61 -42q-45 -17 -45 -39q0 -26 30 -71q25 -28 90 -62q69 -25 139 -25q153 0 233.5 95t80.5 309q0 196 -84.5 285.5t-217.5 89.5
q-59 0 -118.5 -21t-121.5 -67q-6 -70 -24.5 -93.5t-46.5 -23.5q-18 0 -32 14q-12 14 -12 39q0 46 41 87l17 23l23 294l5 90l5 123z" />
    <glyph glyph-name="six" unicode="6" horiz-adv-x="1139" 
d="M326 656q75 102 164.5 148t188.5 46q165 0 278 -111.5t113 -285.5q0 -207 -132.5 -344t-329.5 -137q-137 0 -245.5 71.5t-177.5 230.5q-34 79 -51 169t-17 196q0 225 84 408t214.5 274.5t272.5 91.5q146 0 248 -80q85 -65 85 -156q0 -60 -36.5 -99.5t-92.5 -39.5
q-44 0 -86 33q-35 33 -35 78q0 31 23 67.5t23 55.5q0 22 -27 46q-37 23 -99 23q-94 0 -173.5 -60t-137 -210.5t-57.5 -333.5zM624 752q-123 0 -205 -91q-20 -23 -33 -47q-6 -10 -12 -24t-14 -36l-7 -26l-9 -50l-4 -71q0 -177 77 -271.5t196 -94.5q118 0 190 90t72 265
q0 186 -67 271t-184 85z" />
    <glyph glyph-name="seven" unicode="7" horiz-adv-x="1139" 
d="M227 1412q113 -25 212 -25h622v-46q-127 -226 -205 -408q-62 -153 -103 -318q-26 -122 -36 -197l-7 -77l-3 -80q0 -78 -6.5 -134t-13.5 -82q-6 -30 -36 -51q-28 -22 -71 -22q-50 0 -78 34t-28 107l1 35l1 20q0 13 4 26q0 16 5 34l12 47q21 92 105 292q103 248 189 409
l138 254h-542q-59 0 -86 -39t-74 -254h-72z" />
    <glyph glyph-name="eight" unicode="8" horiz-adv-x="1139" 
d="M773 785q160 -57 231 -151.5t71 -225.5q0 -159 -103 -281q-132 -155 -379 -155q-217 0 -343 104.5t-126 260.5q0 117 71.5 203.5t251.5 149.5q-263 113 -263 349q0 150 119.5 262t299.5 112q125 0 218 -42.5t140 -119.5q23 -37 36 -76t13 -77q0 -182 -237 -313zM696 811
q105 60 141 118.5t36 153.5q0 125 -71 193t-206 68q-131 0 -204 -64t-73 -165q0 -99 62.5 -159.5t314.5 -144.5zM522 662q-135 -55 -197 -135q-24 -33 -39.5 -82t-15.5 -102q0 -139 84.5 -219t239.5 -80q161 0 255.5 78.5t94.5 207.5q0 114 -77 173.5t-345 158.5z" />
    <glyph glyph-name="nine" unicode="9" horiz-adv-x="1139" 
d="M860 718q-61 -94 -153 -148q-42 -23 -95 -36t-99 -13q-150 0 -272.5 105t-122.5 309q0 193 135.5 335.5t323.5 142.5q207 0 345 -171.5t138 -483.5q0 -260 -75.5 -434.5t-202 -263t-285.5 -88.5q-154 0 -240 67.5t-86 161.5q0 62 35.5 100t89.5 38q42 0 83 -33
q34 -34 34 -79q0 -33 -31 -73q-19 -25 -19 -43q0 -22 33 -49q34 -20 106 -20q54 0 96.5 12t84.5 44q78 57 128.5 192.5t50.5 338.5zM580 1341q-111 0 -183.5 -93.5t-72.5 -281.5q0 -168 72 -254.5t188 -86.5q114 0 193 91t79 255q0 170 -82 270t-194 100z" />
    <glyph glyph-name="colon" unicode=":" horiz-adv-x="569" 
d="M287 965q51 0 86 -35t35 -86q0 -52 -34.5 -86.5t-85.5 -34.5t-86.5 36.5t-35.5 84.5q0 49 35.5 85t85.5 36zM289 218q44 0 82.5 -35.5t38.5 -86.5q0 -47 -35.5 -85.5t-85.5 -38.5q-44 0 -83.5 36t-39.5 86q0 46 36 85t87 39z" />
    <glyph glyph-name="semicolon" unicode=";" horiz-adv-x="569" 
d="M289 965q51 0 85.5 -35t34.5 -87q0 -49 -35 -84t-84 -35q-52 0 -87.5 35t-35.5 83q0 52 35 87.5t87 35.5zM183 -348l-34 47q192 144 192 265q0 25 -21 25q-10 0 -23 -5l-34 -5q-37 0 -76 36q-33 36 -33 87q0 47 36.5 81.5t83.5 34.5q63 0 109 -52t46 -134
q0 -198 -246 -380z" />
    <glyph glyph-name="less" unicode="&#x3c;" horiz-adv-x="1241" 
d="M1171 170l-1101 464v120l1101 463v-144l-922 -378l922 -380v-145z" />
    <glyph glyph-name="equal" unicode="=" horiz-adv-x="1241" 
d="M69 1001h1104v-134h-1104v134zM69 526h1104v-133h-1104v133z" />
    <glyph glyph-name="greater" unicode="&#x3e;" horiz-adv-x="1241" 
d="M70 1217l1101 -464v-120l-1101 -463v144l922 379l-922 380v144z" />
    <glyph glyph-name="question" unicode="?" horiz-adv-x="909" 
d="M443 432h-53q0 116 12 187.5t32 106.5q7 14 17 29l16 24l67 91q60 78 87 153t27 161q0 118 -67 190t-162 72q-83 0 -138.5 -41t-55.5 -84q0 -24 39 -54q59 -45 59 -100q0 -48 -30.5 -80t-78.5 -32q-50 0 -95 45q-38 46 -38 118q0 109 105 204q52 46 119 70t149 24
q161 0 270.5 -102.5t109.5 -248.5q0 -93 -37 -170q-26 -52 -141 -160q-136 -121 -179 -195q-14 -31 -24 -89q-4 -25 -7 -57.5t-3 -61.5zM419 216q50 0 85 -35t35 -84q0 -52 -35 -88.5t-85 -36.5q-44 0 -85 36q-35 37 -35 89q0 50 35 84.5t85 34.5z" />
    <glyph glyph-name="at" unicode="@" horiz-adv-x="1510" 
d="M1292 386h137q-13 -27 -24 -47t-26 -43q-26 -41 -59 -80t-68 -71t-79 -62q-80 -53 -175 -85q-19 -6 -43 -11.5t-50 -10.5l-46 -6l-48 -2q-36 0 -70 3t-72 11q-73 12 -137.5 39t-123 66t-113.5 92q-99 100 -157 238.5t-58 302.5q0 216 93 396q47 91 110.5 161t145 122
t174.5 78.5t191 26.5q60 0 113.5 -9.5t110.5 -30.5q111 -39 201 -117q108 -84 164.5 -200t56.5 -262q0 -66 -8 -120.5t-27 -108.5q-34 -101 -105 -181q-24 -30 -69 -68l-39 -30l-42 -29q-89 -56 -164 -56q-64 0 -103 57q-16 26 -28 64l-7 26q-3 15 -4 23t-1 27h-4
q-29 -48 -56 -84t-51 -57q-50 -44 -125 -44q-101 0 -178 87.5t-77 225.5q0 30 3 58t11 60q15 62 43 115.5t67 101.5q34 42 87 83q96 72 203 72q66 0 110 -44q19 -19 34 -50q12 -25 20 -69h4l30 144h188l-148 -602l-4 -26l-1 -23q0 -61 40 -61q39 0 92 48l47 50l41 55
q22 34 44 81q11 24 22 55t13 36q30 95 30 187q0 54 -11 94l-13 46q-8 25 -19 46q-15 32 -28 53l-22 31l-30 38q-7 9 -15.5 18t-19.5 18q-72 69 -165 107q-43 17 -93.5 27t-101.5 10q-60 0 -122 -12q-31 -5 -33 -6q-16 -6 -23 -8q-33 -8 -59 -20q-112 -47 -192 -133
q-41 -41 -72.5 -93t-52 -106t-36.5 -127q-12 -66 -12 -136q0 -95 21.5 -182.5t61.5 -155.5q21 -37 43.5 -65.5t54.5 -62.5q57 -56 128 -95q143 -78 318 -78q90 0 177 36l40 19l40 24l39 27l38 32q31 28 65 70q31 38 58 82zM645 384q54 0 104 62l44 65l14 25l22 46l25 73
l20 82l14 81l5 49v21q0 13 -1 25.5t-4 23.5q-3 22 -7 30q-2 9 -11 26q-23 47 -71 47q-27 0 -52.5 -12.5t-49.5 -40.5t-43 -60l-38 -74q-19 -45 -30 -80l-12 -40q-1 -7 -3.5 -17.5t-7.5 -24.5l-14 -76l-5 -61q0 -170 101 -170z" />
    <glyph glyph-name="A" unicode="A" horiz-adv-x="1479" 
d="M715 1510h67l531 -1353q32 -82 131 -82h46v-75h-590v75h47q94 0 130 20q26 14 26 43q0 19 -7 36l-123 314h-584l-69 -180q-27 -72 -27 -114q0 -48 45.5 -83.5t132.5 -35.5h50v-75h-536v75q84 0 134.5 36t93.5 144zM686 1225l-265 -659h523z" />
    <glyph glyph-name="B" unicode="B" horiz-adv-x="1479" 
d="M97 1479h771q225 0 346.5 -99.5t121.5 -251.5q0 -121 -83 -209.5t-254 -143.5q207 -42 312.5 -135.5t105.5 -241.5q0 -57 -13.5 -102.5t-45.5 -90.5q-57 -82 -198.5 -143.5t-314.5 -61.5h-748v75h122q49 0 77.5 18.5t28.5 40.5v1185q0 42 -25 63.5t-73 21.5h-130v75z
M539 799h280q126 0 204 75t78 250q0 105 -36 164t-107 90q-36 14 -94 21l-65 5l-81 2q-120 0 -149.5 -17.5t-29.5 -61.5v-528zM539 725v-570q0 -39 24.5 -59.5t83.5 -20.5h179q174 0 261 78t87 245q0 150 -87.5 238.5t-243.5 88.5h-304z" />
    <glyph glyph-name="C" unicode="C" horiz-adv-x="1479" 
d="M1185 1364l69 143h63l26 -595h-67q-66 251 -166 370q-123 149 -296 149q-186 0 -303 -165.5t-117 -562.5q0 -334 134 -508q115 -148 320 -148q180 0 302 115.5t159 348.5h71q-30 -264 -181 -406t-378 -142q-94 0 -175 22t-160 70q-150 91 -247 266t-97 385q0 29 1 56.5
t3.5 54t6.5 51t11 52.5q23 102 73 201q96 194 245 291.5t321 97.5q96 0 186 -33q41 -15 94 -45q23 -12 49 -31z" />
    <glyph glyph-name="D" unicode="D" horiz-adv-x="1593" 
d="M70 1479h764q164 0 289 -60q143 -72 249 -251t106 -421q0 -208 -62 -360q-44 -118 -140 -210t-242 -143q-49 -14 -121 -24l-75 -7l-84 -3h-684v75h140q53 0 73.5 17t20.5 53v1191q0 30 -22 49t-61 19h-151v75zM606 1404q-45 0 -66.5 -18.5t-21.5 -57.5v-1180
q0 -32 24 -55q24 -18 86 -18h126q162 0 296 87q83 57 126 163q59 142 59 392q0 363 -129 542q-110 145 -332 145h-168z" />
    <glyph glyph-name="E" unicode="E" horiz-adv-x="1479" 
d="M134 1479h1172l28 -499h-67q-39 236 -127 330t-225 94h-290q-33 0 -52 -19t-19 -58v-527h127q102 0 165 73q33 36 51 93t18 131h69v-685h-69q0 84 -18 144.5t-52 98.5q-63 74 -175 74h-116v-588q0 -26 21 -49q22 -17 72 -17h229q372 0 430 476h72l-25 -551h-1219v75h101
q59 0 83 20.5t24 59.5v1172q0 38 -22 57.5t-65 19.5h-121v75z" />
    <glyph glyph-name="F" unicode="F" horiz-adv-x="1366" 
d="M106 1479h1203l20 -512h-69q-45 258 -129 344q-95 93 -271 93h-237q-35 0 -51 -16.5t-16 -49.5v-535h127q105 0 169 70q29 32 48.5 88.5t19.5 127.5h72v-667h-72q0 77 -17.5 138t-50.5 99q-60 71 -169 71h-127v-564q0 -44 24 -71q25 -20 83 -20h154v-75h-711v75h152
q40 0 62.5 18.5t22.5 60.5v1176q0 35 -21 54.5t-71 19.5h-145v75z" />
    <glyph glyph-name="G" unicode="G" horiz-adv-x="1593" 
d="M1151 1363l82 147h67l37 -590h-65q-75 255 -177 369q-130 145 -298 145q-129 0 -229 -72.5t-158 -220.5q-26 -70 -40.5 -175t-14.5 -235q0 -254 53.5 -398t150 -215t226.5 -71q175 0 270.5 98t95.5 253v139q0 34 -26 51q-24 18 -83 18h-125v70h620v-70h-84q-56 0 -80 -20
q-24 -18 -24 -56v-565h-66q-31 121 -75 253q-75 -122 -179 -184t-234 -62q-183 0 -342 95.5t-254 270.5t-95 395q0 215 93 390t254 284q76 47 161 75q44 14 83.5 21t82.5 7q95 0 179 -31q48 -15 90 -43q40 -24 104 -73z" />
    <glyph glyph-name="H" unicode="H" horiz-adv-x="1706" 
d="M96 1479h631v-75h-116q-57 0 -80 -22q-18 -21 -18 -104v-456h677v456q0 84 -17.5 105t-82.5 21h-108v75h628v-75h-115q-33 0 -41 -2q-9 0 -21.5 -8.5t-26.5 -38.5q-6 -17 -6 -89v-1064q0 -77 13 -93q26 -34 95 -34h102v-75h-628v75h108q64 0 87 35q13 24 13 100v514h-677
v-522q0 -73 12 -94q24 -33 86 -33h116v-75h-631v75h121q31 0 47.5 11t31.5 39q5 22 5 85v1068q0 81 -18.5 103.5t-80.5 22.5h-106v75z" />
    <glyph glyph-name="I" unicode="I" horiz-adv-x="834" 
d="M76 1479h682v-75h-117q-79 0 -99 -20q-20 -18 -20 -82v-1120q0 -66 18 -84q25 -23 87 -23h131v-75h-682v75h129q68 0 88 20t20 87v1120q0 58 -18 79q-28 23 -103 23h-116v75z" />
    <glyph glyph-name="J" unicode="J" horiz-adv-x="1139" 
d="M423 1479h654v-75h-93q-55 0 -78.5 -20t-23.5 -58v-959q0 -111 -54 -200.5t-158 -142.5q-53 -26 -116.5 -39t-118.5 -13q-178 0 -291 104.5t-113 255.5q0 108 57 177t140 69q68 0 112 -42.5t44 -111.5q0 -55 -36.5 -96t-82.5 -41l-20 2l-30 8l-36 8q-14 0 -28 -15
q-10 -17 -10 -41q0 -70 75 -134t186 -64q121 0 195 87.5t74 240.5v947q0 36 -26.5 57t-90.5 21h-131v75z" />
    <glyph glyph-name="K" unicode="K" horiz-adv-x="1593" 
d="M83 1479h676v-75h-144q-39 0 -71 -24q-25 -25 -25 -61v-687l557 595q48 51 48 98q0 33 -33 57q-39 22 -108 22h-41v75h607v-75h-47q-56 0 -130.5 -36t-138.5 -100l-343 -357l491 -724q41 -60 87.5 -86t101.5 -26h54v-75h-667v75h76q83 0 110.5 14t27.5 35q0 12 -12 38
l-408 600l-232 -249v-364q0 -33 20 -50q32 -24 76 -24h144v-75h-676v75h130q50 0 74 20.5t24 53.5v1181q0 31 -27.5 52.5t-90.5 21.5h-110v75z" />
    <glyph glyph-name="L" unicode="L" horiz-adv-x="1366" 
d="M64 1479h685v-75h-164q-36 0 -57 -21q-19 -22 -19 -64v-1167q0 -42 24.5 -59.5t93.5 -17.5h208q164 0 267.5 108t157.5 386h70l-34 -569h-1232v75h121q63 0 87.5 24.5t24.5 74.5v1155q0 30 -21 56q-22 19 -62 19h-150v75z" />
    <glyph glyph-name="M" unicode="M" horiz-adv-x="1933" 
d="M34 1479h493l441 -1168l407 1168h504v-75h-123q-65 0 -87.5 -19t-22.5 -66v-1171q0 -33 27 -54q33 -19 93 -19h113v-75h-676v75h126q54 0 80 20.5t26 52.5v1256l-489 -1404h-68l-526 1398v-1075q0 -96 24 -143.5t68 -73.5l62 -22q39 -9 86 -9v-75h-558v75q64 0 111.5 15
t74.5 44q49 52 49 177v1020q0 38 -23 55.5t-86 17.5h-126v75z" />
    <glyph glyph-name="N" unicode="N" horiz-adv-x="1669" 
d="M84 1479h353l892 -1162v841q0 126 -58 188q-26 26 -67.5 42t-90.5 16v75h517v-75q-79 0 -117 -22q-40 -21 -69 -79.5t-29 -127.5v-1175h-94l-923 1209v-892q0 -119 63.5 -180.5t186.5 -61.5v-75h-564v75q51 0 93 18t75 51q62 67 62 161v1003l-17 18q-48 54 -71 64
q-31 14 -75 14h-67v75z" />
    <glyph glyph-name="O" unicode="O" horiz-adv-x="1593" 
d="M784 1510q91 0 178 -24q45 -12 85 -29.5t85 -44.5q166 -98 258.5 -275t92.5 -398t-92 -397t-256 -277.5t-345 -101.5q-178 0 -331 95t-250.5 280t-97.5 404q0 218 89.5 391t252 275t331.5 102zM800 1433q-192 0 -314.5 -163t-122.5 -527q0 -396 123 -548.5t308 -152.5
q124 0 220 68.5t159 219.5q26 72 42 178t16 216q0 260 -54 411.5t-154 224.5t-223 73z" />
    <glyph glyph-name="P" unicode="P" horiz-adv-x="1366" 
d="M80 1479h729q246 0 376.5 -111.5t130.5 -293.5q0 -180 -120 -276q-166 -131 -407 -131h-264v-505q0 -42 21 -63q27 -24 75 -24h168v-75h-709v75h148q44 0 64.5 17.5t20.5 47.5v1179q0 45 -26 65t-98 20h-109v75zM525 740h201q189 0 274.5 79.5t85.5 262.5q0 59 -9 112
t-29 84q-36 69 -108.5 102t-244.5 33q-111 0 -140.5 -21t-29.5 -73v-579z" />
    <glyph glyph-name="Q" unicode="Q" horiz-adv-x="1593" 
d="M1182 92l15 -46l20 -66q33 -129 66 -171t74 -42q32 0 65 43q12 20 21 56t9 85h60q0 -180 -70 -265t-180 -85q-98 0 -162 79.5t-91 319.5q-54 -14 -108 -21l-51 -5l-48 -2q-184 0 -340 95.5t-251 276.5t-95 409q0 322 209 550q189 207 472 207q52 0 93.5 -5t87.5 -18
q86 -22 165 -72q155 -94 249 -276t94 -398q0 -205 -72.5 -359.5t-231.5 -289.5zM1132 230q53 99 78.5 226t25.5 293q0 252 -54.5 398.5t-155 216.5t-226.5 70q-121 0 -218.5 -69t-158.5 -220q-23 -66 -39 -172q-8 -56 -12 -110t-4 -121q0 -180 33 -309t103 -245l-2 74
q0 124 79.5 204t208.5 80q123 0 218 -87q66 -63 124 -229zM1009 103q0 183 -47 261q-57 104 -175 104q-91 0 -152.5 -61t-61.5 -154q0 -94 74 -178l32 -12l48 -13q30 -6 69 -6q54 0 113 15l52 18q29 10 48 26z" />
    <glyph glyph-name="R" unicode="R" horiz-adv-x="1479" 
d="M52 1479h764q222 0 344.5 -101t122.5 -265q0 -98 -48.5 -174t-140.5 -123q-79 -39 -287 -65q143 -39 196.5 -75.5t86.5 -97t75 -243.5q30 -129 64 -179q26 -37 56 -37t57 45q9 16 23 65l7 46l3 50h68q0 -163 -66.5 -251.5t-184.5 -88.5q-70 0 -122.5 35.5t-84.5 110.5
q-15 38 -47 283q-15 133 -46 188.5t-104 90t-164 34.5h-121v-581q0 -36 22 -53.5t72 -17.5h142v-75h-687v75h145q45 0 69 18t24 53v1182q0 34 -24.5 55t-68.5 21h-145v75zM503 799h175q171 0 273 66t102 237q0 117 -36.5 185t-102.5 93t-237 25q-118 0 -146 -16.5t-28 -56.5
v-533z" />
    <glyph glyph-name="S" unicode="S" horiz-adv-x="1290" 
d="M947 1367l90 129h73l6 -539h-66q-30 123 -75 213t-107 148q-123 115 -281 115q-132 0 -216 -78.5t-84 -193.5q0 -71 32 -124.5t95 -87.5q23 -12 90 -34l48 -12l102 -25q245 -55 343.5 -107.5t149.5 -137.5t51 -198q0 -195 -135.5 -329t-346.5 -134q-228 0 -398 148
l-113 -138h-72v573h72q42 -237 188 -374t329 -137q143 0 239 87t96 213q0 71 -33.5 124.5t-112.5 89.5q-28 14 -112 40l-187 49q-245 57 -334 130q-125 102 -125 289q0 195 124.5 319.5t318.5 124.5q93 0 177 -33q44 -17 85 -43q38 -22 89 -67z" />
    <glyph glyph-name="T" unicode="T" horiz-adv-x="1366" 
d="M90 1479h1200l29 -559h-69q-68 493 -356 493q-58 0 -79.5 -20t-21.5 -66v-1182q0 -30 21 -53q22 -17 69 -17h149v-75h-687v75h170q34 0 52 17t18 45v1199q0 38 -23 57.5t-74 19.5q-144 0 -242 -137q-78 -107 -115 -356h-73z" />
    <glyph glyph-name="U" unicode="U" horiz-adv-x="1669" 
d="M54 1479h683v-75h-137q-48 0 -77 -18q-22 -19 -22 -55v-835q0 -140 23 -198q33 -95 123 -156t238 -61q198 0 306 105t108 279v679q0 91 -13 136q-12 49 -35 72q-21 26 -64.5 39t-115.5 13v75h559v-75h-40q-90 0 -138 -51.5t-48 -145.5v-727q0 -232 -136 -365
q-154 -143 -407 -143q-111 0 -198.5 15.5t-148.5 46.5q-120 59 -182 180l-18 44l-14 53l-8 60l-3 67v893q0 28 -24 50.5t-70 22.5h-141v75z" />
    <glyph glyph-name="V" unicode="V" horiz-adv-x="1479" 
d="M-9 1479h623v-75h-108q-66 0 -90.5 -15.5t-24.5 -43.5q0 -16 18 -61l8 -21l389 -991l345 946l7 33l3 35q0 54 -33 87q-11 12 -35.5 21.5t-53.5 9.5h-101v75h546v-75h-44q-26 0 -49 -11q-22 -8 -50 -36q-49 -46 -90 -155l-458 -1237h-73l-522 1322q-27 63 -62.5 90
t-96.5 27h-48v75z" />
    <glyph glyph-name="W" unicode="W" horiz-adv-x="2009" 
d="M35 1479h494v-75h-35q-76 0 -98.5 -13t-22.5 -37q0 -18 15 -57l6 -19l301 -939l264 867q-45 148 -71 172q-24 26 -97 26h-90v75h617v-75h-64q-84 0 -109 -13t-25 -41q0 -21 6 -39l307 -972l252 841q15 48 15 94q0 66 -30.5 98t-91.5 32h-46v75h464v-75q-61 -6 -97 -29
q-34 -19 -59 -57t-57 -138l-364 -1215h-70l-342 1085l-324 -1085h-75l-416 1313q-24 75 -56 100.5t-101 25.5v75z" />
    <glyph glyph-name="X" unicode="X" horiz-adv-x="1442" 
d="M37 1479h607v-75h-71q-77 0 -102.5 -13t-25.5 -33q0 -16 29 -57l283 -416l217 330q42 63 42 103q0 36 -38 61t-133 25v75h537v-75q-82 0 -139 -30q-64 -37 -127 -126l-304 -444l467 -674q20 -29 49 -42q42 -13 103 -13v-75h-586v75h81q58 0 81 15t23 36q0 17 -30 67
l-302 440l-224 -322q-53 -76 -53 -134q0 -48 31 -76q31 -26 91 -26h58v-75h-564v75q42 0 81.5 12t75.5 34q63 38 137 142l313 452l-404 580q-47 68 -85.5 88.5t-117.5 20.5v75z" />
    <glyph glyph-name="Y" unicode="Y" horiz-adv-x="1442" 
d="M-12 1479h648v-75h-72q-94 0 -119 -14t-25 -39q0 -26 14 -47l376 -583l270 497q18 33 18 72q0 48 -34 83q-34 31 -97 31h-69v75h564v-75q-97 0 -153 -33.5t-108 -128.5l-341 -625v-468q0 -30 21 -53q29 -21 86 -21h127v-75h-679v75h134q55 0 78.5 19.5t23.5 54.5v455
l-459 715q-30 45 -70 64q-21 9 -54 15t-80 6v75z" />
    <glyph glyph-name="Z" unicode="Z" horiz-adv-x="1251" 
d="M150 1479h1007v-75l-845 -1329h321q133 0 220 44.5t142.5 131.5t105.5 304h70l-27 -555h-1070v67l853 1337h-305q-67 0 -113 -6.5t-81 -22.5q-89 -36 -151 -138q-55 -96 -85 -270h-70z" />
    <glyph glyph-name="bracketleft" unicode="[" horiz-adv-x="682" 
d="M614 -153v-62l-486 -8v1695l481 -5v-75h-321v-1551z" />
    <glyph glyph-name="backslash" unicode="\" horiz-adv-x="1241" 
d="M144 1504h177l767 -1504h-177z" />
    <glyph glyph-name="bracketright" unicode="]" horiz-adv-x="682" 
d="M384 -157v1565h-305v60l465 4v-1693l-470 8v62z" />
    <glyph glyph-name="asciicircum" unicode="^" horiz-adv-x="1241" 
d="M266 649h-170l439 823h162l439 -823h-170l-350 635z" />
    <glyph glyph-name="underscore" unicode="_" 
d="M1024 -272h-1040v128h1040v-128z" />
    <glyph glyph-name="grave" unicode="`" horiz-adv-x="682" 
d="M211 1366l285 -284h-85l-297 186q-82 50 -82 94q0 11 4 22q3 13 10 25l5 3l5 5l6 5l5 4q12 6 41 6q35 0 103 -66z" />
    <glyph glyph-name="a" unicode="a" horiz-adv-x="1139" 
d="M1057 103l36 -56q-72 -75 -162 -75q-66 0 -110.5 35t-85.5 132q-93 -96 -168 -131.5t-172 -35.5q-145 0 -219.5 62t-74.5 159q0 141 170 237.5t458 133.5v142q0 75 -61 129.5t-155 54.5q-87 0 -150 -36q-45 -27 -45 -53q0 -9 24 -47q29 -40 29 -71q0 -45 -29 -74
q-15 -12 -33 -21l-21 -5l-22 -2q-45 0 -83 33q-34 34 -34 88q0 95 111 179t293 84q165 0 254 -72.5t89 -176.5v-512q0 -63 21 -101q21 -32 58 -32q40 0 82 32zM729 498q-252 -33 -360 -114q-31 -25 -59 -72q-9 -22 -15 -46q-3 -17 -4 -25t-1 -27q0 -77 41 -120.5t107 -43.5
q118 0 204.5 89.5t86.5 224.5v134z" />
    <glyph glyph-name="b" unicode="b" horiz-adv-x="1139" 
d="M357 1496v-696q59 83 131.5 124t156.5 41q165 0 279 -129t114 -340q0 -223 -122.5 -366.5t-303.5 -143.5q-84 0 -156 33q-31 14 -70 45t-74 71q-57 -90 -110 -149l-40 14q14 59 21 117l5 59l2 64v1059q0 48 -34.5 76.5t-97.5 28.5h-42v75zM609 877q-107 0 -181 -99
t-74 -325q0 -212 69.5 -307t183.5 -95q102 0 164 92q78 116 78 331q0 206 -68.5 304.5t-171.5 98.5z" />
    <glyph glyph-name="c" unicode="c" horiz-adv-x="909" 
d="M783 278l65 -19q-78 -287 -344 -287q-192 0 -317.5 129.5t-125.5 342.5q0 245 135 383t321 138q139 0 228.5 -75.5t89.5 -169.5q0 -56 -33.5 -92.5t-79.5 -36.5q-45 0 -76 31t-31 75t34 84q10 12 16 30q0 27 -40 55.5t-105 28.5q-120 0 -185 -89q-90 -129 -90 -340
q0 -201 80 -304.5t204 -103.5q166 0 254 220z" />
    <glyph glyph-name="d" unicode="d" horiz-adv-x="1176" 
d="M598 1479l366 17v-1282q0 -75 28.5 -107t85.5 -32h65v-75h-320l-24 191q-57 -102 -132.5 -153.5t-172.5 -51.5q-158 0 -271.5 135.5t-113.5 352.5q0 231 144 380q113 111 260 111q85 0 158 -44t128 -137v529q0 42 -34 66.5t-100 24.5h-67v75zM540 882q-108 0 -171.5 -89
t-63.5 -300q0 -229 65 -322.5t167 -93.5q109 0 186.5 104.5t77.5 305.5q0 189 -83 299q-72 96 -178 96z" />
    <glyph glyph-name="e" unicode="e" 
d="M946 462h-671q0 -114 20.5 -183t59.5 -119q86 -99 219 -99q195 0 315 223l65 -28q-146 -284 -422 -284q-184 0 -314.5 135.5t-130.5 348.5q0 223 126 366t312 143q135 0 234 -69t150 -202q17 -46 27 -104l7 -60zM275 533h406q31 0 55 24q21 24 21 84q0 108 -68.5 186
t-161.5 78q-102 0 -177 -93q-31 -40 -53 -116t-22 -163z" />
    <glyph glyph-name="f" unicode="f" horiz-adv-x="682" 
d="M387 937h234v-87h-234v-684q0 -47 22 -66q31 -25 84 -25h128v-75h-574v75h79q48 0 71.5 18t23.5 56v701h-162v87h162v70q0 245 102 377t256 132q111 0 175.5 -54.5t64.5 -144.5q0 -57 -31 -91t-77 -34q-39 0 -69 27q-28 28 -28 68q0 41 36 77q23 18 29 36q0 17 -22.5 31
t-67.5 14q-80 0 -143 -76q-27 -33 -43 -93t-16 -131v-208z" />
    <glyph glyph-name="g" unicode="g" horiz-adv-x="1100" 
d="M785 884q99 101 184 101q50 0 83 -32t33 -78q0 -36 -22 -61t-53 -25q-52 0 -77 70q-8 30 -27 30q-27 0 -74 -45q30 -44 59 -103q16 -54 16 -93q0 -83 -41.5 -150t-138.5 -119.5t-188 -52.5h-109q-110 0 -154 -24q-38 -24 -38 -73q0 -39 30 -60t118 -21l247 5
q181 0 266.5 -62.5t85.5 -171.5q0 -120 -94 -202q-131 -116 -391 -116q-215 0 -319 79q-82 62 -82 139q0 55 50.5 103.5t178.5 77.5q-96 24 -147.5 70.5t-51.5 115.5q0 63 38.5 108.5t142.5 84.5q-83 45 -127 113t-44 153q0 136 107 228t278 92q78 0 137 -20q63 -18 124 -61
zM522 901q-85 0 -146 -67q-27 -31 -43 -77t-16 -105q0 -123 57.5 -194t148.5 -71t148 69t57 192q0 117 -57.5 185t-148.5 68zM581 -1q-180 0 -260.5 -51t-80.5 -123q0 -66 59 -107q84 -52 222 -52q168 0 257 57.5t89 126.5q0 35 -27 77q-27 35 -86 53.5t-173 18.5z" />
    <glyph glyph-name="h" unicode="h" horiz-adv-x="1251" 
d="M43 1479l355 17v-722q72 93 159.5 142t179.5 49q91 0 162 -43q51 -33 93 -120.5t42 -199.5v-445q0 -42 22 -63q22 -19 69 -19h80v-75h-506v75h56q60 0 86.5 21t26.5 61v445q0 112 -56.5 180t-144.5 68q-69 0 -128 -36.5t-100 -113t-41 -159.5v-374q0 -44 21 -70
q22 -22 69 -22h80v-75h-495v75h56q58 0 81.5 22.5t23.5 69.5v1118q0 60 -32 89q-30 30 -91 30h-68v75z" />
    <glyph glyph-name="i" unicode="i" horiz-adv-x="645" 
d="M308 1496q45 0 79 -34t34 -80q0 -45 -33 -78t-79 -33q-39 0 -80 33q-33 33 -33 79q0 45 34 79t78 34zM49 937l372 11v-806q0 -30 16 -47q23 -20 58 -20h106v-75h-532v75h99q38 0 61.5 21t23.5 63v590q0 56 -32 84.5t-95 28.5h-77v75z" />
    <glyph glyph-name="j" unicode="j" horiz-adv-x="606" 
d="M319 1498q49 0 81 -32q32 -30 32 -79t-32 -81t-80 -32q-39 0 -80 33q-34 34 -34 79t34 78.5t79 33.5zM419 951v-896q0 -196 -107 -325t-238 -129q-66 0 -102 32.5t-36 88.5q0 49 29 79t73 30q69 0 91 -91q6 -30 14 -37q2 -1 3 -1q12 -5 19 -7q18 0 35 17q23 24 39.5 100
t16.5 153v789q0 51 -34 82t-101 31h-85v70z" />
    <glyph glyph-name="k" unicode="k" horiz-adv-x="1214" 
d="M51 1479l358 17v-1023l305 265q44 39 44 68q0 25 -26 39l-22 7l-31 8l-32 5l-42 2v70h499v-70q-76 0 -130 -19t-96 -59l-215 -191l349 -480q32 -43 111 -43h52v-75h-512v75h51q57 0 75 9t21 25q0 14 -10 28l-254 356l-137 -119v-237q0 -27 19 -43q33 -19 75 -19h65v-75
h-503v75h81q45 0 71.5 21t26.5 56v1156q0 46 -29 66q-42 30 -113 30h-51v75z" />
    <glyph glyph-name="l" unicode="l" horiz-adv-x="645" 
d="M420 1496v-1358q0 -27 17 -43q25 -20 61 -20h99v-75h-530v75h94q41 0 66 21t25 63v1140q0 44 -27 73q-37 32 -91 32h-84v75z" />
    <glyph glyph-name="m" unicode="m" horiz-adv-x="1821" 
d="M125 937l268 17l15 -91l14 -109q75 108 152.5 154t166.5 46q93 0 155.5 -49.5t101.5 -167.5q66 109 149 163t179 54q128 0 192 -76q82 -100 82 -258v-465q0 -42 21 -57q28 -23 83 -23h47v-75h-471v75h47q61 0 84.5 20t23.5 60v465q0 101 -51.5 159.5t-133.5 58.5
q-62 0 -110.5 -32t-83.5 -97q-8 -18 -14 -33q-9 -24 -18 -51q-5 -17 -8 -34t-3 -33v-403q0 -39 22 -61q22 -19 68 -19h64v-75h-477v75h54q52 0 76.5 20t24.5 51v432q0 137 -48.5 199t-130.5 62q-100 0 -163 -72q-81 -102 -81 -238v-374q0 -39 19 -59q27 -21 84 -21h48v-75
h-472v75h71h23l12 4q10 3 26 16q22 20 22 51v614q0 51 -24.5 75t-105.5 33v69z" />
    <glyph glyph-name="n" unicode="n" horiz-adv-x="1251" 
d="M67 937l311 19l15 -91l13 -115q63 102 148.5 153t193.5 51q91 0 153 -35.5t102 -115t40 -178.5v-456q0 -51 23 -72.5t77 -21.5h66v-75h-494v75h47q61 0 89.5 21.5t28.5 62.5v401q0 129 -40 194q-56 90 -170 90q-113 0 -188.5 -90.5t-75.5 -237.5v-347q0 -51 23.5 -72.5
t77.5 -21.5h65v-75h-496v75h65q48 0 74 20t26 50v605q0 56 -33.5 89t-92.5 33h-48v65z" />
    <glyph glyph-name="o" unicode="o" 
d="M509 965q186 0 316 -136t130 -360q0 -153 -57.5 -261.5t-163 -172t-230.5 -63.5q-176 0 -308 138q-60 66 -95 158q-15 44 -24 93q-4 25 -6 49.5t-2 57.5q0 216 126 356.5t314 140.5zM509 894q-107 0 -181.5 -103t-74.5 -319q0 -218 72 -323.5t184 -105.5q117 0 189.5 103
t72.5 337q0 213 -71.5 312t-190.5 99z" />
    <glyph glyph-name="p" unicode="p" horiz-adv-x="1176" 
d="M363 954l18 -108l6 -50l2 -44q69 110 147 156t164 46q96 0 181 -57t144 -176q23 -50 39 -118t16 -138q0 -113 -33.5 -208t-100.5 -165q-111 -120 -266 -120q-85 0 -158.5 45.5t-126.5 133.5v-379q0 -38 21 -62q27 -24 75 -24h69v-71h-499v71h69q49 0 72.5 18.5t23.5 50.5
v986q0 64 -33 97q-13 11 -49.5 21.5t-82.5 10.5v67zM654 863q-105 0 -182.5 -106t-77.5 -303t72.5 -295t186.5 -98q105 0 163 82q36 53 54 135q5 21 7 33t6.5 52.5t5 62t0.5 33.5q0 215 -66.5 309.5t-168.5 94.5z" />
    <glyph glyph-name="q" unicode="q" horiz-adv-x="1139" 
d="M840 802q51 84 113 152l35 -17q-14 -64 -21 -124l-5 -62l-2 -68v-901q0 -47 21 -71q28 -25 88 -25h40v-71h-491v71h66q61 0 85.5 23t24.5 73v356q-57 -81 -129.5 -123.5t-158.5 -42.5q-158 0 -278.5 138.5t-120.5 345.5q0 138 60 255t159 180t209 63q80 0 152.5 -33.5
t152.5 -118.5zM548 887q-105 0 -174.5 -99.5t-69.5 -312.5t69 -311.5t173 -98.5q67 0 123 40.5t91.5 128.5t35.5 227q0 162 -30 248t-91 132t-127 46z" />
    <glyph glyph-name="r" unicode="r" horiz-adv-x="909" 
d="M52 937l337 17v-379q54 186 129.5 282.5t188.5 96.5q75 0 121 -47q22 -22 34 -54.5t12 -69.5q0 -63 -30.5 -98t-76.5 -35q-40 0 -73 30q-27 30 -27 81q0 33 15 60l16 33q0 15 -19 15q-39 0 -93 -48q-72 -66 -111 -184q-60 -182 -60 -291v-201q0 -28 24 -52q24 -18 82 -18
h119v-75h-582v75h93q42 0 68.5 18t26.5 45v597q0 70 -29 100.5t-83 30.5h-82v71z" />
    <glyph glyph-name="s" unicode="s" horiz-adv-x="948" 
d="M179 353q62 -173 142.5 -239.5t198.5 -66.5q108 0 167 47.5t59 120.5q0 42 -22 73q-17 29 -53.5 43.5t-195 45.5t-217.5 65t-96 92q-33 57 -33 127q0 97 69 187q89 107 249 107q122 0 226 -77l66 70h41l26 -334h-67q-44 142 -119 204.5t-185 62.5q-93 0 -148 -46
t-55 -114q0 -55 46.5 -94.5t195.5 -66.5l82 -15l56 -11q54 -9 78 -21q80 -30 126 -93q20 -29 33 -68.5t13 -83.5q0 -124 -97.5 -210t-247.5 -86q-139 0 -258 92l-73 -84h-53l-20 373h66z" />
    <glyph glyph-name="t" unicode="t" horiz-adv-x="797" 
d="M313 1319h68v-382h303v-92h-303v-601q0 -78 36 -119.5t95 -41.5q62 0 116 63q23 30 39.5 85.5t16.5 122.5h67v-11q0 -19 -1 -38t-3.5 -37.5t-6.5 -36t-11 -37.5q-21 -65 -63 -118q-78 -90 -205 -90q-111 0 -179 63.5t-68 166.5v629h-163v70q106 18 169 93q40 51 66.5 135
t26.5 176z" />
    <glyph glyph-name="u" unicode="u" horiz-adv-x="1251" 
d="M388 954v-621q0 -109 57.5 -173.5t148.5 -64.5q107 0 188 90t81 227v351q0 48 -35 74q-16 12 -50 22l-35 6l-47 2v70l329 17v-769q0 -47 30 -82q31 -28 84 -28h59v-67l-315 -8l-20 185q-80 -96 -168 -147.5t-173 -51.5q-122 0 -211 84.5t-89 285.5v407q0 54 -43 82
l-46 16q-30 6 -77 6v70z" />
    <glyph glyph-name="v" unicode="v" horiz-adv-x="1100" 
d="M26 937h461v-68q-91 0 -117 -15.5t-26 -42.5q0 -21 10 -44l248 -553l227 536l5 28q0 67 -144 91v68h388v-68q-59 -6 -94 -32t-54 -70l-344 -795h-54l-368 817q-18 42 -50 61t-88 19v68z" />
    <glyph glyph-name="w" unicode="w" horiz-adv-x="1593" 
d="M53 937h411v-69h-54q-40 0 -57 -12.5t-17 -33.5t10 -47l211 -530l183 504q-38 80 -67 99.5t-102 19.5v69h452v-69h-38q-52 0 -71.5 -13.5t-19.5 -37.5q0 -18 9 -42l213 -530l169 471q17 49 17 80q0 34 -26 51q-12 9 -36.5 15t-61.5 6v69h365v-69q-66 -9 -98.5 -38.5
t-63.5 -100.5l-272 -757h-58l-264 657l-236 -657h-58l-336 828q-15 34 -36 52l-27 11l-19 4l-22 1v69z" />
    <glyph glyph-name="x" unicode="x" horiz-adv-x="1100" 
d="M48 937h452v-69q-110 0 -110 -39q0 -9 18 -41l162 -214l158 198q17 22 17 42q0 42 -121 54v69h395v-69q-143 -23 -219 -119l-183 -230l289 -376q9 -12 25.5 -26t37.5 -27q33 -15 100 -15v-75h-479v75h34q59 0 78 11q16 6 16 20q0 11 -19 37l-188 249l-151 -194
q-32 -41 -32 -66q0 -19 22 -38q36 -19 105 -19v-75h-407v75h27q15 0 32 7l31 11l24 13q66 39 119 107l186 236l-275 356q-47 63 -144 63v69z" />
    <glyph glyph-name="y" unicode="y" horiz-adv-x="1100" 
d="M46 937h449v-68h-42q-59 0 -80.5 -15.5t-21.5 -44.5l6 -26l261 -564l194 468q21 50 21 98q0 37 -29 57q-11 8 -45 19l-31 6l-40 2v68h390v-68q-51 0 -90.5 -26.5t-61.5 -74.5l-346 -807q-89 -205 -178.5 -282.5t-192.5 -77.5q-76 0 -121 41t-45 101q0 41 27 74
q27 29 71 29q36 0 63 -24t27 -61v-16l-4 -14l-4 -22q0 -24 31 -24q30 0 73 24.5t79 76t126 234.5l-355 763q-15 36 -43 55.5t-88 30.5v68z" />
    <glyph glyph-name="z" unicode="z" horiz-adv-x="985" 
d="M151 937h743v-60l-589 -802h287q99 0 156 60t93 232h67l-22 -367h-788v69l588 797h-249q-77 0 -116 -21q-35 -21 -63.5 -67.5t-55.5 -174.5h-74z" />
    <glyph glyph-name="braceleft" unicode="{" horiz-adv-x="682" 
d="M680 -362v-36q-169 21 -276.5 135.5t-107.5 262.5q0 70 23 171l17 91q6 38 6 55q0 78 -63 141t-170 78v42q109 15 171.5 79.5t62.5 149.5q0 41 -24 146l-17 87q-6 39 -6 67q0 151 101.5 261.5t282.5 143.5v-33q-231 -53 -231 -249q0 -39 18 -125q29 -136 29 -182
q0 -116 -74.5 -211t-228.5 -152q142 -51 222.5 -150.5t80.5 -208.5q0 -32 -5 -67t-17 -87q-25 -139 -25 -165q0 -88 56.5 -150.5t174.5 -93.5z" />
    <glyph glyph-name="bar" unicode="|" horiz-adv-x="1241" 
d="M554 1479h134v-1726h-134v1726z" />
    <glyph glyph-name="braceright" unicode="}" horiz-adv-x="682" 
d="M7 -362q110 24 171 90.5t61 150.5q0 21 -6 60l-9 56l-11 52q-21 98 -21 149q0 111 78 210t224 154q-150 53 -226 149.5t-76 213.5q0 12 0.5 26t6.5 46l3 30q0 9 5 22l15 66q17 77 17 117q0 195 -232 249v33q173 -27 279 -141t106 -263q0 -50 -23.5 -156.5t-23.5 -144.5
q0 -86 59.5 -147t173.5 -82v-42q-104 -12 -168.5 -76.5t-64.5 -142.5q0 -26 5 -60.5t18 -93.5q24 -107 24 -163q0 -143 -107.5 -257t-277.5 -141v36z" />
    <glyph glyph-name="asciitilde" unicode="~" horiz-adv-x="1241" 
d="M1115 849h53q0 -73 -18.5 -129t-59.5 -98q-74 -82 -185 -82q-55 0 -114 17t-265 105q-152 63 -217 63q-147 0 -183 -183h-53q0 75 21 133t58 98q71 78 174 78h30l27 -5l22 -3l29 -9q57 -15 123.5 -40t157.5 -65t148 -58l33 -6l36 -2q76 0 123.5 47t59.5 139z" />
    <glyph glyph-name="dieresis" unicode="&#xa8;" 
 />
    <glyph glyph-name="copyright" unicode="&#xa9;" horiz-adv-x="1772" 
 />
    <glyph glyph-name="registered" unicode="&#xae;" horiz-adv-x="1770" 
 />
    <glyph glyph-name="acute" unicode="&#xb4;" 
 />
    <glyph glyph-name="paragraph" unicode="&#xb6;" 
d="M929 1435v-70h-127v-1365h-82v1365h-166v-1365h-84v738q-174 8 -275.5 102.5t-101.5 245.5q0 157 107.5 253t285.5 96h443z" />
    <glyph glyph-name="onequarter" unicode="&#xbc;" horiz-adv-x="1780" 
 />
    <glyph glyph-name="onehalf" unicode="&#xbd;" horiz-adv-x="1780" 
 />
    <glyph glyph-name="threequarters" unicode="&#xbe;" horiz-adv-x="1780" 
 />
    <glyph glyph-name="Agrave" unicode="&#xc0;" horiz-adv-x="1479" 
d="M197 252l495 1257h80l543 -1327q24 -60 69 -80q9 -3 14 -4t23 -4l76 -2v-92h-629v92h84q37 0 88 12q7 0 12 2.5t15 10.5q10 10 16 33l-8 34l-121 297h-553l-41 -102l-20 -64l-18 -53q-7 -20 -7 -53q0 -70 74 -100q45 -17 135 -17v-92h-540v92q81 0 128.5 38t84.5 122z
M440 586h475l-241 602zM631 1796l-37 23l-33 32q-10 16 -16 54q0 31 18 55q5 5 29 8l37 -6l35 -14q19 -6 30 -23l33 -31l283 -284h-84z" />
    <glyph glyph-name="Aacute" unicode="&#xc1;" horiz-adv-x="1479" 
d="M197 252l495 1257h80l543 -1327q24 -60 69 -80q9 -3 14 -4t23 -4l76 -2v-92h-629v92h84q37 0 88 12q7 0 12 2.5t15 10.5q10 10 16 33l-8 34l-121 297h-553l-41 -102l-20 -64l-18 -53q-7 -20 -7 -53q0 -70 74 -100q45 -17 135 -17v-92h-540v92q81 0 128.5 38t84.5 122z
M440 586h475l-241 602zM965 1796l-295 -186h-84l282 284l25 25l45 31q6 4 41 10q70 0 70 -66q0 -15 -15 -41q-12 -18 -33 -32z" />
    <glyph glyph-name="Acircumflex" unicode="&#xc2;" horiz-adv-x="1479" 
d="M197 252l495 1257h80l543 -1327q24 -59 69 -80q35 -10 113 -10v-92h-629v92h84q38 0 88 12q12 0 29 15q9 9 14 31l-8 34l-121 297h-553l-23 -61q-8 -25 -18 -41l-9 -33q-2 -8 -3.5 -13.5t-7.5 -17.5q-18 -48 -18 -53q-7 -23 -7 -53q0 -72 74 -100q46 -17 135 -17v-92
h-540v92q78 0 131 39q48 40 82 121zM440 586h475l-241 602zM741 1821l-249 -211h-72l256 340h129l256 -340h-72z" />
    <glyph glyph-name="Atilde" unicode="&#xc3;" horiz-adv-x="1479" 
d="M197 252l495 1257h80l543 -1327q24 -60 69 -80q9 -3 14 -4t23 -4l76 -2v-92h-629v92h84q37 0 88 12q7 0 12 2.5t15 10.5q10 10 16 33l-8 34l-121 297h-553l-41 -102l-20 -64l-18 -53q-7 -20 -7 -53q0 -70 74 -100q45 -17 135 -17v-92h-540v92q81 0 128.5 38t84.5 122z
M440 586h475l-241 602zM1051 1851h59l-2 -18l-21 -64l-38 -63q-13 -16 -25.5 -27t-26.5 -18l-53 -21l-49 -6q-44 0 -98 19q-26 5 -95 43l-47 20q-7 3 -21.5 5.5t-25.5 4.5q-49 0 -76 -28l-20 -25l-18 -39h-62q18 97 94 164q28 23 66 35l57 8h33l33 -10q11 -1 23 -5.5
t24 -10.5l55 -27l66 -31l55 -8l37 6q54 25 76 96z" />
    <glyph glyph-name="Egrave" unicode="&#xc8;" horiz-adv-x="1479" 
d="M63 1386v93h1233l29 -525h-86q-50 284 -154 363q-94 69 -383 69h-40l-93 -2q-59 -9 -59 -77v-494h74q135 0 203.5 65t68.5 216h92v-674h-92q0 142 -57 219q-28 40 -71 60t-105 20h-113v-549l2 -25l18 -26l39 -17l56 -2l63 -6l68 -2h41l61 2h37l29 8q74 0 131 29
q53 30 100 86q55 70 100 248l19 82h84l-39 -547h-1260v92h62q63 0 96 6q50 11 66 60l4 88v991l-2 88q0 10 -3 19.5t-18 19.5q-7 7 -61 16l-101 6h-39zM631 1796l-37 23l-33 32q-10 16 -16 54q0 31 18 55q5 5 29 8l37 -6l35 -14q19 -6 30 -23l33 -31l283 -284h-84z" />
    <glyph glyph-name="Eacute" unicode="&#xc9;" horiz-adv-x="1479" 
d="M63 1386v93h1233l29 -525h-86q-50 284 -154 363q-94 69 -383 69h-40l-93 -2q-59 -9 -59 -77v-494h74q135 0 203.5 65t68.5 216h92v-674h-92q0 142 -57 219q-28 40 -71 60t-105 20h-113v-549l2 -25l18 -26l39 -17l56 -2l63 -6l68 -2h41l61 2h37l29 8q74 0 131 29
q53 30 100 86q55 70 100 248l19 82h84l-39 -547h-1260v92h62q63 0 96 6q50 11 66 60l4 88v991l-2 88q0 10 -3 19.5t-18 19.5q-7 7 -61 16l-101 6h-39zM965 1796l-295 -186h-84l282 284l25 25l45 31q6 4 41 10q70 0 70 -66q0 -15 -15 -41q-12 -18 -33 -32z" />
    <glyph glyph-name="Ecircumflex" unicode="&#xca;" horiz-adv-x="1479" 
d="M63 1386v93h1233l29 -525h-86q-50 284 -154 363q-93 69 -383 69h-40q-87 0 -93 -2q-59 -9 -59 -77v-494h74q135 0 203.5 65t68.5 216h92v-674h-92q0 141 -57 219q-27 40 -70.5 60t-105.5 20h-113v-549q0 -20 2 -25l18 -26q8 -4 13.5 -7t25.5 -10l56 -2l63 -6h34
q22 0 34 -2h41h23h24l14 2l34 1l32 7q153 14 231 115q57 72 100 248l19 82h84l-39 -547h-1260v92h62q66 0 96 6q53 11 66 60l4 88v991l-2 88q-3 27 -21 39q-8 9 -56.5 15.5t-105.5 6.5h-39zM741 1821l-249 -211h-72l256 340h129l256 -340h-72z" />
    <glyph glyph-name="Igrave" unicode="&#xcc;" horiz-adv-x="834" 
d="M752 0h-674v92h41l80 2q17 0 30 2t23 8q38 14 43 29l8 31l2 43v1069v17q0 24 -4 32q0 19 -18 37l-45 18q-23 6 -60 6l-37 -2h-37l-24 2v93h676v-93h-80l-86 -6q-37 -9 -58 -47l-4 -37v-30v-1065q0 -17 1 -32q0 -15 3 -22l7 -16l12 -12q13 -8 49 -21l62 -6l57 2l33 -2v-92
zM311 1808l-37 23l-32 33q-6 8 -10 20.5t-7 32.5q0 32 19 55q5 5 28 8l37 -6l35 -14q10 -3 17.5 -8t13.5 -15l33 -30l282 -285h-84z" />
    <glyph glyph-name="Iacute" unicode="&#xcd;" horiz-adv-x="834" 
d="M752 0h-674v92h41l80 2q17 0 30 2t23 8q38 14 43 29l8 31l2 43v1069v17q0 24 -4 32q0 19 -18 37l-45 18q-23 6 -60 6l-37 -2h-37l-24 2v93h676v-93h-80l-86 -6q-37 -9 -58 -47l-4 -37v-30v-1065q0 -17 1 -32q0 -15 3 -22l7 -16l12 -12q13 -8 49 -21l62 -6l57 2l33 -2v-92
zM612 1796l-288 -186h-91l283 284l25 25l37 27l38 14l41 8q25 0 33 -10l15 -19l4 -22q0 -26 -29 -68l-31 -28z" />
    <glyph glyph-name="Ograve" unicode="&#xd2;" horiz-adv-x="1593" 
d="M1501 739q0 -267 -172 -499q-202 -271 -530 -271q-307 0 -512 236q-195 225 -195 534q0 265 172 500q203 270 531 270q307 0 512 -235q194 -226 194 -535zM1239 739q0 132 -15 233.5t-48 182.5q-105 262 -381 262q-245 0 -359 -227q-19 -43 -34.5 -92t-25.5 -102.5
t-16 -120.5t-6 -136q0 -257 64 -415q104 -263 381 -263q244 0 358 228q39 83 62 194q9 53 14.5 122.5t5.5 133.5zM631 1796l-37 23l-33 32q-10 16 -16 54q0 31 18 55q5 5 29 8l37 -6l35 -14q19 -6 30 -23l33 -31l283 -284h-84z" />
    <glyph glyph-name="Oacute" unicode="&#xd3;" horiz-adv-x="1593" 
d="M1239 739q0 132 -15 233.5t-48 182.5q-105 262 -381 262q-245 0 -359 -227q-19 -43 -34.5 -92t-25.5 -102.5t-16 -120.5t-6 -136q0 -257 64 -415q104 -263 381 -263q244 0 358 228q39 83 62 194q9 53 14.5 122.5t5.5 133.5zM1501 739q0 -267 -172 -499
q-202 -271 -530 -271q-307 0 -512 236q-195 225 -195 534q0 265 172 500q203 270 531 270q307 0 512 -235q194 -226 194 -535zM1022 1796l-295 -186h-84l283 284l24 25l45 31q5 3 19 6t22 4q70 0 70 -66q0 -17 -14 -41q-14 -18 -33 -32z" />
    <glyph glyph-name="Ocircumflex" unicode="&#xd4;" horiz-adv-x="1593" 
d="M1239 739q0 131 -15 233t-48 183q-105 262 -381 262q-247 0 -359 -227q-38 -84 -60 -196.5t-22 -254.5q0 -257 64 -415q104 -263 381 -263q245 0 358 228q38 83 60 195.5t22 254.5zM1501 739q0 -270 -172 -499q-202 -271 -530 -271q-306 0 -512 236q-195 225 -195 534
q0 267 172 500q203 270 531 270q305 0 512 -235q194 -226 194 -535zM799 1821l-250 -211h-72l256 340h129l256 -340h-71z" />
    <glyph glyph-name="Otilde" unicode="&#xd5;" horiz-adv-x="1593" 
d="M1239 739q0 132 -15 233.5t-48 182.5q-105 262 -381 262q-245 0 -359 -227q-19 -43 -34.5 -92t-25.5 -102.5t-16 -120.5t-6 -136q0 -257 64 -415q104 -263 381 -263q244 0 358 228q39 83 62 194q9 53 14.5 122.5t5.5 133.5zM1501 739q0 -267 -172 -499
q-202 -271 -530 -271q-307 0 -512 236q-195 225 -195 534q0 265 172 500q203 270 531 270q307 0 512 -235q194 -226 194 -535zM1079 1851h60l-2 -18l-21 -64l-39 -63q-24 -30 -51 -45l-53 -21l-49 -6q-45 0 -99 19q-28 6 -94 43l-47 20q-6 3 -21 5.5t-26 4.5q-49 0 -76 -28
l-20 -25l-19 -39h-61q18 97 94 164q15 12 30 20t36 15l57 8h33l32 -10q11 -2 23 -5.5t25 -10.5l55 -27l65 -31l56 -8l37 6q55 26 75 96z" />
    <glyph glyph-name="Ugrave" unicode="&#xd9;" horiz-adv-x="1669" 
d="M35 1386v93h684v-93l-150 -10q-49 0 -69 -14q-9 -6 -15 -25v-821q0 -151 24.5 -219.5t84.5 -122.5q59 -47 133 -76q80 -22 172 -22q110 0 196.5 45t145.5 137l21 41l22 76q7 33 10.5 57t3.5 47v654q0 145 -46 199t-193 54v93h577v-93q-154 0 -204 -92q-29 -56 -29 -233
v-449q0 -38 -3 -98t-3 -82q-6 -72 -23 -121q-27 -92 -94.5 -173.5t-198.5 -131.5q-106 -37 -241 -37h-52h-13q-21 0 -40 4q-15 0 -37 3t-61 12q-40 7 -69 15.5t-60 25.5q-66 28 -117 77q-33 34 -58.5 68t-41.5 66q-29 69 -29 159v887v25l-6 35q0 7 -25 22q-19 11 -53 14
l-78 4h-65zM729 1784l-37 22l-33 33q-5 7 -9 22t-7 31q0 31 19 56q5 5 28 8l37 -6l35 -15q19 -6 31 -22l32 -31l283 -285h-84z" />
    <glyph glyph-name="Uacute" unicode="&#xda;" horiz-adv-x="1669" 
d="M35 1386v93h684v-93l-150 -10q-49 0 -69 -14q-9 -6 -15 -25v-821q0 -151 24.5 -219.5t84.5 -122.5q59 -47 133 -76q80 -22 172 -22q110 0 196.5 45t145.5 137l21 41l22 76q7 33 10.5 57t3.5 47v654q0 145 -46 199t-193 54v93h577v-93q-154 0 -204 -92q-29 -56 -29 -233
v-449q0 -38 -3 -98t-3 -82q-6 -72 -23 -121q-27 -92 -94.5 -173.5t-198.5 -131.5q-106 -37 -241 -37h-52h-13q-21 0 -40 4q-15 0 -37 3t-61 12q-40 7 -69 15.5t-60 25.5q-66 28 -117 77q-33 34 -58.5 68t-41.5 66q-29 69 -29 159v887v25l-6 35q0 7 -25 22q-19 11 -53 14
l-78 4h-65zM993 1845l-288 -186h-91l283 285l25 24l36 27l39 14l41 8q25 0 33 -10l14 -18l5 -23q0 -26 -29 -68l-31 -28z" />
    <glyph glyph-name="Yacute" unicode="&#xdd;" horiz-adv-x="1442" 
d="M629 1479v-93h-66h-24l-27 3l-51 -7q-18 0 -29 -14q-6 -9 -6 -22l4 -29l12 -25l13 -18l344 -551l241 430l41 82l9 57l-7 39q-10 15 -16 21.5t-12 9.5q-40 13 -78 18l-94 6v93h577v-93q-105 0 -172 -49q-48 -35 -110 -147l-326 -582v-389q0 -82 18 -106q21 -21 105 -21
h115v-92h-703v92h62h47q58 0 85.5 8t41.5 39l6 58v47v346l-412 653l-45 72q-28 40 -68 55q-38 16 -81 16h-50v93h656zM870 1796l-288 -186h-90l282 284l25 25l37 27l38 14l41 8q25 0 33 -10l15 -19l4 -22q0 -26 -29 -68l-31 -28z" />
    <glyph glyph-name="agrave" unicode="&#xe0;" horiz-adv-x="1139" 
d="M1057 103l36 -56q-72 -75 -162 -75q-66 0 -110.5 35t-85.5 132q-93 -96 -168 -131.5t-172 -35.5q-145 0 -219.5 62t-74.5 159q0 141 170 237.5t458 133.5v142q0 75 -61 129.5t-155 54.5q-87 0 -150 -36q-45 -27 -45 -53q0 -9 24 -47q29 -40 29 -71q0 -45 -29 -74
q-15 -12 -33 -21l-21 -5l-22 -2q-45 0 -83 33q-34 34 -34 88q0 95 111 179t293 84q165 0 254 -72.5t89 -176.5v-512q0 -63 21 -101q21 -32 58 -32q40 0 82 32zM729 498q-252 -33 -360 -114q-31 -25 -59 -72q-9 -22 -15 -46q-3 -17 -4 -25t-1 -27q0 -77 41 -120.5t107 -43.5
q118 0 204.5 89.5t86.5 224.5v134zM442 1366l283 -285h-84l-295 187q-15 8 -28.5 17.5t-22.5 19.5q-31 28 -31 57q0 16 4 24q3 14 11 23l20 16q14 7 41 7q26 0 55 -23l18 -16z" />
    <glyph glyph-name="aacute" unicode="&#xe1;" horiz-adv-x="1139" 
d="M1057 103l36 -56q-72 -75 -162 -75q-66 0 -110.5 35t-85.5 132q-93 -96 -168 -131.5t-172 -35.5q-145 0 -219.5 62t-74.5 159q0 141 170 237.5t458 133.5v142q0 75 -61 129.5t-155 54.5q-87 0 -150 -36q-45 -27 -45 -53q0 -9 24 -47q29 -40 29 -71q0 -45 -29 -74
q-15 -12 -33 -21l-21 -5l-22 -2q-45 0 -83 33q-34 34 -34 88q0 95 111 179t293 84q165 0 254 -72.5t89 -176.5v-512q0 -63 21 -101q21 -32 58 -32q40 0 82 32zM729 498q-252 -33 -360 -114q-31 -25 -59 -72q-9 -22 -15 -46q-3 -17 -4 -25t-1 -27q0 -77 41 -120.5t107 -43.5
q118 0 204.5 89.5t86.5 224.5v134zM668 1301l-295 -187h-84l283 285l24 25q21 18 45 30q7 5 41 11q70 0 70 -66q0 -18 -15 -41l-16 -19l-16 -14z" />
    <glyph glyph-name="acircumflex" unicode="&#xe2;" horiz-adv-x="1139" 
d="M1057 103l36 -56q-72 -75 -162 -75q-66 0 -110.5 35t-85.5 132q-93 -96 -168 -131.5t-172 -35.5q-145 0 -219.5 62t-74.5 159q0 141 170 237.5t458 133.5v142q0 75 -61 129.5t-155 54.5q-87 0 -150 -36q-45 -27 -45 -53q0 -9 24 -47q29 -40 29 -71q0 -45 -29 -74
q-15 -12 -33 -21l-21 -5l-22 -2q-45 0 -83 33q-34 34 -34 88q0 95 111 179t293 84q165 0 254 -72.5t89 -176.5v-512q0 -63 21 -101q21 -32 58 -32q40 0 82 32zM729 498q-252 -33 -360 -114q-31 -25 -59 -72q-9 -22 -15 -46q-3 -17 -4 -25t-1 -27q0 -77 41 -120.5t107 -43.5
q118 0 204.5 89.5t86.5 224.5v134zM571 1292l-249 -211h-72l256 340h129l256 -340h-55z" />
    <glyph glyph-name="atilde" unicode="&#xe3;" horiz-adv-x="1139" 
d="M1057 103l36 -56q-72 -75 -162 -75q-66 0 -110.5 35t-85.5 132q-93 -96 -168 -131.5t-172 -35.5q-145 0 -219.5 62t-74.5 159q0 141 170 237.5t458 133.5v142q0 75 -61 129.5t-155 54.5q-87 0 -150 -36q-45 -27 -45 -53q0 -9 24 -47q29 -40 29 -71q0 -45 -29 -74
q-15 -12 -33 -21l-21 -5l-22 -2q-45 0 -83 33q-34 34 -34 88q0 95 111 179t293 84q165 0 254 -72.5t89 -176.5v-512q0 -63 21 -101q21 -32 58 -32q40 0 82 32zM729 498q-252 -33 -360 -114q-31 -25 -59 -72q-9 -22 -15 -46q-3 -17 -4 -25t-1 -27q0 -77 41 -120.5t107 -43.5
q118 0 204.5 89.5t86.5 224.5v134zM874 1370l1 -6q0 -12 -9 -33l-19 -43q-27 -48 -39 -63q-21 -27 -51 -45l-25 -11l-28 -10q-26 -6 -49 -6q-49 0 -99 19q-31 9 -94 43l-27 13l-16 6l-26 7l-25 4q-48 0 -76 -28l-9 -8l-11 -17l-19 -39h-61q18 97 94 164l31 21l19 8l15 6
l50 8q48 0 84 -14l125 -58q25 -12 43 -18l36 -4l21 1q7 0 24 7q56 27 76 96h64z" />
    <glyph glyph-name="egrave" unicode="&#xe8;" 
d="M950 461h-669q0 -80 15 -145t48 -119q74 -123 227 -123q90 0 150 32q30 18 60.5 45.5t56.5 63.5l24 43l21 35l69 -39q-63 -139 -166 -213q-49 -36 -109.5 -54t-139.5 -18q-97 0 -193 33q-43 18 -83 43q-30 22 -71 66q-60 69 -92 155l-10 37l-10 55q-6 48 -6 103
q0 207 123 360q130 160 335 160q111 0 197 -55q44 -25 78 -62q35 -35 67 -90q23 -40 43 -108l25 -117l8 -43zM285 545h344h24q43 0 62.5 12.5t19.5 63.5q0 60 -11 101q-9 47 -36 87q-56 90 -164 90q-117 0 -188 -123q-51 -96 -51 -231zM414 1427l13 2q21 0 56 -22
q21 -12 56 -47l282 -285h-94l-285 187q-57 36 -65 47q-18 21 -21 38l-2 23q0 13 8 29q12 18 52 28z" />
    <glyph glyph-name="eacute" unicode="&#xe9;" 
d="M950 461h-669q0 -80 15 -145t48 -119q74 -123 227 -123q90 0 150 32q30 18 60.5 45.5t56.5 63.5l24 43l21 35l69 -39q-63 -139 -166 -213q-49 -36 -109.5 -54t-139.5 -18q-97 0 -193 33q-43 18 -83 43q-30 22 -71 66q-60 69 -92 155l-10 37l-10 55q-6 48 -6 103
q0 207 123 360q130 160 335 160q111 0 197 -55q44 -25 78 -62q35 -35 67 -90q23 -40 43 -108l25 -117l8 -43zM285 545h344h24q43 0 62.5 12.5t19.5 63.5q0 60 -11 101q-9 47 -36 87q-56 90 -164 90q-117 0 -188 -123q-51 -96 -51 -231zM737 1268l-295 -187h-84l283 285
l25 25l22 16l23 14q7 5 41 11q69 0 69 -66q0 -21 -14 -41l-13 -17l-22 -18z" />
    <glyph glyph-name="ecircumflex" unicode="&#xea;" 
d="M946 462h-671q0 -114 20.5 -183t59.5 -119q86 -99 219 -99q195 0 315 223l65 -28q-146 -284 -422 -284q-184 0 -314.5 135.5t-130.5 348.5q0 223 126 366t312 143q135 0 234 -69t150 -202q17 -46 27 -104l7 -60zM275 533h406q31 0 55 24q21 24 21 84q0 108 -68.5 186
t-161.5 78q-102 0 -177 -93q-31 -40 -53 -116t-22 -163zM514 1292l-250 -211h-71l256 340h129l256 -340h-72z" />
    <glyph glyph-name="igrave" unicode="&#xec;" horiz-adv-x="645" 
d="M592 0h-539v72h56l61 6q31 0 45 10q9 21 12 45l4 60v36v471v29l-2 41l-1 20q0 8 -6.5 22.5t-31.5 21.5l-30 6l-123 4v86l383 20v-786v-31q0 -29 9 -44q10 -13 50 -13l53 -2h30q23 0 30 -2v-72zM117 1438l13 1q24 0 56 -22q13 -7 24 -16t32 -31l282 -285h-94l-285 187
q-54 36 -65 47q-18 21 -21 38l-2 23q0 15 9.5 31.5t50.5 26.5z" />
    <glyph glyph-name="iacute" unicode="&#xed;" horiz-adv-x="645" 
d="M592 0h-539v72h56l61 6q31 0 45 10q9 21 12 45l4 60v36v471v29l-2 41l-1 20q0 8 -6.5 22.5t-31.5 21.5l-30 6l-123 4v86l383 20v-786v-31q0 -29 9 -44q10 -13 50 -13l53 -2h30q23 0 30 -2v-72zM547 1268l-295 -187h-84l283 285l24 25q21 18 45 30q7 5 41 11q70 0 70 -66
q0 -18 -15 -41l-16 -19l-16 -14z" />
    <glyph glyph-name="ograve" unicode="&#xf2;" 
d="M509 965q186 0 316 -136t130 -360q0 -153 -57.5 -261.5t-163 -172t-230.5 -63.5q-176 0 -308 138q-60 66 -95 158q-15 44 -24 93q-4 25 -6 49.5t-2 57.5q0 216 126 356.5t314 140.5zM509 894q-107 0 -181.5 -103t-74.5 -319q0 -218 72 -323.5t184 -105.5q117 0 189.5 103
t72.5 337q0 213 -71.5 312t-190.5 99zM347 1472l13 1q24 0 57 -21q22 -13 55 -47l282 -285h-94l-284 186l-35 23l-31 24q-14 16 -20 45l-2 17q0 12 9 30t50 27z" />
    <glyph glyph-name="oacute" unicode="&#xf3;" 
d="M509 965q186 0 316 -136t130 -360q0 -153 -57.5 -261.5t-163 -172t-230.5 -63.5q-176 0 -308 138q-60 66 -95 158q-15 44 -24 93q-4 25 -6 49.5t-2 57.5q0 216 126 356.5t314 140.5zM509 894q-107 0 -181.5 -103t-74.5 -319q0 -218 72 -323.5t184 -105.5q117 0 189.5 103
t72.5 337q0 213 -71.5 312t-190.5 99zM679 1268l-295 -187h-84l283 285l24 25q21 18 45 30q7 5 41 11q70 0 70 -66q0 -18 -15 -41l-16 -19l-16 -14z" />
    <glyph glyph-name="ocircumflex" unicode="&#xf4;" 
d="M509 965q186 0 316 -136t130 -360q0 -153 -57.5 -261.5t-163 -172t-230.5 -63.5q-176 0 -308 138q-60 66 -95 158q-15 44 -24 93q-4 25 -6 49.5t-2 57.5q0 216 126 356.5t314 140.5zM509 894q-107 0 -181.5 -103t-74.5 -319q0 -218 72 -323.5t184 -105.5q117 0 189.5 103
t72.5 337q0 213 -71.5 312t-190.5 99zM514 1292l-250 -211h-71l256 340h129l256 -340h-72z" />
    <glyph glyph-name="otilde" unicode="&#xf5;" 
d="M509 965q186 0 316 -136t130 -360q0 -153 -57.5 -261.5t-163 -172t-230.5 -63.5q-176 0 -308 138q-60 66 -95 158q-15 44 -24 93q-4 25 -6 49.5t-2 57.5q0 216 126 356.5t314 140.5zM509 894q-107 0 -181.5 -103t-74.5 -319q0 -218 72 -323.5t184 -105.5q117 0 189.5 103
t72.5 337q0 213 -71.5 312t-190.5 99zM844 1364l1 -6q0 -12 -9 -33l-19 -43l-23 -40l-16 -23q-21 -27 -51 -45l-31 -13l-22 -8q-26 -6 -49 -6q-45 0 -99 18q-25 6 -94 43l-28 13l-19 8l-22 6l-25 4q-50 0 -76 -29l-20 -24l-19 -39h-61q18 97 94 164q12 10 28.5 18.5
t37.5 16.5l49 8q42 0 84 -15l125 -57q25 -12 43 -18l36 -4l21 1q7 0 25 7q57 27 75 96h64z" />
    <glyph glyph-name="divide" unicode="&#xf7;" horiz-adv-x="1706" 
 />
    <glyph glyph-name="glyph216" unicode="&#xf9;" horiz-adv-x="1251" 
d="M43 844v86l356 20v-585l2 -115q0 -75 50 -119l24 -16l33 -13q38 -10 74 -10q153 0 223 137q29 65 37 112q6 47 6 151v288q-3 26 -11 39t-32 17l-57 4h-16h-28l-18 4h-37v86l387 20v-723v-31q0 -22 2.5 -33.5t18.5 -31.5q12 -12 33 -18l84 -4h43v-89l-369 -20v160
q-24 -45 -57 -78q-15 -15 -35 -31q-16 -13 -43 -31q-39 -22 -87.5 -36.5t-93.5 -14.5q-111 0 -196 52t-107 139q-5 7 -14 69l-4 105v440q0 32 -12 44t-35 19q-11 3 -24 5t-27 2h-29h-41zM424 1417l13 1q24 0 57 -21q22 -13 55 -47l282 -285h-94l-284 186l-35 23l-31 24
q-14 16 -20 45l-2 17q0 12 9 30t50 27z" />
    <glyph glyph-name="glyph217" unicode="&#xfa;" horiz-adv-x="1251" 
d="M43 844v86l356 20v-585l2 -115q0 -75 50 -119l24 -16l33 -13q38 -10 74 -10q153 0 223 137q29 65 37 112q6 47 6 151v288q-3 26 -11 39t-32 17l-57 4h-16h-28l-18 4h-37v86l387 20v-723v-31q0 -22 2.5 -33.5t18.5 -31.5q12 -12 33 -18l84 -4h43v-89l-369 -20v160
q-24 -45 -57 -78q-15 -15 -35 -31q-16 -13 -43 -31q-39 -22 -87.5 -36.5t-93.5 -14.5q-111 0 -196 52t-107 139q-5 7 -14 69l-4 105v440q0 32 -12 44t-35 19q-11 3 -24 5t-27 2h-29h-41zM850 1268l-295 -187h-84l283 285l24 25l22 16l23 14q7 5 41 11q70 0 70 -66
q0 -22 -14 -40q-10 -15 -33 -34l-15 -11z" />
    <glyph glyph-name="glyph234" unicode="&#xfd;" horiz-adv-x="1100" 
d="M217 -291l-4 -6l2 -18l10 -9l12 -1q82 0 171 128l114 213l-329 752q-30 71 -60 90q-14 9 -40 15t-66 6v71h483v-71l-37 -2h-35q-32 0 -48.5 -10.5t-16.5 -40.5l6 -23l16 -37l221 -522l168 422l21 51l12 35q12 30 12 41q0 52 -26 69q-12 8 -35 12.5t-47 4.5h-37v71h403
v-71q-59 0 -98 -29q-34 -21 -84 -137l-254 -627l-67 -147q-90 -198 -197 -287q-87 -72 -192 -72q-80 0 -132 37q-57 45 -57 123q0 47 37 84q18 15 41 25q22 8 47 8q31 0 63.5 -24t32.5 -62v-14l-2 -22q-2 -16 -8 -26zM737 1268l-295 -187h-84l283 285l25 25l22 16l23 14
q7 5 41 11q69 0 69 -66q0 -21 -14 -41l-13 -17l-22 -18z" />
    <glyph glyph-name="Abreve" unicode="&#x102;" horiz-adv-x="1479" 
d="M197 252l495 1257h80l543 -1327q24 -59 69 -80q35 -10 113 -10v-92h-629v92h84q38 0 88 12q12 0 29 15q9 9 14 31l-8 34l-121 297h-553l-23 -61q-8 -25 -18 -41l-9 -33q-2 -8 -3.5 -13.5t-7.5 -17.5q-18 -48 -18 -53q-7 -23 -7 -53q0 -72 74 -100q46 -17 135 -17v-92
h-540v92q78 0 131 39q48 40 82 121zM440 586h475l-241 602zM958 1894h56q0 -60 -20 -107t-58 -85q-68 -68 -199 -68q-121 0 -186 68q-59 68 -59 192h57q12 -87 59 -118t142 -31q46 0 77 7.5t62 27.5q51 35 69 114z" />
    <glyph glyph-name="abreve" unicode="&#x103;" horiz-adv-x="1139" 
d="M1057 103l36 -56q-72 -75 -162 -75q-66 0 -110.5 35t-85.5 132q-93 -96 -168 -131.5t-172 -35.5q-145 0 -219.5 62t-74.5 159q0 141 170 237.5t458 133.5v142q0 75 -61 129.5t-155 54.5q-87 0 -150 -36q-45 -27 -45 -53q0 -9 24 -47q29 -40 29 -71q0 -45 -29 -74
q-15 -12 -33 -21l-21 -5l-22 -2q-45 0 -83 33q-34 34 -34 88q0 95 111 179t293 84q165 0 254 -72.5t89 -176.5v-512q0 -63 21 -101q21 -32 58 -32q40 0 82 32zM729 498q-252 -33 -360 -114q-31 -25 -59 -72q-9 -22 -15 -46q-3 -17 -4 -25t-1 -27q0 -77 41 -120.5t107 -43.5
q118 0 204.5 89.5t86.5 224.5v134zM748 1366h55q-12 -132 -72 -207q-33 -42 -82 -64q-24 -9 -48.5 -14t-39.5 -5.5t-24 -0.5q-117 0 -186.5 81.5t-69.5 209.5h57q30 -180 211 -180q76 0 126.5 47.5t72.5 132.5z" />
    <glyph glyph-name="Ccaron" unicode="&#x10c;" horiz-adv-x="1274" 
 />
    <glyph glyph-name="ccaron" unicode="&#x10d;" horiz-adv-x="922" 
 />
    <glyph glyph-name="Dslash" unicode="&#x110;" horiz-adv-x="1593" 
d="M59 0v92h66l113 4q10 0 30 15q9 13 17 41q6 26 6 59v23l-2 28v434h-199v117h199v383l1 35l1 28v16q0 24 -4 40q-3 24 -19 47q-13 9 -28 14l-35 4l-142 6v93h676q133 0 231 -16t175 -52q179 -81 276 -297q20 -45 36 -94l24 -94q18 -93 18 -205q0 -211 -92 -389
q-102 -196 -285 -271q-104 -39 -182 -51l-93 -7l-124 -3h-664zM748 813v-117h-236v-520q0 -36 6 -51q6 -10 39 -25l45 -6h32q20 0 30 -2h61h23l47 1l45 1h16q9 0 25 2q16 0 37 8q82 14 126 52q24 16 47 44q10 12 25 31.5t25 34.5q53 88 80 234l10 112l4 140l-3 107
q0 18 -1.5 34t-10.5 80.5t-24.5 117.5t-38.5 93q-51 95 -168 151q-54 27 -129 39t-160 12l-41 -1l-47 -1q-45 0 -64 -8q-18 -6 -23 -14l-5 -9l-6 -20l-2 -41v-35v-444h236z" />
    <glyph glyph-name="dcroat" unicode="&#x111;" horiz-adv-x="1176" 
d="M598 1479l366 17v-1282q0 -75 28.5 -107t85.5 -32h65v-75h-320l-24 191q-57 -102 -132.5 -153.5t-172.5 -51.5q-158 0 -271.5 135.5t-113.5 352.5q0 231 144 380q113 111 260 111q85 0 158 -44t128 -137v529q0 42 -34 66.5t-100 24.5h-67v75zM540 882q-108 0 -171.5 -89
t-63.5 -300q0 -229 65 -322.5t167 -93.5q109 0 186.5 104.5t77.5 305.5q0 189 -83 299q-72 96 -178 96zM561 1199h605v-88h-605v88z" />
    <glyph glyph-name="Itilde" unicode="&#x128;" horiz-adv-x="834" 
d="M752 0h-674v92h41l80 2q17 0 30 2t23 8q38 14 43 29l8 31l2 43v1069v17q0 24 -4 32q0 19 -18 37l-45 18q-23 6 -60 6l-37 -2h-37l-24 2v93h676v-93h-80l-86 -6q-37 -9 -58 -47l-4 -37v-30v-1065q0 -17 1 -32q0 -15 3 -22l7 -16l12 -12q13 -8 49 -21l62 -6l57 2l33 -2v-92
zM707 1851h59l-2 -18l-21 -64l-38 -63q-13 -16 -25.5 -27t-26.5 -18l-53 -21l-49 -6q-45 0 -98 19q-28 6 -95 43l-47 20q-7 3 -21.5 5.5t-25.5 4.5q-49 0 -76 -28l-20 -25l-18 -39h-62q18 97 94 164q28 23 66 35l57 8h33l33 -10q11 -1 23 -5.5t24 -10.5l55 -27l66 -31l55 -8
l37 6q54 25 76 96z" />
    <glyph glyph-name="itilde" unicode="&#x129;" horiz-adv-x="645" 
d="M592 0h-539v72h56l61 6q31 0 45 10q9 21 12 45l4 60v36v471v29l-2 41l-1 20q0 8 -6.5 22.5t-31.5 21.5l-30 6l-123 4v86l383 20v-786v-31q0 -29 9 -44q10 -13 50 -13l53 -2h30q23 0 30 -2v-72zM586 1364h59l-2 -18l-8 -28l-6 -18l-7 -18q-27 -48 -39 -63q-21 -30 -51 -45
q-18 -11 -50 -20q-15 -3 -27 -5t-25 -2q-44 0 -98 18q-24 6 -95 43q-19 13 -47 21l-21 6l-26 4q-50 0 -76 -29q-12 -9 -18 -24l-21 -39h-61q18 97 94 164q12 10 28.5 18.5t37.5 16.5l57 8h33l33 -11l21 -6l26 -10l55 -27l66 -30l26 -5l29 -3q14 0 37 6q55 24 76 96z" />
    <glyph glyph-name="Utilde" unicode="&#x168;" horiz-adv-x="1669" 
d="M35 1386v93h684v-93l-150 -10q-49 0 -69 -14q-9 -6 -15 -25v-821q0 -151 24.5 -219.5t84.5 -122.5q59 -47 133 -76q80 -22 172 -22q110 0 196.5 45t145.5 137l21 41l22 76q7 33 10.5 57t3.5 47v654q0 145 -46 199t-193 54v93h577v-93q-154 0 -204 -92q-29 -56 -29 -233
v-449q0 -38 -3 -98t-3 -82q-6 -72 -23 -121q-27 -92 -94.5 -173.5t-198.5 -131.5q-106 -37 -241 -37h-52h-13q-21 0 -40 4q-15 0 -37 3t-61 12q-40 7 -69 15.5t-60 25.5q-66 28 -117 77q-33 34 -58.5 68t-41.5 66q-29 69 -29 159v887v25l-6 35q0 7 -25 22q-19 11 -53 14
l-78 4h-65zM1165 1851h60l-2 -18l-21 -64l-39 -63q-24 -30 -51 -45l-53 -21l-49 -6q-45 0 -99 19q-28 6 -94 43l-47 20q-6 3 -21 5.5t-26 4.5q-49 0 -76 -28l-20 -25l-19 -39h-61q18 97 94 164q28 23 66 35l57 8h33l32 -10q11 -2 23 -5.5t25 -10.5l55 -27l65 -31l56 -8l37 6
q55 26 75 96z" />
    <glyph glyph-name="utilde" unicode="&#x169;" horiz-adv-x="1251" 
d="M43 844v86l356 20v-585l2 -115q0 -75 50 -119l24 -16l33 -13q38 -10 74 -10q153 0 223 137q29 65 37 112q6 47 6 151v288q-3 26 -11 39t-32 17l-57 4h-16h-28l-18 4h-37v86l387 20v-723v-31q0 -22 2.5 -33.5t18.5 -31.5q12 -12 33 -18l84 -4h43v-89l-369 -20v160
q-24 -45 -57 -78q-15 -15 -35 -31q-16 -13 -43 -31q-39 -22 -87.5 -36.5t-93.5 -14.5q-111 0 -196 52t-107 139q-5 7 -14 69l-4 105v440q0 32 -12 44t-35 19q-11 3 -24 5t-27 2h-29h-41zM850 1350h59l-2 -19l-20 -63l-22 -38q-9 -18 -17 -26l-12 -15l-14 -12l-25 -18
q-19 -10 -52 -19l-26 -5l-25 -2q-42 0 -98 18q-29 8 -94 43l-27 13l-20 7l-21 6l-26 5q-51 0 -76 -29q-12 -9 -21 -25l-18 -38h-62q20 101 95 163l31 21l19 8l15 6l58 8h32l33 -10q8 0 19 -4l28 -12l55 -27q14 -6 29.5 -12.5t36.5 -18.5l20 -4l35 -4q16 0 37 6q57 27 76 97z
" />
    <glyph glyph-name="Ohorn" unicode="&#x1a0;" horiz-adv-x="1593" 
d="M1239 739q0 131 -15 233t-48 183q-105 262 -381 262q-247 0 -359 -227q-38 -84 -60 -196.5t-22 -254.5q0 -257 64 -415q104 -263 381 -263q245 0 358 228q38 83 60 195.5t22 254.5zM1241 1552q-14 11 -29 35q-6 18 -6 51q0 31 29 60q29 26 63 26q59 0 97 -45
q14 -19 23 -48t9 -64q0 -45 -38 -92l-38 -38l-108 -98q122 -107 190 -265t68 -335q0 -270 -172 -499q-202 -271 -530 -271q-306 0 -512 236q-195 225 -195 534q0 267 172 500q203 270 531 270q55 0 108.5 -8.5t104.5 -25.5q101 -31 188 -97l74 64l45 51q22 27 22 42
q0 4 -2 7l-32 -10q-17 0 -25 4l-17 3z" />
    <glyph glyph-name="ohorn" unicode="&#x1a1;" 
d="M509 894q-107 0 -181.5 -103t-74.5 -319q0 -218 72 -323.5t184 -105.5q117 0 189.5 103t72.5 337q0 213 -71.5 312t-190.5 99zM782 870l40 34q39 36 64 64q15 17 15 28l-1 5l-8 2l-10 -2h-33l-19 2l-24 8q-43 31 -43 78q0 12 6.5 28.5t22.5 30.5q29 27 63 27q59 0 92 -45
q15 -21 24 -48.5t9 -58.5q0 -62 -76 -135l-74 -63q125 -134 125 -356q0 -153 -57.5 -261.5t-163 -172t-230.5 -63.5q-176 0 -308 138q-60 66 -95 158q-15 44 -24 93q-4 25 -6 49.5t-2 57.5q0 216 126 356.5t314 140.5q160 0 273 -95z" />
    <glyph glyph-name="Uhorn" unicode="&#x1af;" horiz-adv-x="1669" 
d="M1636 1386q-157 0 -204 -92q-29 -56 -29 -233v-449q0 -115 -6.5 -183.5t-22.5 -117.5q-27 -92 -94 -172q-70 -85 -199 -133q-108 -37 -241 -37h-36h-12q-42 0 -57 4l-36 3l-60 12q-37 6 -66 15t-62 24t-61.5 33.5t-58.5 45.5q-32 32 -59 68q-10 14 -22 33q-8 13 -19 33
q-29 70 -29 159v887v25q0 17 -6 35q-1 9 -25 22q-8 6 -23 10l-30 4l-78 4h-65v93h684v-93h-37t-52 -4l-61 -6h-20t-24 -3.5t-26 -11t-14 -24.5v-821q0 -149 24 -218t83.5 -121t134.5 -79q80 -22 172 -22q57 0 102.5 10.5t94.5 36.5q88 45 145 135q21 35 41 104l12 62l4 55
v654q0 144 -45.5 198.5t-193.5 54.5v93h577q31 12 31 59q0 12 -6 18l-8 3l-11 -3h-32q-17 0 -43 11q-43 31 -43 78q0 30 28 59q13 11 29.5 19t34.5 8q60 0 92 -45q15 -21 24 -48.5t9 -58.5q0 -16 -1 -31.5t-4.5 -35t-17.5 -42.5q-20 -34 -82 -84z" />
    <glyph glyph-name="uhorn" unicode="&#x1b0;" horiz-adv-x="1251" 
d="M1025 770v-585q0 -47 30 -82q31 -28 84 -28h59v-67l-315 -8l-20 185q-80 -96 -168 -147.5t-173 -51.5q-122 0 -211 84.5t-89 285.5v407q0 54 -43 82l-46 16q-30 6 -77 6v70l332 17v-621q0 -109 57.5 -173.5t148.5 -64.5q107 0 188 90t81 227v351q0 48 -35 74
q-16 12 -50 22l-35 6l-47 2v70l329 17v-86l54 45q18 15 34 37l24 33q12 18 12 30l-2 7l-8 2l-11 -2h-32l-19 2l-24 8q-22 15 -33 34q-10 22 -10 44q0 30 28 59q30 27 64 27q60 0 92 -45q15 -23 24 -49t9 -58q0 -83 -94 -178l-58 -51z" />
    <glyph glyph-name="uni1EA0" unicode="&#x1ea0;" horiz-adv-x="1479" 
d="M197 252l495 1257h80l543 -1327q24 -60 69 -80q9 -3 14 -4t23 -4l76 -2v-92h-629v92h84q37 0 88 12q7 0 12 2.5t15 10.5q10 10 16 33l-8 34l-121 297h-553l-41 -102l-20 -64l-18 -53q-7 -20 -7 -53q0 -70 74 -100q45 -17 135 -17v-92h-540v92q81 0 128.5 38t84.5 122z
M440 586h475l-241 602zM590 -281q0 48 37 91q36 36 92 36q45 0 86 -37.5t41 -89.5q0 -47 -39 -86q-19 -20 -40.5 -30.5t-45.5 -10.5q-50 0 -90.5 39t-40.5 88z" />
    <glyph glyph-name="uni1EA1" unicode="&#x1ea1;" horiz-adv-x="1139" 
d="M1057 103l36 -56q-72 -75 -162 -75q-66 0 -110.5 35t-85.5 132q-93 -96 -168 -131.5t-172 -35.5q-145 0 -219.5 62t-74.5 159q0 141 170 237.5t458 133.5v142q0 75 -61 129.5t-155 54.5q-87 0 -150 -36q-45 -27 -45 -53q0 -9 24 -47q29 -40 29 -71q0 -45 -29 -74
q-15 -12 -33 -21l-21 -5l-22 -2q-45 0 -83 33q-34 34 -34 88q0 95 111 179t293 84q165 0 254 -72.5t89 -176.5v-512q0 -63 21 -101q21 -32 58 -32q40 0 82 32zM729 498q-252 -33 -360 -114q-31 -25 -59 -72q-9 -22 -15 -46q-3 -17 -4 -25t-1 -27q0 -77 41 -120.5t107 -43.5
q118 0 204.5 89.5t86.5 224.5v134zM661 -289q0 -43 -37 -84q-19 -17 -41.5 -27t-44.5 -10q-43 0 -82 39q-17 19 -27 41t-10 45q0 45 36.5 81t84.5 36q46 0 83.5 -36.5t37.5 -84.5z" />
    <glyph glyph-name="uni1EA2" unicode="&#x1ea2;" horiz-adv-x="1479" 
d="M197 252l495 1257h80l543 -1327q24 -60 69 -80q9 -3 14 -4t23 -4l76 -2v-92h-629v92h84q37 0 88 12q7 0 12 2.5t15 10.5q10 10 16 33l-8 34l-121 297h-553l-41 -102l-20 -64l-18 -53q-7 -20 -7 -53q0 -70 74 -100q45 -17 135 -17v-92h-540v92q81 0 128.5 38t84.5 122z
M440 586h475l-241 602zM775 1638l-51 -2q0 18 1 35q0 17 3 23l51 75l37 52q13 18 27 57l8 72q0 70 -27 104q-24 35 -92 35q-36 0 -74 -18q-19 -12 -22 -33q0 -15 4 -19l8 -10l33 -22q18 -17 18 -33q0 -62 -69 -62q-29 0 -56 25q-14 19 -20 57q0 57 55 109q39 35 111 53l28 4
l31 2q78 0 136.5 -57t58.5 -141q0 -58 -41 -115q-5 -8 -14.5 -18.5t-20.5 -20.5l-57 -51l-56 -43z" />
    <glyph glyph-name="uni1EA3" unicode="&#x1ea3;" horiz-adv-x="1139" 
d="M1057 103l36 -56q-72 -75 -162 -75q-66 0 -110.5 35t-85.5 132q-93 -96 -168 -131.5t-172 -35.5q-145 0 -219.5 62t-74.5 159q0 141 170 237.5t458 133.5v142q0 75 -61 129.5t-155 54.5q-87 0 -150 -36q-45 -27 -45 -53q0 -9 24 -47q29 -40 29 -71q0 -45 -29 -74
q-15 -12 -33 -21l-21 -5l-22 -2q-45 0 -83 33q-34 34 -34 88q0 95 111 179t293 84q165 0 254 -72.5t89 -176.5v-512q0 -63 21 -101q21 -32 58 -32q40 0 82 32zM729 498q-252 -33 -360 -114q-31 -25 -59 -72q-9 -22 -15 -46q-3 -17 -4 -25t-1 -27q0 -77 41 -120.5t107 -43.5
q118 0 204.5 89.5t86.5 224.5v134zM568 1163h-45v35v20q0 10 5 18l42 61l37 51q43 58 43 127q0 70 -30.5 105.5t-96.5 35.5q-33 0 -74 -18q-23 -14 -23 -32q0 -10 5 -20l8 -10q37 -25 37 -59q0 -24 -19 -43t-42 -19q-27 0 -52 25q-18 24 -18 61q0 60 55 109l23 19l21 12
l33 10l32 8l49 4q44 0 80 -12.5t67 -40.5q60 -54 60 -139q0 -58 -41 -115q-24 -32 -92 -90l-52 -37q-6 -6 -12 -66z" />
    <glyph glyph-name="uni1EA4" unicode="&#x1ea4;" horiz-adv-x="1479" 
d="M197 252l495 1257h80l543 -1327q24 -60 69 -80q9 -3 14 -4t23 -4l76 -2v-92h-629v92h84q37 0 88 12q7 0 12 2.5t15 10.5q10 10 16 33l-8 34l-121 297h-553l-41 -102l-20 -64l-18 -53q-7 -20 -7 -53q0 -70 74 -100q45 -17 135 -17v-92h-540v92q81 0 128.5 38t84.5 122z
M440 586h475l-241 602zM741 1821l-249 -211h-72l256 340h129l256 -340h-72zM1337 2054l-288 -186h-91l283 284l25 25l37 27l38 14l41 8q25 0 33 -10l15 -18l4 -23q0 -26 -29 -68l-31 -28z" />
    <glyph glyph-name="uni1EA5" unicode="&#x1ea5;" horiz-adv-x="1139" 
d="M1057 103l36 -56q-72 -75 -162 -75q-66 0 -110.5 35t-85.5 132q-93 -96 -168 -131.5t-172 -35.5q-145 0 -219.5 62t-74.5 159q0 141 170 237.5t458 133.5v142q0 75 -61 129.5t-155 54.5q-87 0 -150 -36q-45 -27 -45 -53q0 -9 24 -47q29 -40 29 -71q0 -45 -29 -74
q-15 -12 -33 -21l-21 -5l-22 -2q-45 0 -83 33q-34 34 -34 88q0 95 111 179t293 84q165 0 254 -72.5t89 -176.5v-512q0 -63 21 -101q21 -32 58 -32q40 0 82 32zM729 498q-252 -33 -360 -114q-31 -25 -59 -72q-9 -22 -15 -46q-3 -17 -4 -25t-1 -27q0 -77 41 -120.5t107 -43.5
q118 0 204.5 89.5t86.5 224.5v134zM475 1386h82l239 -345h-64l-215 213l-216 -213h-64zM1163 1466l-295 -187h-84l283 285l24 25q21 18 45 30q7 5 41 11q70 0 70 -66q0 -18 -15 -41l-16 -19l-16 -14z" />
    <glyph glyph-name="uni1EA6" unicode="&#x1ea6;" horiz-adv-x="1479" 
d="M197 252l495 1257h80l543 -1327q24 -60 69 -80q9 -3 14 -4t23 -4l76 -2v-92h-629v92h84q37 0 88 12q7 0 12 2.5t15 10.5q10 10 16 33l-8 34l-121 297h-553l-41 -102l-20 -64l-18 -53q-7 -20 -7 -53q0 -70 74 -100q45 -17 135 -17v-92h-540v92q81 0 128.5 38t84.5 122z
M440 586h475l-241 602zM741 1821l-249 -211h-72l256 340h129l256 -340h-72zM913 2030l-36 22l-33 33q-11 16 -17 53q0 30 19 55q5 6 28 9l37 -7l35 -14q10 -3 17.5 -8t13.5 -14l33 -31l282 -285h-84z" />
    <glyph glyph-name="uni1EA7" unicode="&#x1ea7;" horiz-adv-x="1139" 
d="M1057 103l36 -56q-72 -75 -162 -75q-66 0 -110.5 35t-85.5 132q-93 -96 -168 -131.5t-172 -35.5q-145 0 -219.5 62t-74.5 159q0 141 170 237.5t458 133.5v142q0 75 -61 129.5t-155 54.5q-87 0 -150 -36q-45 -27 -45 -53q0 -9 24 -47q29 -40 29 -71q0 -45 -29 -74
q-15 -12 -33 -21l-21 -5l-22 -2q-45 0 -83 33q-34 34 -34 88q0 95 111 179t293 84q165 0 254 -72.5t89 -176.5v-512q0 -63 21 -101q21 -32 58 -32q40 0 82 32zM729 498q-252 -33 -360 -114q-31 -25 -59 -72q-9 -22 -15 -46q-3 -17 -4 -25t-1 -27q0 -77 41 -120.5t107 -43.5
q118 0 204.5 89.5t86.5 224.5v134zM475 1386h82l239 -345h-64l-215 213l-216 -213h-64zM706 1674l283 -285h-84l-295 187q-15 8 -28.5 17.5t-22.5 19.5q-31 28 -31 57q0 16 4 24q3 14 11 23l20 16q14 7 41 7q26 0 55 -23l18 -16z" />
    <glyph glyph-name="uni1EA8" unicode="&#x1ea8;" horiz-adv-x="1479" 
d="M197 252l495 1257h80l543 -1327q24 -60 69 -80q9 -3 14 -4t23 -4l76 -2v-92h-629v92h84q37 0 88 12q7 0 12 2.5t15 10.5q10 10 16 33l-8 34l-121 297h-553l-41 -102l-20 -64l-18 -53q-7 -20 -7 -53q0 -70 74 -100q45 -17 135 -17v-92h-540v92q81 0 128.5 38t84.5 122z
M440 586h475l-241 602zM741 1821l-249 -211h-72l256 340h129l256 -340h-72zM1051 1847l-52 -2v32t5 26l51 75l37 52q14 20 26 57l8 72q0 68 -26 103.5t-92 35.5q-39 0 -74 -19q-20 -11 -23 -32q0 -15 4 -19l9 -10l32 -23q19 -15 19 -32q0 -62 -70 -62q-31 0 -55 25
q-13 18 -21 57q0 56 56 109q37 34 110 53l29 4l31 2q78 0 136 -56.5t58 -142.5q0 -30 -9.5 -57t-31.5 -57q-12 -20 -34 -39q-8 -8 -16 -15q-17 -15 -42 -36l-55 -43z" />
    <glyph glyph-name="uni1EA9" unicode="&#x1ea9;" horiz-adv-x="1139" 
d="M1057 103l36 -56q-72 -75 -162 -75q-66 0 -110.5 35t-85.5 132q-93 -96 -168 -131.5t-172 -35.5q-145 0 -219.5 62t-74.5 159q0 141 170 237.5t458 133.5v142q0 75 -61 129.5t-155 54.5q-87 0 -150 -36q-45 -27 -45 -53q0 -9 24 -47q29 -40 29 -71q0 -45 -29 -74
q-15 -12 -33 -21l-21 -5l-22 -2q-45 0 -83 33q-34 34 -34 88q0 95 111 179t293 84q165 0 254 -72.5t89 -176.5v-512q0 -63 21 -101q21 -32 58 -32q40 0 82 32zM729 498q-252 -33 -360 -114q-31 -25 -59 -72q-9 -22 -15 -46q-3 -17 -4 -25t-1 -27q0 -77 41 -120.5t107 -43.5
q118 0 204.5 89.5t86.5 224.5v134zM475 1386h82l239 -345h-64l-215 213l-216 -213h-64zM865 1339h-45v35v20q0 10 5 18l42 61l37 51q43 58 43 127q0 70 -30.5 105.5t-96.5 35.5q-33 0 -74 -18q-23 -14 -23 -32q0 -10 5 -20l8 -10q37 -25 37 -59q0 -24 -19 -43t-42 -19
q-27 0 -52 25q-18 24 -18 61q0 60 55 109l23 19l21 12l33 10l32 8l49 4q44 0 80 -12.5t67 -40.5q60 -54 60 -139q0 -58 -41 -115q-24 -32 -92 -90l-52 -37q-6 -6 -12 -66z" />
    <glyph glyph-name="uni1EAA" unicode="&#x1eaa;" horiz-adv-x="1479" 
d="M197 252l495 1257h80l543 -1327q24 -60 69 -80q9 -3 14 -4t23 -4l76 -2v-92h-629v92h84q37 0 88 12q7 0 12 2.5t15 10.5q10 10 16 33l-8 34l-121 297h-553l-41 -102l-20 -64l-18 -53q-7 -20 -7 -53q0 -70 74 -100q45 -17 135 -17v-92h-540v92q81 0 128.5 38t84.5 122z
M440 586h475l-241 602zM741 1821l-249 -211h-72l256 340h129l256 -340h-72zM1151 2253h59l-2 -19l-20 -63l-39 -64q-22 -27 -51 -45l-54 -20l-49 -6q-42 0 -98 18q-11 2 -37 14.5t-57 28.5l-47 21q-8 3 -23.5 6t-23.5 4q-51 0 -76 -29l-21 -24l-18 -39h-62q19 97 95 164
q14 11 30 19.5t35 14.5l58 9h32l33 -11q10 -1 20.5 -4t26.5 -12l56 -27l65 -30l55 -9l37 7q55 24 76 96z" />
    <glyph glyph-name="uni1EAB" unicode="&#x1eab;" horiz-adv-x="1139" 
d="M1057 103l36 -56q-72 -75 -162 -75q-66 0 -110.5 35t-85.5 132q-93 -96 -168 -131.5t-172 -35.5q-145 0 -219.5 62t-74.5 159q0 141 170 237.5t458 133.5v142q0 75 -61 129.5t-155 54.5q-87 0 -150 -36q-45 -27 -45 -53q0 -9 24 -47q29 -40 29 -71q0 -45 -29 -74
q-15 -12 -33 -21l-21 -5l-22 -2q-45 0 -83 33q-34 34 -34 88q0 95 111 179t293 84q165 0 254 -72.5t89 -176.5v-512q0 -63 21 -101q21 -32 58 -32q40 0 82 32zM729 498q-252 -33 -360 -114q-31 -25 -59 -72q-9 -22 -15 -46q-3 -17 -4 -25t-1 -27q0 -77 41 -120.5t107 -43.5
q118 0 204.5 89.5t86.5 224.5v134zM475 1386h82l239 -345h-64l-215 213l-216 -213h-64zM885 1722l1 -6q0 -12 -9 -33l-19 -43q-27 -48 -39 -63q-21 -27 -51 -45l-25 -11l-28 -10q-26 -6 -49 -6q-49 0 -99 19q-31 9 -94 43l-27 13l-16 6l-26 7l-25 4q-48 0 -76 -28l-9 -8
l-11 -17l-19 -39h-61q18 97 94 164l31 21l19 8l15 6l50 8q48 0 84 -14l125 -58q25 -12 43 -18l36 -4l21 1q7 0 24 7q56 27 76 96h64z" />
    <glyph glyph-name="uni1EAC" unicode="&#x1eac;" horiz-adv-x="1479" 
d="M197 252l495 1257h80l543 -1327q24 -60 69 -80q9 -3 14 -4t23 -4l76 -2v-92h-629v92h84q37 0 88 12q7 0 12 2.5t15 10.5q10 10 16 33l-8 34l-121 297h-553l-41 -102l-20 -64l-18 -53q-7 -20 -7 -53q0 -70 74 -100q45 -17 135 -17v-92h-540v92q81 0 128.5 38t84.5 122z
M440 586h475l-241 602zM741 1821l-249 -211h-72l256 340h129l256 -340h-72zM590 -281q0 48 37 91q36 36 92 36q45 0 86 -37.5t41 -89.5q0 -47 -39 -86q-19 -20 -40.5 -30.5t-45.5 -10.5q-50 0 -90.5 39t-40.5 88z" />
    <glyph glyph-name="uni1EAD" unicode="&#x1ead;" horiz-adv-x="1139" 
d="M1057 103l36 -56q-72 -75 -162 -75q-66 0 -110.5 35t-85.5 132q-93 -96 -168 -131.5t-172 -35.5q-145 0 -219.5 62t-74.5 159q0 141 170 237.5t458 133.5v142q0 75 -61 129.5t-155 54.5q-87 0 -150 -36q-45 -27 -45 -53q0 -9 24 -47q29 -40 29 -71q0 -45 -29 -74
q-15 -12 -33 -21l-21 -5l-22 -2q-45 0 -83 33q-34 34 -34 88q0 95 111 179t293 84q165 0 254 -72.5t89 -176.5v-512q0 -63 21 -101q21 -32 58 -32q40 0 82 32zM729 498q-252 -33 -360 -114q-31 -25 -59 -72q-9 -22 -15 -46q-3 -17 -4 -25t-1 -27q0 -77 41 -120.5t107 -43.5
q118 0 204.5 89.5t86.5 224.5v134zM475 1386h82l239 -345h-64l-215 213l-216 -213h-64zM683 -289q0 -43 -37 -84q-19 -17 -41.5 -27t-44.5 -10q-43 0 -82 39q-17 19 -27 41t-10 45q0 45 36.5 81t84.5 36q46 0 83.5 -36.5t37.5 -84.5z" />
    <glyph glyph-name="uni1EAE" unicode="&#x1eae;" horiz-adv-x="1479" 
d="M197 252l495 1257h80l543 -1327q24 -60 69 -80q9 -3 14 -4t23 -4l76 -2v-92h-629v92h84q37 0 88 12q7 0 12 2.5t15 10.5q10 10 16 33l-8 34l-121 297h-553l-41 -102l-20 -64l-18 -53q-7 -20 -7 -53q0 -70 74 -100q45 -17 135 -17v-92h-540v92q81 0 128.5 38t84.5 122z
M440 586h475l-241 602zM948 1925h56q-7 -66 -24.5 -117.5t-47.5 -89.5q-69 -84 -195 -84q-115 0 -188 82q-68 85 -68 209h58q30 -180 211 -180q72 0 127 49q50 49 71 131zM1079 2140l-295 -186h-84l283 284l25 25l45 31q6 4 41 10q69 0 69 -66q0 -18 -14 -40
q-10 -17 -33 -33z" />
    <glyph glyph-name="uni1EAF" unicode="&#x1eaf;" horiz-adv-x="1139" 
d="M1057 103l36 -56q-72 -75 -162 -75q-66 0 -110.5 35t-85.5 132q-93 -96 -168 -131.5t-172 -35.5q-145 0 -219.5 62t-74.5 159q0 141 170 237.5t458 133.5v142q0 75 -61 129.5t-155 54.5q-87 0 -150 -36q-45 -27 -45 -53q0 -9 24 -47q29 -40 29 -71q0 -45 -29 -74
q-15 -12 -33 -21l-21 -5l-22 -2q-45 0 -83 33q-34 34 -34 88q0 95 111 179t293 84q165 0 254 -72.5t89 -176.5v-512q0 -63 21 -101q21 -32 58 -32q40 0 82 32zM729 498q-252 -33 -360 -114q-31 -25 -59 -72q-9 -22 -15 -46q-3 -17 -4 -25t-1 -27q0 -77 41 -120.5t107 -43.5
q118 0 204.5 89.5t86.5 224.5v134zM748 1366h55q-12 -132 -72 -207q-33 -42 -82 -64q-24 -9 -48.5 -14t-39.5 -5.5t-24 -0.5q-117 0 -186.5 81.5t-69.5 209.5h57q30 -180 211 -180q76 0 126.5 47.5t72.5 132.5zM800 1653l-295 -187h-84l283 285l24 25q21 18 45 30q7 5 41 11
q70 0 70 -66q0 -18 -15 -41l-16 -19l-16 -14z" />
    <glyph glyph-name="uni1EB0" unicode="&#x1eb0;" horiz-adv-x="1479" 
d="M197 252l495 1257h80l543 -1327q24 -60 69 -80q9 -3 14 -4t23 -4l76 -2v-92h-629v92h84q37 0 88 12q7 0 12 2.5t15 10.5q10 10 16 33l-8 34l-121 297h-553l-41 -102l-20 -64l-18 -53q-7 -20 -7 -53q0 -70 74 -100q45 -17 135 -17v-92h-540v92q81 0 128.5 38t84.5 122z
M440 586h475l-241 602zM948 1925h56q-7 -66 -24.5 -117.5t-47.5 -89.5q-69 -84 -195 -84q-115 0 -188 82q-68 85 -68 209h58q30 -180 211 -180q72 0 127 49q50 49 71 131zM692 2251l-37 22l-32 33q-5 7 -9.5 21t-7.5 32q0 31 19 56q5 5 28 8l37 -6l35 -15q10 -3 17.5 -8
t13.5 -14l32 -31l283 -285h-84z" />
    <glyph glyph-name="uni1EB1" unicode="&#x1eb1;" horiz-adv-x="1139" 
d="M1057 103l36 -56q-72 -75 -162 -75q-66 0 -110.5 35t-85.5 132q-93 -96 -168 -131.5t-172 -35.5q-145 0 -219.5 62t-74.5 159q0 141 170 237.5t458 133.5v142q0 75 -61 129.5t-155 54.5q-87 0 -150 -36q-45 -27 -45 -53q0 -9 24 -47q29 -40 29 -71q0 -45 -29 -74
q-15 -12 -33 -21l-21 -5l-22 -2q-45 0 -83 33q-34 34 -34 88q0 95 111 179t293 84q165 0 254 -72.5t89 -176.5v-512q0 -63 21 -101q21 -32 58 -32q40 0 82 32zM729 498q-252 -33 -360 -114q-31 -25 -59 -72q-9 -22 -15 -46q-3 -17 -4 -25t-1 -27q0 -77 41 -120.5t107 -43.5
q118 0 204.5 89.5t86.5 224.5v134zM748 1366h55q-12 -132 -72 -207q-33 -42 -82 -64q-24 -9 -48.5 -14t-39.5 -5.5t-24 -0.5q-117 0 -186.5 81.5t-69.5 209.5h57q30 -180 211 -180q76 0 126.5 47.5t72.5 132.5zM420 1729l283 -285l-98 8l-281 179q-15 8 -28.5 17.5
t-22.5 19.5q-31 28 -31 57q0 16 4 24q3 14 11 23l20 16q14 7 41 7q26 0 55 -23l18 -16z" />
    <glyph glyph-name="uni1EB2" unicode="&#x1eb2;" horiz-adv-x="1479" 
d="M197 252l495 1257h80l543 -1327q24 -60 69 -80q9 -3 14 -4t23 -4l76 -2v-92h-629v92h84q37 0 88 12q7 0 12 2.5t15 10.5q10 10 16 33l-8 34l-121 297h-553l-41 -102l-20 -64l-18 -53q-7 -20 -7 -53q0 -70 74 -100q45 -17 135 -17v-92h-540v92q81 0 128.5 38t84.5 122z
M440 586h475l-241 602zM1010 1925h55q0 -63 -25.5 -111.5t-76.5 -95.5q-95 -84 -226 -84q-121 0 -213 87t-92 204h57q14 -87 89 -135q79 -45 172 -45q86 0 163 51q38 24 62 56.5t35 72.5zM780 1917h-45v35q0 11 1 21q0 10 3 16l43 61l37 51q43 58 43 127q0 68 -31 105
t-96 37q-35 0 -73 -19q-20 -11 -23 -33q0 -14 4 -18l8 -10q37 -25 37 -60q0 -23 -18 -43q-20 -18 -43 -18q-26 0 -52 24q-18 26 -18 62q0 57 55 108q19 19 47 33l62 17l49 4q88 0 148 -54q30 -27 44.5 -60.5t14.5 -78.5q0 -31 -9 -58t-32 -57q-7 -11 -9 -13q-10 -11 -26 -25
q-8 -8 -23 -22q-21 -19 -34 -30l-51 -37q-7 -6 -13 -65z" />
    <glyph glyph-name="uni1EB3" unicode="&#x1eb3;" horiz-adv-x="1139" 
d="M1057 103l36 -56q-72 -75 -162 -75q-66 0 -110.5 35t-85.5 132q-93 -96 -168 -131.5t-172 -35.5q-145 0 -219.5 62t-74.5 159q0 141 170 237.5t458 133.5v142q0 75 -61 129.5t-155 54.5q-87 0 -150 -36q-45 -27 -45 -53q0 -9 24 -47q29 -40 29 -71q0 -45 -29 -74
q-15 -12 -33 -21l-21 -5l-22 -2q-45 0 -83 33q-34 34 -34 88q0 95 111 179t293 84q165 0 254 -72.5t89 -176.5v-512q0 -63 21 -101q21 -32 58 -32q40 0 82 32zM729 498q-252 -33 -360 -114q-31 -25 -59 -72q-9 -22 -15 -46q-3 -17 -4 -25t-1 -27q0 -77 41 -120.5t107 -43.5
q118 0 204.5 89.5t86.5 224.5v134zM748 1366h55q-12 -132 -72 -207q-33 -42 -82 -64q-24 -9 -48.5 -14t-39.5 -5.5t-24 -0.5q-117 0 -186.5 81.5t-69.5 209.5h57q30 -180 211 -180q76 0 126.5 47.5t72.5 132.5zM579 1405h-45v35v20q0 10 5 18l42 61l37 51q43 58 43 127
q0 70 -30.5 105.5t-96.5 35.5q-33 0 -74 -18q-23 -14 -23 -32q0 -10 5 -20l8 -10q37 -25 37 -59q0 -24 -19 -43t-42 -19q-27 0 -52 25q-18 24 -18 61q0 60 55 109l23 19l21 12l33 10l32 8l49 4q44 0 80 -12.5t67 -40.5q60 -54 60 -139q0 -58 -41 -115q-24 -32 -92 -90
l-52 -37q-6 -6 -12 -66z" />
    <glyph glyph-name="uni1EB4" unicode="&#x1eb4;" horiz-adv-x="1479" 
d="M197 252l495 1257h80l543 -1327q24 -60 69 -80q9 -3 14 -4t23 -4l76 -2v-92h-629v92h84q37 0 88 12q7 0 12 2.5t15 10.5q10 10 16 33l-8 34l-121 297h-553l-41 -102l-20 -64l-18 -53q-7 -20 -7 -53q0 -70 74 -100q45 -17 135 -17v-92h-540v92q81 0 128.5 38t84.5 122z
M440 586h475l-241 602zM1034 1913h56q0 -58 -29 -109q-12 -22 -34 -46.5t-50 -45.5q-104 -78 -240 -78q-125 0 -233.5 87.5t-108.5 203.5h58q12 -83 108 -135q18 -9 41 -17.5t47 -15.5q50 -12 101 -12q45 0 89.5 11.5t88.5 35.5q86 47 106 121zM1247 2308h60l-2 -18l-21 -64
l-39 -63q-22 -29 -51 -45l-53 -21l-49 -6q-43 0 -99 18q-28 8 -94 43l-47 21q-6 3 -21 5.5t-26 4.5q-50 0 -76 -29l-20 -24l-19 -39h-61q18 97 94 164q13 11 29 19.5t36 15.5l58 8h33l32 -10q22 -3 47 -17l56 -26l65 -31l56 -8l36 6q55 24 76 96z" />
    <glyph glyph-name="uni1EB5" unicode="&#x1eb5;" horiz-adv-x="1139" 
d="M1057 103l36 -56q-72 -75 -162 -75q-66 0 -110.5 35t-85.5 132q-93 -96 -168 -131.5t-172 -35.5q-145 0 -219.5 62t-74.5 159q0 141 170 237.5t458 133.5v142q0 75 -61 129.5t-155 54.5q-87 0 -150 -36q-45 -27 -45 -53q0 -9 24 -47q29 -40 29 -71q0 -45 -29 -74
q-15 -12 -33 -21l-21 -5l-22 -2q-45 0 -83 33q-34 34 -34 88q0 95 111 179t293 84q165 0 254 -72.5t89 -176.5v-512q0 -63 21 -101q21 -32 58 -32q40 0 82 32zM729 498q-252 -33 -360 -114q-31 -25 -59 -72q-9 -22 -15 -46q-3 -17 -4 -25t-1 -27q0 -77 41 -120.5t107 -43.5
q118 0 204.5 89.5t86.5 224.5v134zM748 1366h55q-12 -132 -72 -207q-33 -42 -82 -64q-24 -9 -48.5 -14t-39.5 -5.5t-24 -0.5q-117 0 -186.5 81.5t-69.5 209.5h57q30 -180 211 -180q76 0 126.5 47.5t72.5 132.5zM885 1722l1 -6q0 -12 -9 -33l-19 -43q-27 -48 -39 -63
q-21 -27 -51 -45l-25 -11l-28 -10q-26 -6 -49 -6q-49 0 -99 19q-31 9 -94 43l-27 13l-16 6l-26 7l-25 4q-48 0 -76 -28l-9 -8l-11 -17l-19 -39h-61q18 97 94 164l31 21l19 8l15 6l50 8q48 0 84 -14l125 -58q25 -12 43 -18l36 -4l21 1q7 0 24 7q56 27 76 96h64z" />
    <glyph glyph-name="uni1EB6" unicode="&#x1eb6;" horiz-adv-x="1479" 
d="M197 252l495 1257h80l543 -1327q24 -60 69 -80q9 -3 14 -4t23 -4l76 -2v-92h-629v92h84q37 0 88 12q7 0 12 2.5t15 10.5q10 10 16 33l-8 34l-121 297h-553l-41 -102l-20 -64l-18 -53q-7 -20 -7 -53q0 -70 74 -100q45 -17 135 -17v-92h-540v92q81 0 128.5 38t84.5 122z
M440 586h475l-241 602zM948 1925h56q-7 -66 -24.5 -117.5t-47.5 -89.5q-69 -84 -195 -84q-115 0 -188 82q-68 85 -68 209h58q30 -180 211 -180q72 0 127 49q50 49 71 131zM590 -281q0 48 37 91q36 36 92 36q45 0 86 -37.5t41 -89.5q0 -47 -39 -86q-19 -20 -40.5 -30.5
t-45.5 -10.5q-50 0 -90.5 39t-40.5 88z" />
    <glyph glyph-name="uni1EB7" unicode="&#x1eb7;" horiz-adv-x="1139" 
d="M1057 103l36 -56q-72 -75 -162 -75q-66 0 -110.5 35t-85.5 132q-93 -96 -168 -131.5t-172 -35.5q-145 0 -219.5 62t-74.5 159q0 141 170 237.5t458 133.5v142q0 75 -61 129.5t-155 54.5q-87 0 -150 -36q-45 -27 -45 -53q0 -9 24 -47q29 -40 29 -71q0 -45 -29 -74
q-15 -12 -33 -21l-21 -5l-22 -2q-45 0 -83 33q-34 34 -34 88q0 95 111 179t293 84q165 0 254 -72.5t89 -176.5v-512q0 -63 21 -101q21 -32 58 -32q40 0 82 32zM729 498q-252 -33 -360 -114q-31 -25 -59 -72q-9 -22 -15 -46q-3 -17 -4 -25t-1 -27q0 -77 41 -120.5t107 -43.5
q118 0 204.5 89.5t86.5 224.5v134zM748 1366h55q-12 -132 -72 -207q-33 -42 -82 -64q-24 -9 -48.5 -14t-39.5 -5.5t-24 -0.5q-117 0 -186.5 81.5t-69.5 209.5h57q30 -180 211 -180q76 0 126.5 47.5t72.5 132.5zM661 -289q0 -43 -37 -84q-19 -17 -41.5 -27t-44.5 -10
q-43 0 -82 39q-17 19 -27 41t-10 45q0 45 36.5 81t84.5 36q46 0 83.5 -36.5t37.5 -84.5z" />
    <glyph glyph-name="uni1EB8" unicode="&#x1eb8;" horiz-adv-x="1479" 
d="M63 1386v93h1233l29 -525h-86q-50 284 -154 363q-94 69 -383 69h-40l-93 -2q-59 -9 -59 -77v-494h74q135 0 203.5 65t68.5 216h92v-674h-92q0 142 -57 219q-28 40 -71 60t-105 20h-113v-549l2 -25l18 -26l39 -17l56 -2l63 -6l68 -2h41l61 2h37l29 8q74 0 131 29
q53 30 100 86q55 70 100 248l19 82h84l-39 -547h-1260v92h62q63 0 96 6q50 11 66 60l4 88v991l-2 88q0 10 -3 19.5t-18 19.5q-7 7 -61 16l-101 6h-39zM590 -281q0 48 37 91q36 36 92 36q45 0 86 -37.5t41 -89.5q0 -47 -39 -86q-19 -20 -40.5 -30.5t-45.5 -10.5
q-50 0 -90.5 39t-40.5 88z" />
    <glyph glyph-name="uni1EB9" unicode="&#x1eb9;" 
d="M950 461h-669q0 -80 15 -145t48 -119q74 -123 227 -123q90 0 150 32q30 18 60.5 45.5t56.5 63.5l24 43l21 35l69 -39q-63 -139 -166 -213q-49 -36 -109.5 -54t-139.5 -18q-97 0 -193 33q-43 18 -83 43q-30 22 -71 66q-60 69 -92 155l-10 37l-10 55q-6 48 -6 103
q0 207 123 360q130 160 335 160q111 0 197 -55q44 -25 78 -62q35 -35 67 -90q23 -40 43 -108l25 -117l8 -43zM285 545h344h24q43 0 62.5 12.5t19.5 63.5q0 60 -11 101q-9 47 -36 87q-56 90 -164 90q-117 0 -188 -123q-51 -96 -51 -231zM637 -289q0 -44 -37 -84
q-19 -17 -41.5 -27t-44.5 -10q-42 0 -84 39q-35 40 -35 86q0 45 37.5 81t83.5 36q49 0 85 -35.5t36 -85.5z" />
    <glyph glyph-name="uni1EBA" unicode="&#x1eba;" horiz-adv-x="1479" 
d="M63 1386v93h1233l29 -525h-86q-50 284 -154 363q-94 69 -383 69h-40l-93 -2q-59 -9 -59 -77v-494h74q135 0 203.5 65t68.5 216h92v-674h-92q0 142 -57 219q-28 40 -71 60t-105 20h-113v-549l2 -25l18 -26l39 -17l56 -2l63 -6l68 -2h41l61 2h37l29 8q74 0 131 29
q53 30 100 86q55 70 100 248l19 82h84l-39 -547h-1260v92h62q63 0 96 6q50 11 66 60l4 88v991l-2 88q0 10 -3 19.5t-18 19.5q-7 7 -61 16l-101 6h-39zM768 1663l-51 -2v32t4 25l51 76l37 51q13 20 27 58l8 71q0 69 -26 104.5t-93 35.5q-18 0 -36 -4.5t-37.5 -15t-22.5 -32.5
q0 -14 4 -18l8 -10l33 -23q18 -15 18 -33q0 -61 -69 -61q-31 0 -56 25q-14 20 -20 57q0 57 55 108q18 17 47 30.5t64 23.5l28 4l31 2q77 0 135 -58q60 -55 60 -141q0 -58 -41 -115q-12 -18 -35 -38q-8 -8 -23 -22q-21 -19 -34 -30l-56 -43z" />
    <glyph glyph-name="uni1EBB" unicode="&#x1ebb;" 
d="M950 461h-669q0 -80 15 -145t48 -119q74 -123 227 -123q90 0 150 32q30 18 60.5 45.5t56.5 63.5l24 43l21 35l69 -39q-63 -139 -166 -213q-49 -36 -109.5 -54t-139.5 -18q-97 0 -193 33q-43 18 -83 43q-30 22 -71 66q-60 69 -92 155l-10 37l-10 55q-6 48 -6 103
q0 207 123 360q130 160 335 160q111 0 197 -55q44 -25 78 -62q35 -35 67 -90q23 -40 43 -108l25 -117l8 -43zM285 545h344h24q43 0 62.5 12.5t19.5 63.5q0 60 -11 101q-9 47 -36 87q-56 90 -164 90q-117 0 -188 -123q-51 -96 -51 -231zM545 1130h-45v35v20q0 9 4 17l12 20
l31 42l37 51q19 27 32 61q11 33 11 66q0 66 -30.5 103.5t-96.5 37.5q-33 0 -74 -18q-23 -12 -23 -32q0 -10 5 -20l8 -10q37 -25 37 -59q0 -24 -19 -43t-43 -19q-29 0 -51 25q-18 24 -18 61q0 60 55 109q22 22 47 33l27 8l34 8l50 4q44 0 80 -12.5t67 -40.5q59 -53 59 -139
q0 -28 -9 -58q-3 -11 -11.5 -27t-20.5 -30l-13 -18l-22 -21l-57 -51l-51 -37q-6 -6 -12 -66z" />
    <glyph glyph-name="uni1EBC" unicode="&#x1ebc;" horiz-adv-x="1479" 
d="M63 1386v93h1233l29 -525h-86q-50 284 -154 363q-94 69 -383 69h-40l-93 -2q-59 -9 -59 -77v-494h74q135 0 203.5 65t68.5 216h92v-674h-92q0 142 -57 219q-28 40 -71 60t-105 20h-113v-549l2 -25l18 -26l39 -17l56 -2l63 -6l68 -2h41l61 2h37l29 8q74 0 131 29
q53 30 100 86q55 70 100 248l19 82h84l-39 -547h-1260v92h62q63 0 96 6q50 11 66 60l4 88v991l-2 88q0 10 -3 19.5t-18 19.5q-7 7 -61 16l-101 6h-39zM1051 1851h59l-2 -18l-21 -64l-38 -63q-13 -16 -25.5 -27t-26.5 -18l-53 -21l-49 -6q-44 0 -98 19q-26 5 -95 43l-47 20
q-7 3 -21.5 5.5t-25.5 4.5q-49 0 -76 -28l-20 -25l-18 -39h-62q18 97 94 164q28 23 66 35l57 8h33l33 -10q11 -1 23 -5.5t24 -10.5l55 -27l66 -31l55 -8l37 6q54 25 76 96z" />
    <glyph glyph-name="uni1EBD" unicode="&#x1ebd;" 
d="M950 461h-669q0 -80 15 -145t48 -119q74 -123 227 -123q90 0 150 32q30 18 60.5 45.5t56.5 63.5l24 43l21 35l69 -39q-63 -139 -166 -213q-49 -36 -109.5 -54t-139.5 -18q-97 0 -193 33q-43 18 -83 43q-30 22 -71 66q-60 69 -92 155l-10 37l-10 55q-6 48 -6 103
q0 207 123 360q130 160 335 160q111 0 197 -55q44 -25 78 -62q35 -35 67 -90q23 -40 43 -108l25 -117l8 -43zM285 545h344h24q43 0 62.5 12.5t19.5 63.5q0 60 -11 101q-9 47 -36 87q-56 90 -164 90q-117 0 -188 -123q-51 -96 -51 -231zM885 1354l1 -6q0 -12 -9 -33l-19 -43
l-22 -39l-17 -25q-21 -27 -51 -45l-22 -10l-34 -10q-23 -6 -46 -6q-45 0 -99 18q-25 6 -94 43l-27 13l-17 7l-25 7l-25 4q-50 0 -76 -29l-20 -24l-19 -39h-61q18 99 94 163l31 21l19 8l15 6l50 8q48 0 84 -14l125 -57l21 -11l22 -8l36 -4l21 1q7 0 24 7q57 27 76 97h64z" />
    <glyph glyph-name="uni1EBE" unicode="&#x1ebe;" horiz-adv-x="1479" 
d="M63 1386v93h1233l29 -525h-86q-50 284 -154 363q-94 69 -383 69h-40l-93 -2q-59 -9 -59 -77v-494h74q135 0 203.5 65t68.5 216h92v-674h-92q0 142 -57 219q-28 40 -71 60t-105 20h-113v-549l2 -25l18 -26l39 -17l56 -2l63 -6l68 -2h41l61 2h37l29 8q74 0 131 29
q53 30 100 86q55 70 100 248l19 82h84l-39 -547h-1260v92h62q63 0 96 6q50 11 66 60l4 88v991l-2 88q0 10 -3 19.5t-18 19.5q-7 7 -61 16l-101 6h-39zM741 1821l-249 -211h-72l256 340h129l256 -340h-72zM1337 2054l-288 -186h-91l283 284l25 25l37 27l38 14l41 8
q25 0 33 -10l15 -18l4 -23q0 -26 -29 -68l-31 -28z" />
    <glyph glyph-name="uni1EBF" unicode="&#x1ebf;" 
d="M950 461h-669q0 -80 15 -145t48 -119q74 -123 227 -123q90 0 150 32q30 18 60.5 45.5t56.5 63.5l24 43l21 35l69 -39q-63 -139 -166 -213q-49 -36 -109.5 -54t-139.5 -18q-97 0 -193 33q-43 18 -83 43q-30 22 -71 66q-60 69 -92 155l-10 37l-10 55q-6 48 -6 103
q0 207 123 360q130 160 335 160q111 0 197 -55q44 -25 78 -62q35 -35 67 -90q23 -40 43 -108l25 -117l8 -43zM285 545h344h24q43 0 62.5 12.5t19.5 63.5q0 60 -11 101q-9 47 -36 87q-56 90 -164 90q-117 0 -188 -123q-51 -96 -51 -231zM514 1292l-250 -211h-71l256 340h129
l256 -340h-72zM1081 1696l27 4q31 0 57 -25q23 -18 23 -55q0 -18 -25 -39l-41 -29l-295 -186h-84l283 285l25 24q12 12 30 21z" />
    <glyph glyph-name="uni1EC0" unicode="&#x1ec0;" horiz-adv-x="1479" 
d="M63 1386v93h1233l29 -525h-86q-50 284 -154 363q-94 69 -383 69h-40l-93 -2q-59 -9 -59 -77v-494h74q135 0 203.5 65t68.5 216h92v-674h-92q0 142 -57 219q-28 40 -71 60t-105 20h-113v-549l2 -25l18 -26l39 -17l56 -2l63 -6l68 -2h41l61 2h37l29 8q74 0 131 29
q53 30 100 86q55 70 100 248l19 82h84l-39 -547h-1260v92h62q63 0 96 6q50 11 66 60l4 88v991l-2 88q0 10 -3 19.5t-18 19.5q-7 7 -61 16l-101 6h-39zM741 1821l-249 -211h-72l256 340h129l256 -340h-72zM913 2042l-36 22l-33 33q-11 16 -17 53q0 29 19 56q5 5 28 8l37 -6
l35 -15q10 -3 17.5 -8t13.5 -14l33 -31l282 -285h-84z" />
    <glyph glyph-name="uni1EC1" unicode="&#x1ec1;" 
d="M950 461h-669q0 -80 15 -145t48 -119q74 -123 227 -123q90 0 150 32q30 18 60.5 45.5t56.5 63.5l24 43l21 35l69 -39q-63 -139 -166 -213q-49 -36 -109.5 -54t-139.5 -18q-97 0 -193 33q-43 18 -83 43q-30 22 -71 66q-60 69 -92 155l-10 37l-10 55q-6 48 -6 103
q0 207 123 360q130 160 335 160q111 0 197 -55q44 -25 78 -62q35 -35 67 -90q23 -40 43 -108l25 -117l8 -43zM285 545h344h24q43 0 62.5 12.5t19.5 63.5q0 60 -11 101q-9 47 -36 87q-56 90 -164 90q-117 0 -188 -123q-51 -96 -51 -231zM514 1292l-250 -211h-71l256 340h129
l256 -340h-72zM670 1704l13 1q24 0 56 -22q13 -7 24 -16t32 -31l282 -284h-94l-285 186l-34 23l-31 24q-18 21 -21 39l-2 23l1 14l7 14q10 17 52 29z" />
    <glyph glyph-name="uni1EC2" unicode="&#x1ec2;" horiz-adv-x="1479" 
d="M63 1386v93h1233l29 -525h-86q-50 284 -154 363q-94 69 -383 69h-40l-93 -2q-59 -9 -59 -77v-494h74q135 0 203.5 65t68.5 216h92v-674h-92q0 142 -57 219q-28 40 -71 60t-105 20h-113v-549l2 -25l18 -26l39 -17l56 -2l63 -6l68 -2h41l61 2h37l29 8q74 0 131 29
q53 30 100 86q55 70 100 248l19 82h84l-39 -547h-1260v92h62q63 0 96 6q50 11 66 60l4 88v991l-2 88q0 10 -3 19.5t-18 19.5q-7 7 -61 16l-101 6h-39zM741 1821l-249 -211h-72l256 340h129l256 -340h-72zM1137 1884l-52 -2v32t5 25l51 76l37 51q14 21 26 58l8 71
q0 69 -26.5 104.5t-91.5 35.5q-39 0 -74 -19q-20 -11 -23 -32q0 -15 4 -19l9 -10l32 -23q19 -15 19 -32q0 -62 -70 -62q-31 0 -55 25q-13 19 -21 57q0 56 56 109q37 34 110 53l29 4l31 2q78 0 136 -56.5t58 -142.5q0 -59 -41 -114q-12 -20 -34 -39q-20 -20 -58 -51l-55 -43z
" />
    <glyph glyph-name="uni1EC3" unicode="&#x1ec3;" 
d="M950 461h-669q0 -80 15 -145t48 -119q74 -123 227 -123q90 0 150 32q30 18 60.5 45.5t56.5 63.5l24 43l21 35l69 -39q-63 -139 -166 -213q-49 -36 -109.5 -54t-139.5 -18q-97 0 -193 33q-43 18 -83 43q-30 22 -71 66q-60 69 -92 155l-10 37l-10 55q-6 48 -6 103
q0 207 123 360q130 160 335 160q111 0 197 -55q44 -25 78 -62q35 -35 67 -90q23 -40 43 -108l25 -117l8 -43zM285 545h344h24q43 0 62.5 12.5t19.5 63.5q0 60 -11 101q-9 47 -36 87q-56 90 -164 90q-117 0 -188 -123q-51 -96 -51 -231zM514 1292l-250 -211h-71l256 340h129
l256 -340h-72zM791 1376h-46v35v20q0 9 5 17l13 21l30 40l36 52q43 58 43 127q0 66 -30.5 103.5t-96.5 37.5q-38 0 -73 -19q-24 -12 -24 -31q0 -10 5 -20l9 -10q36 -24 36 -59q0 -21 -18 -44q-18 -18 -43 -18q-27 0 -50 24q-9 12 -15 27q-5 17 -5 35q0 59 56 109
q19 19 47 32l30 9l31 8l49 4q46 0 81 -13q37 -12 66.5 -39.5t44.5 -61t15 -79.5q0 -31 -10 -57q-9 -28 -31 -57l-13 -18l-22 -21l-57 -51l-51 -37q-6 -6 -12 -66z" />
    <glyph glyph-name="uni1EC4" unicode="&#x1ec4;" horiz-adv-x="1479" 
d="M63 1386v93h1233l29 -525h-86q-50 284 -154 363q-94 69 -383 69h-40l-93 -2q-59 -9 -59 -77v-494h74q135 0 203.5 65t68.5 216h92v-674h-92q0 142 -57 219q-28 40 -71 60t-105 20h-113v-549l2 -25l18 -26l39 -17l56 -2l63 -6l68 -2h41l61 2h37l29 8q74 0 131 29
q53 30 100 86q55 70 100 248l19 82h84l-39 -547h-1260v92h62q63 0 96 6q50 11 66 60l4 88v991l-2 88q0 10 -3 19.5t-18 19.5q-7 7 -61 16l-101 6h-39zM741 1821l-249 -211h-72l256 340h129l256 -340h-72zM1137 2281h59l-2 -18l-20 -63l-39 -64q-13 -16 -25.5 -27t-26.5 -18
l-53 -20l-49 -7q-20 0 -44 4.5t-54 14.5q-26 5 -95 43l-47 20q-6 2 -21 5.5t-26 5.5q-48 0 -76 -29l-20 -25l-18 -39h-62q18 97 94 164q28 23 66 35l57 8h33l33 -10q11 -1 23 -5.5t24 -10.5l55 -27l66 -31l55 -8l37 6q54 25 76 96z" />
    <glyph glyph-name="uni1EC5" unicode="&#x1ec5;" 
d="M950 461h-669q0 -80 15 -145t48 -119q74 -123 227 -123q90 0 150 32q30 18 60.5 45.5t56.5 63.5l24 43l21 35l69 -39q-63 -139 -166 -213q-49 -36 -109.5 -54t-139.5 -18q-97 0 -193 33q-43 18 -83 43q-30 22 -71 66q-60 69 -92 155l-10 37l-10 55q-6 48 -6 103
q0 207 123 360q130 160 335 160q111 0 197 -55q44 -25 78 -62q35 -35 67 -90q23 -40 43 -108l25 -117l8 -43zM285 545h344h24q43 0 62.5 12.5t19.5 63.5q0 60 -11 101q-9 47 -36 87q-56 90 -164 90q-117 0 -188 -123q-51 -96 -51 -231zM514 1292l-250 -211h-71l256 340h129
l256 -340h-72zM821 1737h60l-2 -19l-21 -63l-22 -39l-17 -25q-24 -30 -51 -45l-22 -10l-34 -10q-23 -6 -46 -6q-45 0 -99 18q-25 6 -94 43l-27 13l-17 7l-25 7l-25 4q-50 0 -76 -29l-20 -24l-19 -39h-61q18 99 94 163l31 21l19 8l15 6l58 8h33l32 -10q10 0 19 -4l28 -12
l56 -27q42 -18 65 -31l26 -5l30 -3q18 0 36 6q57 27 76 97z" />
    <glyph glyph-name="uni1EC6" unicode="&#x1ec6;" horiz-adv-x="1479" 
d="M63 1386v93h1233l29 -525h-86q-50 284 -154 363q-94 69 -383 69h-40l-93 -2q-59 -9 -59 -77v-494h74q135 0 203.5 65t68.5 216h92v-674h-92q0 142 -57 219q-28 40 -71 60t-105 20h-113v-549l2 -25l18 -26l39 -17l56 -2l63 -6l68 -2h41l61 2h37l29 8q74 0 131 29
q53 30 100 86q55 70 100 248l19 82h84l-39 -547h-1260v92h62q63 0 96 6q50 11 66 60l4 88v991l-2 88q0 10 -3 19.5t-18 19.5q-7 7 -61 16l-101 6h-39zM741 1821l-249 -211h-72l256 340h129l256 -340h-72zM590 -281q0 48 37 91q36 36 92 36q45 0 86 -37.5t41 -89.5
q0 -47 -39 -86q-19 -20 -40.5 -30.5t-45.5 -10.5q-50 0 -90.5 39t-40.5 88z" />
    <glyph glyph-name="uni1EC7" unicode="&#x1ec7;" 
d="M950 461h-669q0 -80 15 -145t48 -119q74 -123 227 -123q90 0 150 32q30 18 60.5 45.5t56.5 63.5l24 43l21 35l69 -39q-63 -139 -166 -213q-49 -36 -109.5 -54t-139.5 -18q-97 0 -193 33q-43 18 -83 43q-30 22 -71 66q-60 69 -92 155l-10 37l-10 55q-6 48 -6 103
q0 207 123 360q130 160 335 160q111 0 197 -55q44 -25 78 -62q35 -35 67 -90q23 -40 43 -108l25 -117l8 -43zM285 545h344h24q43 0 62.5 12.5t19.5 63.5q0 60 -11 101q-9 47 -36 87q-56 90 -164 90q-117 0 -188 -123q-51 -96 -51 -231zM514 1292l-250 -211h-71l256 340h129
l256 -340h-72zM623 -289q0 -43 -37 -84q-40 -37 -86 -37q-43 0 -82 39q-17 19 -27 41t-10 45q0 45 36.5 81t84.5 36q46 0 83.5 -36.5t37.5 -84.5z" />
    <glyph glyph-name="uni1EC8" unicode="&#x1ec8;" horiz-adv-x="834" 
d="M752 0h-674v92h41l80 2q17 0 30 2t23 8q38 14 43 29l8 31l2 43v1069v17q0 24 -4 32q0 19 -18 37l-45 18q-23 6 -60 6l-37 -2h-37l-24 2v93h676v-93h-80l-86 -6q-37 -9 -58 -47l-4 -37v-30v-1065q0 -17 1 -32q0 -15 3 -22l7 -16l12 -12q13 -8 49 -21l62 -6l57 2l33 -2v-92
zM436 1587h-45v35v20t4 17l43 61l37 52q43 56 43 126q0 68 -30.5 105t-96.5 37q-37 0 -74 -19q-19 -11 -22 -32q0 -15 4 -19l8 -10q37 -24 37 -59q0 -25 -18.5 -43.5t-42.5 -18.5q-27 0 -52 25q-18 24 -18 61q0 57 55 109q20 19 47 32l62 17l49 4q44 0 80 -12.5t67 -40
t45.5 -61t14.5 -79.5q0 -59 -41 -114q-11 -18 -35 -39l-57 -51l-51 -37q-7 -6 -13 -66z" />
    <glyph glyph-name="uni1EC9" unicode="&#x1ec9;" horiz-adv-x="645" 
d="M592 0h-539v72h56l61 6q31 0 45 10q9 21 12 45l4 60v36v471v29l-2 41l-1 20q0 8 -6.5 22.5t-31.5 21.5l-30 6l-123 4v86l383 20v-786v-31q0 -29 9 -44q10 -13 50 -13l53 -2h30q23 0 30 -2v-72zM297 1130h-45v35v20q0 10 5 18l42 61l37 51q43 58 43 127q0 70 -30.5 105.5
t-96.5 35.5q-33 0 -74 -18q-23 -14 -23 -32q0 -10 5 -20l8 -10q37 -25 37 -59q0 -24 -19 -43t-42 -19q-27 0 -52 25q-18 24 -18 61q0 60 55 109l23 19l21 12l33 10l32 8l49 4q44 0 80 -12.5t67 -40.5q60 -54 60 -139q0 -58 -41 -115q-24 -32 -92 -90l-52 -37q-6 -6 -12 -66z
" />
    <glyph glyph-name="uni1ECA" unicode="&#x1eca;" horiz-adv-x="834" 
d="M752 0h-674v92h41l80 2q17 0 30 2t23 8q38 14 43 29l8 31l2 43v1069v17q0 24 -4 32q0 19 -18 37l-45 18q-23 6 -60 6l-37 -2h-37l-24 2v93h676v-93h-80l-86 -6q-37 -9 -58 -47l-4 -37v-30v-1065q0 -17 1 -32q0 -15 3 -22l7 -16l12 -12q13 -8 49 -21l62 -6l57 2l33 -2v-92
zM279 -281q0 47 36 91q38 36 93 36q45 0 86 -37.5t41 -89.5q0 -45 -39 -86t-86 -41q-49 0 -93 39q-19 20 -28.5 41t-9.5 47z" />
    <glyph glyph-name="uni1ECB" unicode="&#x1ecb;" horiz-adv-x="645" 
d="M592 0h-539v72h56l61 6q31 0 45 10q9 21 12 45l4 60v36v471v29l-2 41l-1 20q0 8 -6.5 22.5t-31.5 21.5l-30 6l-123 4v86l383 20v-786v-31q0 -29 9 -44q10 -13 50 -13l53 -2h30q23 0 30 -2v-72zM436 1346q0 -46 -37 -83.5t-86 -37.5q-44 0 -84 37q-34 37 -34 88
q0 41 36 82q18 15 39.5 24.5t44.5 9.5q49 0 85 -35t36 -85zM436 -289q0 -44 -36.5 -82.5t-86.5 -38.5q-42 0 -84 39q-34 40 -34 86q0 45 36.5 81t83.5 36q50 0 85.5 -35.5t35.5 -85.5z" />
    <glyph glyph-name="uni1ECC" unicode="&#x1ecc;" horiz-adv-x="1593" 
d="M1239 739q0 132 -15 233.5t-48 182.5q-105 262 -381 262q-245 0 -359 -227q-19 -43 -34.5 -92t-25.5 -102.5t-16 -120.5t-6 -136q0 -257 64 -415q104 -263 381 -263q244 0 358 228q39 83 62 194q9 53 14.5 122.5t5.5 133.5zM1501 739q0 -267 -172 -499
q-202 -271 -530 -271q-307 0 -512 236q-195 225 -195 534q0 265 172 500q203 270 531 270q307 0 512 -235q194 -226 194 -535zM672 -281q0 48 37 91q36 36 92 36q45 0 86 -37.5t41 -89.5q0 -45 -39 -86q-19 -20 -40.5 -30.5t-45.5 -10.5q-50 0 -90.5 39t-40.5 88z" />
    <glyph glyph-name="uni1ECD" unicode="&#x1ecd;" 
d="M509 965q186 0 316 -136t130 -360q0 -153 -57.5 -261.5t-163 -172t-230.5 -63.5q-176 0 -308 138q-60 66 -95 158q-15 44 -24 93q-4 25 -6 49.5t-2 57.5q0 216 126 356.5t314 140.5zM509 894q-107 0 -181.5 -103t-74.5 -319q0 -218 72 -323.5t184 -105.5q117 0 189.5 103
t72.5 337q0 213 -71.5 312t-190.5 99zM650 -322q0 -43 -37 -84q-19 -17 -41.5 -27t-44.5 -10q-43 0 -82 39q-17 19 -27 41t-10 45q0 45 36.5 81t84.5 36q46 0 83.5 -36.5t37.5 -84.5z" />
    <glyph glyph-name="uni1ECE" unicode="&#x1ece;" horiz-adv-x="1593" 
d="M1239 739q0 132 -15 233.5t-48 182.5q-105 262 -381 262q-245 0 -359 -227q-19 -43 -34.5 -92t-25.5 -102.5t-16 -120.5t-6 -136q0 -257 64 -415q104 -263 381 -263q244 0 358 228q39 83 62 194q9 53 14.5 122.5t5.5 133.5zM1501 739q0 -267 -172 -499
q-202 -271 -530 -271q-307 0 -512 236q-195 225 -195 534q0 265 172 500q203 270 531 270q307 0 512 -235q194 -226 194 -535zM838 1587h-45v35v20t4 17l43 61l37 52q43 58 43 126q0 66 -31 104t-96 38q-39 0 -74 -19q-20 -11 -23 -32q0 -15 4 -19l9 -10q36 -24 36 -59
q0 -25 -18 -43.5t-43 -18.5q-27 0 -51 25q-19 25 -19 61q0 56 56 109q18 18 47 32l61 17l49 4q45 0 81 -12.5t66 -39.5t45 -61.5t15 -79.5q0 -59 -41 -114q-6 -10 -14 -19t-20 -20t-23 -21q-15 -14 -35 -30l-51 -37q-6 -6 -12 -66z" />
    <glyph glyph-name="uni1ECF" unicode="&#x1ecf;" 
d="M509 965q186 0 316 -136t130 -360q0 -153 -57.5 -261.5t-163 -172t-230.5 -63.5q-176 0 -308 138q-60 66 -95 158q-15 44 -24 93q-4 25 -6 49.5t-2 57.5q0 216 126 356.5t314 140.5zM509 894q-107 0 -181.5 -103t-74.5 -319q0 -218 72 -323.5t184 -105.5q117 0 189.5 103
t72.5 337q0 213 -71.5 312t-190.5 99zM535 1130h-45v35v20q0 10 5 18l42 61l37 51q43 58 43 127q0 70 -30.5 105.5t-96.5 35.5q-33 0 -74 -18q-23 -14 -23 -32q0 -10 5 -20l8 -10q37 -25 37 -59q0 -24 -19 -43t-42 -19q-27 0 -52 25q-18 24 -18 61q0 60 55 109l23 19l21 12
l33 10l32 8l49 4q44 0 80 -12.5t67 -40.5q60 -54 60 -139q0 -58 -41 -115q-24 -32 -92 -90l-52 -37q-6 -6 -12 -66z" />
    <glyph glyph-name="uni1ED0" unicode="&#x1ed0;" horiz-adv-x="1593" 
d="M1239 739q0 132 -15 233.5t-48 182.5q-105 262 -381 262q-245 0 -359 -227q-19 -43 -34.5 -92t-25.5 -102.5t-16 -120.5t-6 -136q0 -257 64 -415q104 -263 381 -263q244 0 358 228q39 83 62 194q9 53 14.5 122.5t5.5 133.5zM1501 739q0 -267 -172 -499
q-202 -271 -530 -271q-307 0 -512 236q-195 225 -195 534q0 265 172 500q203 270 531 270q307 0 512 -235q194 -226 194 -535zM799 1821l-250 -211h-72l256 340h129l256 -340h-71zM1411 2054l-289 -186h-90l283 284l24 25l37 27l39 14l41 8q25 0 33 -10l14 -18l4 -23
q0 -27 -28 -68l-31 -28z" />
    <glyph glyph-name="uni1ED1" unicode="&#x1ed1;" 
d="M509 965q186 0 316 -136t130 -360q0 -153 -57.5 -261.5t-163 -172t-230.5 -63.5q-176 0 -308 138q-60 66 -95 158q-15 44 -24 93q-4 25 -6 49.5t-2 57.5q0 216 126 356.5t314 140.5zM509 894q-107 0 -181.5 -103t-74.5 -319q0 -218 72 -323.5t184 -105.5q117 0 189.5 103
t72.5 337q0 213 -71.5 312t-190.5 99zM514 1292l-250 -211h-71l256 340h129l256 -340h-72zM1141 1521l-295 -187h-84l283 285l24 25q21 18 45 30q7 5 41 11q70 0 70 -66q0 -18 -15 -41l-16 -19l-16 -14z" />
    <glyph glyph-name="uni1ED2" unicode="&#x1ed2;" horiz-adv-x="1593" 
d="M1239 739q0 132 -15 233.5t-48 182.5q-105 262 -381 262q-245 0 -359 -227q-19 -43 -34.5 -92t-25.5 -102.5t-16 -120.5t-6 -136q0 -257 64 -415q104 -263 381 -263q244 0 358 228q39 83 62 194q9 53 14.5 122.5t5.5 133.5zM1501 739q0 -267 -172 -499
q-202 -271 -530 -271q-307 0 -512 236q-195 225 -195 534q0 265 172 500q203 270 531 270q307 0 512 -235q194 -226 194 -535zM799 1821l-250 -211h-72l256 340h129l256 -340h-71zM987 2005l-37 23l-32 32q-11 16 -17 54q0 30 19 55q5 5 28 8l37 -6l35 -14q11 -5 17.5 -9
t13.5 -14l32 -31l283 -284h-84z" />
    <glyph glyph-name="uni1ED3" unicode="&#x1ed3;" 
d="M509 965q186 0 316 -136t130 -360q0 -153 -57.5 -261.5t-163 -172t-230.5 -63.5q-176 0 -308 138q-60 66 -95 158q-15 44 -24 93q-4 25 -6 49.5t-2 57.5q0 216 126 356.5t314 140.5zM509 894q-107 0 -181.5 -103t-74.5 -319q0 -218 72 -323.5t184 -105.5q117 0 189.5 103
t72.5 337q0 213 -71.5 312t-190.5 99zM514 1292l-250 -211h-71l256 340h129l256 -340h-72zM547 1760l13 1q21 0 56 -21l25 -18l31 -29l282 -285h-94l-284 186l-35 23l-31 24q-14 16 -20 45l-3 18q0 11 9 28.5t51 27.5z" />
    <glyph glyph-name="uni1ED4" unicode="&#x1ed4;" horiz-adv-x="1593" 
d="M1239 739q0 132 -15 233.5t-48 182.5q-105 262 -381 262q-245 0 -359 -227q-19 -43 -34.5 -92t-25.5 -102.5t-16 -120.5t-6 -136q0 -257 64 -415q104 -263 381 -263q244 0 358 228q39 83 62 194q9 53 14.5 122.5t5.5 133.5zM1501 739q0 -267 -172 -499
q-202 -271 -530 -271q-307 0 -512 236q-195 225 -195 534q0 265 172 500q203 270 531 270q307 0 512 -235q194 -226 194 -535zM799 1821l-250 -211h-72l256 340h129l256 -340h-71zM1124 1831h-45v35q0 11 1 21q0 10 3 16l43 61l37 51q43 58 43 127q0 67 -30 105
q-32 37 -97 37q-35 0 -73 -19q-20 -11 -23 -33q0 -14 4 -18l8 -10q37 -25 37 -60q0 -23 -18 -43q-20 -18 -43 -18q-27 0 -51 24q-19 25 -19 62q0 56 55 108q19 19 48 33l61 17l49 4q88 0 148 -54q30 -27 44.5 -60.5t14.5 -78.5q0 -31 -9 -58t-32 -57q-7 -11 -9 -13
q-10 -11 -26 -25q-8 -8 -23 -22q-21 -19 -34 -30l-51 -37q-7 -7 -13 -65z" />
    <glyph glyph-name="uni1ED5" unicode="&#x1ed5;" 
d="M509 965q186 0 316 -136t130 -360q0 -153 -57.5 -261.5t-163 -172t-230.5 -63.5q-176 0 -308 138q-60 66 -95 158q-15 44 -24 93q-4 25 -6 49.5t-2 57.5q0 216 126 356.5t314 140.5zM509 894q-107 0 -181.5 -103t-74.5 -319q0 -218 72 -323.5t184 -105.5q117 0 189.5 103
t72.5 337q0 213 -71.5 312t-190.5 99zM514 1292l-250 -211h-71l256 340h129l256 -340h-72zM865 1339h-45v35v20q0 10 5 18l42 61l37 51q43 58 43 127q0 70 -30.5 105.5t-96.5 35.5q-33 0 -74 -18q-23 -14 -23 -32q0 -10 5 -20l8 -10q37 -25 37 -59q0 -24 -19 -43t-42 -19
q-27 0 -52 25q-18 24 -18 61q0 60 55 109l23 19l21 12l33 10l32 8l49 4q44 0 80 -12.5t67 -40.5q60 -54 60 -139q0 -58 -41 -115q-24 -32 -92 -90l-52 -37q-6 -6 -12 -66z" />
    <glyph glyph-name="uni1ED6" unicode="&#x1ed6;" horiz-adv-x="1593" 
d="M1239 739q0 132 -15 233.5t-48 182.5q-105 262 -381 262q-245 0 -359 -227q-19 -43 -34.5 -92t-25.5 -102.5t-16 -120.5t-6 -136q0 -257 64 -415q104 -263 381 -263q244 0 358 228q39 83 62 194q9 53 14.5 122.5t5.5 133.5zM1501 739q0 -267 -172 -499
q-202 -271 -530 -271q-307 0 -512 236q-195 225 -195 534q0 265 172 500q203 270 531 270q307 0 512 -235q194 -226 194 -535zM799 1821l-250 -211h-72l256 340h129l256 -340h-71zM1100 2261h59l-2 -18l-20 -64l-39 -63q-25 -30 -51 -45l-54 -21l-49 -6q-42 0 -98 18
q-12 3 -34.5 13t-59.5 30l-47 21q-8 3 -24 6t-24 4q-26 0 -43.5 -6t-31.5 -23l-21 -24l-18 -39h-62q20 98 94 164q28 21 66 35l57 8h33l33 -10q19 -4 24.5 -6t22.5 -11l55 -26l66 -31l55 -8l37 6q54 23 76 96z" />
    <glyph glyph-name="uni1ED7" unicode="&#x1ed7;" 
d="M509 965q186 0 316 -136t130 -360q0 -153 -57.5 -261.5t-163 -172t-230.5 -63.5q-176 0 -308 138q-60 66 -95 158q-15 44 -24 93q-4 25 -6 49.5t-2 57.5q0 216 126 356.5t314 140.5zM509 894q-107 0 -181.5 -103t-74.5 -319q0 -218 72 -323.5t184 -105.5q117 0 189.5 103
t72.5 337q0 213 -71.5 312t-190.5 99zM514 1292l-250 -211h-71l256 340h129l256 -340h-72zM888 1738l1 -6q0 -12 -9 -33l-19 -43l-23 -40l-16 -23q-21 -27 -51 -45l-31 -13l-22 -8q-26 -6 -49 -6q-45 0 -99 18q-25 6 -94 43l-28 13l-19 8l-22 6l-25 4q-50 0 -76 -29l-20 -24
l-19 -39h-61q18 97 94 164q12 10 28.5 18.5t37.5 16.5l49 8q42 0 84 -15l125 -57q25 -12 43 -18l36 -4l21 1q7 0 25 7q57 27 75 96h64z" />
    <glyph glyph-name="uni1ED8" unicode="&#x1ed8;" horiz-adv-x="1593" 
d="M1239 739q0 132 -15 233.5t-48 182.5q-105 262 -381 262q-245 0 -359 -227q-19 -43 -34.5 -92t-25.5 -102.5t-16 -120.5t-6 -136q0 -257 64 -415q104 -263 381 -263q244 0 358 228q39 83 62 194q9 53 14.5 122.5t5.5 133.5zM1501 739q0 -267 -172 -499
q-202 -271 -530 -271q-307 0 -512 236q-195 225 -195 534q0 265 172 500q203 270 531 270q307 0 512 -235q194 -226 194 -535zM799 1821l-250 -211h-72l256 340h129l256 -340h-71zM672 -281q0 48 37 91q36 36 92 36q45 0 86 -37.5t41 -89.5q0 -45 -39 -86
q-19 -20 -40.5 -30.5t-45.5 -10.5q-50 0 -90.5 39t-40.5 88z" />
    <glyph glyph-name="uni1ED9" unicode="&#x1ed9;" 
d="M509 965q186 0 316 -136t130 -360q0 -153 -57.5 -261.5t-163 -172t-230.5 -63.5q-176 0 -308 138q-60 66 -95 158q-15 44 -24 93q-4 25 -6 49.5t-2 57.5q0 216 126 356.5t314 140.5zM509 894q-107 0 -181.5 -103t-74.5 -319q0 -218 72 -323.5t184 -105.5q117 0 189.5 103
t72.5 337q0 213 -71.5 312t-190.5 99zM514 1292l-250 -211h-71l256 340h129l256 -340h-72zM628 -300q0 -43 -37 -84q-19 -17 -41.5 -27t-44.5 -10q-43 0 -82 39q-17 19 -27 41t-10 45q0 45 36.5 81t84.5 36q46 0 83.5 -36.5t37.5 -84.5z" />
    <glyph glyph-name="uni1EDA" unicode="&#x1eda;" horiz-adv-x="1593" 
d="M1239 739q0 132 -15 233.5t-48 182.5q-105 262 -381 262q-245 0 -359 -227q-19 -43 -34.5 -92t-25.5 -102.5t-16 -120.5t-6 -136q0 -257 64 -415q104 -263 381 -263q244 0 358 228q39 83 62 194q9 53 14.5 122.5t5.5 133.5zM1196 1378l41 37l18 29q15 20 31 57q9 24 9 37
q0 7 -3 12l-8 2l-10 -2h-33q-9 0 -19 2t-24 9q-43 30 -43 77q0 17 6 30t23 28q28 25 63 28q63 0 92 -45q10 -11 21 -41q12 -24 12 -65q0 -64 -37 -125q-16 -27 -38 -53t-54 -56q124 -108 191 -264.5t67 -335.5q0 -267 -172 -499q-202 -271 -530 -271q-307 0 -512 236
q-195 225 -195 534q0 265 172 500q203 270 531 270q58 0 110.5 -8t102.5 -26q103 -32 188 -97zM944 1833l-289 -186h-90l283 284l24 25l37 26l39 15l41 8q25 0 33 -10l14 -19l4 -22q0 -27 -28 -68l-31 -28z" />
    <glyph glyph-name="uni1EDB" unicode="&#x1edb;" 
d="M509 894q-107 0 -181.5 -103t-74.5 -319q0 -218 72 -323.5t184 -105.5q117 0 189.5 103t72.5 337q0 213 -71.5 312t-190.5 99zM782 870l40 34q39 36 64 64q15 17 15 28l-1 5l-8 2l-10 -2h-33l-19 2l-24 8q-43 31 -43 78q0 12 6.5 28.5t22.5 30.5q29 27 63 27q59 0 92 -45
q15 -21 24 -48.5t9 -58.5q0 -62 -76 -135l-74 -63q125 -134 125 -356q0 -153 -57.5 -261.5t-163 -172t-230.5 -63.5q-176 0 -308 138q-60 66 -95 158q-15 44 -24 93q-4 25 -6 49.5t-2 57.5q0 216 126 356.5t314 140.5q160 0 273 -95zM690 1312l-295 -187h-84l283 285l24 25
q21 18 45 30q7 5 41 11q70 0 70 -66q0 -18 -15 -41l-16 -19l-16 -14z" />
    <glyph glyph-name="uni1EDC" unicode="&#x1edc;" horiz-adv-x="1593" 
d="M1239 739q0 132 -15 233.5t-48 182.5q-105 262 -381 262q-245 0 -359 -227q-19 -43 -34.5 -92t-25.5 -102.5t-16 -120.5t-6 -136q0 -257 64 -415q104 -263 381 -263q244 0 358 228q39 83 62 194q9 53 14.5 122.5t5.5 133.5zM1196 1378l41 37l18 29q15 20 31 57q9 24 9 37
q0 7 -3 12l-8 2l-10 -2h-33q-9 0 -19 2t-24 9q-43 30 -43 77q0 17 6 30t23 28q28 25 63 28q63 0 92 -45q10 -11 21 -41q12 -24 12 -65q0 -64 -37 -125q-16 -27 -38 -53t-54 -56q124 -108 191 -264.5t67 -335.5q0 -267 -172 -499q-202 -271 -530 -271q-307 0 -512 236
q-195 225 -195 534q0 265 172 500q203 270 531 270q58 0 110.5 -8t102.5 -26q103 -32 188 -97zM631 1796l-37 23l-31 30q-3 4 -7.5 16t-8.5 29q0 22 18 43q17 17 51 23q28 0 41 -10q21 -6 37 -25l33 -31l283 -284h-84z" />
    <glyph glyph-name="uni1EDD" unicode="&#x1edd;" 
d="M509 894q-107 0 -181.5 -103t-74.5 -319q0 -218 72 -323.5t184 -105.5q117 0 189.5 103t72.5 337q0 213 -71.5 312t-190.5 99zM782 870l40 34q39 36 64 64q15 17 15 28l-1 5l-8 2l-10 -2h-33l-19 2l-24 8q-43 31 -43 78q0 12 6.5 28.5t22.5 30.5q29 27 63 27q59 0 92 -45
q15 -21 24 -48.5t9 -58.5q0 -62 -76 -135l-74 -63q125 -134 125 -356q0 -153 -57.5 -261.5t-163 -172t-230.5 -63.5q-176 0 -308 138q-60 66 -95 158q-15 44 -24 93q-4 25 -6 49.5t-2 57.5q0 216 126 356.5t314 140.5q160 0 273 -95zM270 1593l13 1q24 0 57 -21
q22 -13 55 -47l282 -285h-94l-284 186l-35 23l-31 24q-14 16 -20 45l-2 17q0 12 9 30t50 27z" />
    <glyph glyph-name="uni1EDE" unicode="&#x1ede;" horiz-adv-x="1593" 
d="M1239 739q0 132 -15 233.5t-48 182.5q-105 262 -381 262q-245 0 -359 -227q-19 -43 -34.5 -92t-25.5 -102.5t-16 -120.5t-6 -136q0 -257 64 -415q104 -263 381 -263q244 0 358 228q39 83 62 194q9 53 14.5 122.5t5.5 133.5zM1196 1378l41 37l18 29q15 20 31 57q9 24 9 37
q0 7 -3 12l-8 2l-10 -2h-33q-9 0 -19 2t-24 9q-43 30 -43 77q0 17 6 30t23 28q28 25 63 28q63 0 92 -45q10 -11 21 -41q12 -24 12 -65q0 -64 -37 -125q-16 -27 -38 -53t-54 -56q124 -108 191 -264.5t67 -335.5q0 -267 -172 -499q-202 -271 -530 -271q-307 0 -512 236
q-195 225 -195 534q0 265 172 500q203 270 531 270q58 0 110.5 -8t102.5 -26q103 -32 188 -97zM823 1587h-45v35v20t4 17l43 61l37 52q43 56 43 126q0 68 -30.5 105t-96.5 37q-38 0 -73 -19q-20 -11 -23 -32q0 -15 4 -19l8 -10q37 -24 37 -59q0 -25 -18.5 -43.5t-42.5 -18.5
q-27 0 -52 25q-18 24 -18 61q0 57 55 109q20 19 47 32l62 17l49 4q45 0 80.5 -12t66.5 -40.5t45.5 -62t14.5 -78.5q0 -59 -41 -114q-6 -10 -14 -19t-21 -20l-57 -51l-51 -37q-7 -6 -13 -66z" />
    <glyph glyph-name="uni1EDF" unicode="&#x1edf;" 
d="M509 894q-107 0 -181.5 -103t-74.5 -319q0 -218 72 -323.5t184 -105.5q117 0 189.5 103t72.5 337q0 213 -71.5 312t-190.5 99zM782 870l40 34q39 36 64 64q15 17 15 28l-1 5l-8 2l-10 -2h-33l-19 2l-24 8q-43 31 -43 78q0 12 6.5 28.5t22.5 30.5q29 27 63 27q59 0 92 -45
q15 -21 24 -48.5t9 -58.5q0 -62 -76 -135l-74 -63q125 -134 125 -356q0 -153 -57.5 -261.5t-163 -172t-230.5 -63.5q-176 0 -308 138q-60 66 -95 158q-15 44 -24 93q-4 25 -6 49.5t-2 57.5q0 216 126 356.5t314 140.5q160 0 273 -95zM513 1163h-45v35v20q0 10 5 18l42 61
l37 51q43 58 43 127q0 70 -30.5 105.5t-96.5 35.5q-33 0 -74 -18q-23 -14 -23 -32q0 -10 5 -20l8 -10q37 -25 37 -59q0 -24 -19 -43t-42 -19q-27 0 -52 25q-18 24 -18 61q0 60 55 109l23 19l21 12l33 10l32 8l49 4q44 0 80 -12.5t67 -40.5q60 -54 60 -139q0 -58 -41 -115
q-24 -32 -92 -90l-52 -37q-6 -6 -12 -66z" />
    <glyph glyph-name="uni1EE0" unicode="&#x1ee0;" horiz-adv-x="1593" 
d="M1239 739q0 132 -15 233.5t-48 182.5q-105 262 -381 262q-245 0 -359 -227q-19 -43 -34.5 -92t-25.5 -102.5t-16 -120.5t-6 -136q0 -257 64 -415q104 -263 381 -263q244 0 358 228q39 83 62 194q9 53 14.5 122.5t5.5 133.5zM1196 1378l41 37l18 29q15 20 31 57q9 24 9 37
q0 7 -3 12l-8 2l-10 -2h-33q-9 0 -19 2t-24 9q-43 30 -43 77q0 17 6 30t23 28q28 25 63 28q63 0 92 -45q10 -11 21 -41q12 -24 12 -65q0 -64 -37 -125q-16 -27 -38 -53t-54 -56q124 -108 191 -264.5t67 -335.5q0 -267 -172 -499q-202 -271 -530 -271q-307 0 -512 236
q-195 225 -195 534q0 265 172 500q203 270 531 270q58 0 110.5 -8t102.5 -26q103 -32 188 -97zM1051 1851h59l-2 -18l-21 -64l-38 -63q-13 -16 -25.5 -27t-26.5 -18l-53 -21l-49 -6q-44 0 -98 19q-26 5 -95 43l-47 20q-7 3 -21.5 5.5t-25.5 4.5q-49 0 -76 -28l-20 -25
l-18 -39h-62q18 97 94 164q28 23 66 35l57 8h33l33 -10q11 -1 23 -5.5t24 -10.5l55 -27l66 -31l55 -8l37 6q54 25 76 96z" />
    <glyph glyph-name="uni1EE1" unicode="&#x1ee1;" 
d="M509 894q-107 0 -181.5 -103t-74.5 -319q0 -218 72 -323.5t184 -105.5q117 0 189.5 103t72.5 337q0 213 -71.5 312t-190.5 99zM782 870l40 34q39 36 64 64q15 17 15 28l-1 5l-8 2l-10 -2h-33l-19 2l-24 8q-43 31 -43 78q0 12 6.5 28.5t22.5 30.5q29 27 63 27q59 0 92 -45
q15 -21 24 -48.5t9 -58.5q0 -62 -76 -135l-74 -63q125 -134 125 -356q0 -153 -57.5 -261.5t-163 -172t-230.5 -63.5q-176 0 -308 138q-60 66 -95 158q-15 44 -24 93q-4 25 -6 49.5t-2 57.5q0 216 126 356.5t314 140.5q160 0 273 -95zM877 1441l1 -6q0 -12 -9 -33l-19 -43
l-23 -40l-16 -23q-21 -27 -51 -45l-31 -13l-22 -8q-26 -6 -49 -6q-45 0 -99 18q-25 6 -94 43l-28 13l-19 8l-22 6l-25 4q-50 0 -76 -29l-20 -24l-19 -39h-61q18 97 94 164q12 10 28.5 18.5t37.5 16.5l49 8q42 0 84 -15l125 -57q25 -12 43 -18l36 -4l21 1q7 0 25 7
q57 27 75 96h64z" />
    <glyph glyph-name="uni1EE2" unicode="&#x1ee2;" horiz-adv-x="1593" 
d="M1239 739q0 132 -15 233.5t-48 182.5q-105 262 -381 262q-245 0 -359 -227q-19 -43 -34.5 -92t-25.5 -102.5t-16 -120.5t-6 -136q0 -257 64 -415q104 -263 381 -263q244 0 358 228q39 83 62 194q9 53 14.5 122.5t5.5 133.5zM1196 1378l41 37l18 29q15 20 31 57q9 24 9 37
q0 7 -3 12l-8 2l-10 -2h-33q-9 0 -19 2t-24 9q-43 30 -43 77q0 17 6 30t23 28q28 25 63 28q63 0 92 -45q10 -11 21 -41q12 -24 12 -65q0 -64 -37 -125q-16 -27 -38 -53t-54 -56q124 -108 191 -264.5t67 -335.5q0 -267 -172 -499q-202 -271 -530 -271q-307 0 -512 236
q-195 225 -195 534q0 265 172 500q203 270 531 270q58 0 110.5 -8t102.5 -26q103 -32 188 -97zM672 -281q0 48 37 91q36 36 92 36q45 0 86 -37.5t41 -89.5q0 -45 -39 -86q-19 -20 -40.5 -30.5t-45.5 -10.5q-50 0 -90.5 39t-40.5 88z" />
    <glyph glyph-name="uni1EE3" unicode="&#x1ee3;" 
d="M509 894q-107 0 -181.5 -103t-74.5 -319q0 -218 72 -323.5t184 -105.5q117 0 189.5 103t72.5 337q0 213 -71.5 312t-190.5 99zM782 870l40 34q39 36 64 64q15 17 15 28l-1 5l-8 2l-10 -2h-33l-19 2l-24 8q-43 31 -43 78q0 12 6.5 28.5t22.5 30.5q29 27 63 27q59 0 92 -45
q15 -21 24 -48.5t9 -58.5q0 -62 -76 -135l-74 -63q125 -134 125 -356q0 -153 -57.5 -261.5t-163 -172t-230.5 -63.5q-176 0 -308 138q-60 66 -95 158q-15 44 -24 93q-4 25 -6 49.5t-2 57.5q0 216 126 356.5t314 140.5q160 0 273 -95zM660 -289q0 -44 -36.5 -82.5
t-86.5 -38.5q-42 0 -84 39q-34 40 -34 86q0 45 36.5 81t83.5 36q50 0 85.5 -35.5t35.5 -85.5z" />
    <glyph glyph-name="uni1EE4" unicode="&#x1ee4;" horiz-adv-x="1669" 
d="M35 1386v93h684v-93l-150 -10q-49 0 -69 -14q-9 -6 -15 -25v-821q0 -151 24.5 -219.5t84.5 -122.5q59 -47 133 -76q80 -22 172 -22q110 0 196.5 45t145.5 137l21 41l22 76q7 33 10.5 57t3.5 47v654q0 145 -46 199t-193 54v93h577v-93q-154 0 -204 -92q-29 -56 -29 -233
v-449q0 -38 -3 -98t-3 -82q-6 -72 -23 -121q-27 -92 -94.5 -173.5t-198.5 -131.5q-106 -37 -241 -37h-52h-13q-21 0 -40 4q-15 0 -37 3t-61 12q-40 7 -69 15.5t-60 25.5q-66 28 -117 77q-33 34 -58.5 68t-41.5 66q-29 69 -29 159v887v25l-6 35q0 7 -25 22q-19 11 -53 14
l-78 4h-65zM737 -281q0 46 37 91q38 36 92 36q47 0 87 -37t40 -90q0 -47 -38.5 -87t-86.5 -40t-92 39q-18 19 -28.5 41t-10.5 47z" />
    <glyph glyph-name="uni1EE5" unicode="&#x1ee5;" horiz-adv-x="1251" 
d="M43 844v86l356 20v-585l2 -115q0 -75 50 -119l24 -16l33 -13q38 -10 74 -10q153 0 223 137q29 65 37 112q6 47 6 151v288q-3 26 -11 39t-32 17l-57 4h-16h-28l-18 4h-37v86l387 20v-723v-31q0 -22 2.5 -33.5t18.5 -31.5q12 -12 33 -18l84 -4h43v-89l-369 -20v160
q-24 -45 -57 -78q-15 -15 -35 -31q-16 -13 -43 -31q-39 -22 -87.5 -36.5t-93.5 -14.5q-111 0 -196 52t-107 139q-5 7 -14 69l-4 105v440q0 32 -12 44t-35 19q-11 3 -24 5t-27 2h-29h-41zM737 -289q0 -44 -36.5 -82.5t-86.5 -38.5q-42 0 -84 39q-34 40 -34 86q0 45 36.5 81
t83.5 36q50 0 85.5 -35.5t35.5 -85.5z" />
    <glyph glyph-name="uni1EE6" unicode="&#x1ee6;" horiz-adv-x="1669" 
d="M35 1386v93h684v-93l-150 -10q-49 0 -69 -14q-9 -6 -15 -25v-821q0 -151 24.5 -219.5t84.5 -122.5q59 -47 133 -76q80 -22 172 -22q110 0 196.5 45t145.5 137l21 41l22 76q7 33 10.5 57t3.5 47v654q0 145 -46 199t-193 54v93h577v-93q-154 0 -204 -92q-29 -56 -29 -233
v-449q0 -38 -3 -98t-3 -82q-6 -72 -23 -121q-27 -92 -94.5 -173.5t-198.5 -131.5q-106 -37 -241 -37h-52h-13q-21 0 -40 4q-15 0 -37 3t-61 12q-40 7 -69 15.5t-60 25.5q-66 28 -117 77q-33 34 -58.5 68t-41.5 66q-29 69 -29 159v887v25l-6 35q0 7 -25 22q-19 11 -53 14
l-78 4h-65zM924 1573h-45v35q0 11 1 21q0 10 3 16l43 61l37 51q43 60 43 127q0 66 -31 105q-32 36 -96 36q-38 0 -74 -18q-20 -12 -23 -33q0 -14 4 -18l9 -10q36 -26 36 -60q0 -25 -18 -43t-43 -18q-27 0 -51 24q-19 27 -19 62q0 57 56 108q17 19 47 33l61 16l49 5
q88 0 147.5 -52.5t59.5 -140.5q0 -31 -9 -58t-32 -57q-5 -8 -14 -18.5t-21 -20.5l-57 -51l-51 -37q-6 -6 -12 -65z" />
    <glyph glyph-name="uni1EE7" unicode="&#x1ee7;" horiz-adv-x="1251" 
d="M43 844v86l356 20v-585l2 -115q0 -75 50 -119l24 -16l33 -13q38 -10 74 -10q153 0 223 137q29 65 37 112q6 47 6 151v288q-3 26 -11 39t-32 17l-57 4h-16h-28l-18 4h-37v86l387 20v-723v-31q0 -22 2.5 -33.5t18.5 -31.5q12 -12 33 -18l84 -4h43v-89l-369 -20v160
q-24 -45 -57 -78q-15 -15 -35 -31q-16 -13 -43 -31q-39 -22 -87.5 -36.5t-93.5 -14.5q-111 0 -196 52t-107 139q-5 7 -14 69l-4 105v440q0 32 -12 44t-35 19q-11 3 -24 5t-27 2h-29h-41zM606 1143h-45v35v19q0 9 4 17l18 28l25 34l37 51q43 58 43 127q0 66 -31 103.5
t-96 37.5q-33 0 -74 -18q-23 -12 -23 -32q0 -9 5 -19l8 -10q37 -25 37 -60q0 -24 -18.5 -42.5t-42.5 -18.5q-26 0 -52 24q-18 26 -18 62q0 59 55 108q22 22 47 33l30 8l32 8l49 4q44 0 80 -12.5t67 -40.5q60 -54 60 -139q0 -28 -9 -57q-4 -13 -12 -28t-20 -29
q-22 -31 -92 -91l-52 -37q-6 -6 -12 -65z" />
    <glyph glyph-name="uni1EE8" unicode="&#x1ee8;" horiz-adv-x="1669" 
d="M1636 1386q-154 0 -204 -92q-29 -56 -29 -233v-449q0 -38 -3 -98t-3 -82q-6 -72 -23 -121q-27 -92 -94.5 -173.5t-198.5 -131.5q-106 -37 -241 -37h-52h-13q-21 0 -40 4q-15 0 -37 3t-61 12q-40 7 -69 15.5t-60 25.5q-66 28 -117 77q-33 34 -58.5 68t-41.5 66
q-29 69 -29 159v887v25l-6 35q0 7 -25 22q-19 11 -53 14l-78 4h-65v93h684v-93l-150 -10q-49 0 -69 -14q-9 -6 -15 -25v-821q0 -151 24.5 -219.5t84.5 -122.5q59 -47 133 -76q80 -22 172 -22q110 0 196.5 45t145.5 137l21 41l22 76q7 33 10.5 57t3.5 47v654q0 145 -46 199
t-193 54v93h577q31 12 31 59q0 12 -6 18l-8 3l-11 -3h-32q-18 0 -43 11q-43 30 -43 78q0 30 28 57q30 26 64 29q62 0 92 -45q8 -12 20.5 -39.5t12.5 -67.5q0 -35 -5 -60.5t-18 -45.5q-18 -38 -82 -87zM993 1808l-288 -186h-91l283 285l25 24l36 27l39 14l41 8q25 0 33 -10
l14 -18l5 -23q0 -26 -29 -67l-31 -29z" />
    <glyph glyph-name="uni1EE9" unicode="&#x1ee9;" horiz-adv-x="1251" 
d="M1036 782v-555v-31q0 -22 2.5 -33.5t18.5 -31.5q12 -12 33 -18l84 -4h43v-89l-369 -20v160q-24 -45 -57 -78q-15 -15 -35 -31q-16 -13 -43 -31q-39 -22 -87.5 -36.5t-93.5 -14.5q-111 0 -196 52t-107 139q-5 7 -14 69l-4 105v440q0 32 -12 44t-35 19q-11 3 -24 5t-27 2
h-29h-41v86l356 20v-585l2 -115q0 -75 50 -119l24 -16l33 -13q38 -10 74 -10q153 0 223 137q29 65 37 112q6 47 6 151v288q-3 26 -11 39t-32 17l-57 4h-16h-28l-18 4h-37v86l387 20v-88l43 51l33 48q14 22 17 39l-3 10l-8 2l-10 -2h-33l-19 2l-24 8q-18 12 -32 33
q-11 20 -11 45q0 12 6.5 28.5t22.5 30.5q29 27 63 27q59 0 92 -45.5t33 -106.5q0 -71 -55 -141q-39 -48 -115 -109zM713 1430l26 4q13 0 27 -5.5t31 -19.5q22 -19 22 -55q0 -18 -24 -39l-41 -29l-295 -186h-84l282 284l25 25l11 10z" />
    <glyph glyph-name="uni1EEA" unicode="&#x1eea;" horiz-adv-x="1669" 
d="M1636 1386q-154 0 -204 -92q-29 -56 -29 -233v-449q0 -38 -3 -98t-3 -82q-6 -72 -23 -121q-27 -92 -94.5 -173.5t-198.5 -131.5q-106 -37 -241 -37h-52h-13q-21 0 -40 4q-15 0 -37 3t-61 12q-40 7 -69 15.5t-60 25.5q-66 28 -117 77q-33 34 -58.5 68t-41.5 66
q-29 69 -29 159v887v25l-6 35q0 7 -25 22q-19 11 -53 14l-78 4h-65v93h684v-93l-150 -10q-49 0 -69 -14q-9 -6 -15 -25v-821q0 -151 24.5 -219.5t84.5 -122.5q59 -47 133 -76q80 -22 172 -22q110 0 196.5 45t145.5 137l21 41l22 76q7 33 10.5 57t3.5 47v654q0 145 -46 199
t-193 54v93h577q31 12 31 59q0 12 -6 18l-8 3l-11 -3h-32q-18 0 -43 11q-43 30 -43 78q0 30 28 57q30 26 64 29q62 0 92 -45q8 -12 20.5 -39.5t12.5 -67.5q0 -35 -5 -60.5t-18 -45.5q-18 -38 -82 -87zM741 1796l-36 23l-33 32q-11 18 -17 54q0 30 19 55q5 5 28 8l37 -6
l35 -14q20 -7 31 -23l33 -31l282 -284h-84z" />
    <glyph glyph-name="uni1EEB" unicode="&#x1eeb;" horiz-adv-x="1251" 
d="M1036 782v-555v-31q0 -22 2.5 -33.5t18.5 -31.5q12 -12 33 -18l84 -4h43v-89l-369 -20v160q-24 -45 -57 -78q-15 -15 -35 -31q-16 -13 -43 -31q-39 -22 -87.5 -36.5t-93.5 -14.5q-111 0 -196 52t-107 139q-5 7 -14 69l-4 105v440q0 32 -12 44t-35 19q-11 3 -24 5t-27 2
h-29h-41v86l356 20v-585l2 -115q0 -75 50 -119l24 -16l33 -13q38 -10 74 -10q153 0 223 137q29 65 37 112q6 47 6 151v288q-3 26 -11 39t-32 17l-57 4h-16h-28l-18 4h-37v86l387 20v-88l43 51l60 54q38 34 40 48l-1 5l-9 2l-10 -2h-33l-19 2l-24 8q-22 15 -33 34
q-10 22 -10 44q0 30 29 59q29 27 64 27q62 0 93 -47t31 -105q0 -25 -11.5 -53.5t-34 -56.5t-175.5 -150zM393 1438l13 1q25 0 57 -22l25 -18l15 -13l15 -16l283 -285h-94l-285 187l-43 29l-23 18q-14 16 -20 37l-2 24q0 13 9 30.5t50 27.5z" />
    <glyph glyph-name="uni1EEC" unicode="&#x1eec;" horiz-adv-x="1669" 
d="M1636 1386q-154 0 -204 -92q-29 -56 -29 -233v-449q0 -38 -3 -98t-3 -82q-6 -72 -23 -121q-27 -92 -94.5 -173.5t-198.5 -131.5q-106 -37 -241 -37h-52h-13q-21 0 -40 4q-15 0 -37 3t-61 12q-40 7 -69 15.5t-60 25.5q-66 28 -117 77q-33 34 -58.5 68t-41.5 66
q-29 69 -29 159v887v25l-6 35q0 7 -25 22q-19 11 -53 14l-78 4h-65v93h684v-93l-150 -10q-49 0 -69 -14q-9 -6 -15 -25v-821q0 -151 24.5 -219.5t84.5 -122.5q59 -47 133 -76q80 -22 172 -22q110 0 196.5 45t145.5 137l21 41l22 76q7 33 10.5 57t3.5 47v654q0 145 -46 199
t-193 54v93h577q31 12 31 59q0 12 -6 18l-8 3l-11 -3h-32q-18 0 -43 11q-43 30 -43 78q0 30 28 57q30 26 64 29q62 0 92 -45q8 -12 20.5 -39.5t12.5 -67.5q0 -35 -5 -60.5t-18 -45.5q-18 -38 -82 -87zM924 1573h-45v35q0 11 1 21q0 10 3 16l43 61l37 51q43 60 43 127
q0 66 -31 105q-32 36 -96 36q-38 0 -74 -18q-20 -12 -23 -33q0 -14 4 -18l9 -10q36 -26 36 -60q0 -25 -18 -43t-43 -18q-27 0 -51 24q-19 27 -19 62q0 57 56 108q17 19 47 33l61 16l49 5q88 0 147.5 -52.5t59.5 -140.5q0 -31 -9 -58t-32 -57q-5 -8 -14 -18.5t-21 -20.5
l-57 -51l-51 -37q-6 -6 -12 -65z" />
    <glyph glyph-name="uni1EED" unicode="&#x1eed;" horiz-adv-x="1251" 
d="M606 1143h-45v35v19q0 9 4 17l18 28l25 34l37 51q43 58 43 127q0 66 -31 103.5t-96 37.5q-33 0 -74 -18q-23 -12 -23 -32q0 -9 5 -19l8 -10q37 -25 37 -60q0 -24 -18.5 -42.5t-42.5 -18.5q-26 0 -52 24q-18 26 -18 62q0 59 55 108q22 22 47 33l30 8l32 8l49 4
q44 0 80 -12.5t67 -40.5q60 -54 60 -139q0 -28 -9 -57q-4 -13 -12 -28t-20 -29q-22 -31 -92 -91l-52 -37q-6 -6 -12 -65zM1036 782v-555v-31q0 -22 2.5 -33.5t18.5 -31.5q12 -12 33 -18l84 -4h43v-89l-369 -20v160q-24 -45 -57 -78q-15 -15 -35 -31q-16 -13 -43 -31
q-39 -22 -87.5 -36.5t-93.5 -14.5q-111 0 -196 52t-107 139q-5 7 -14 69l-4 105v440q0 32 -12 44t-35 19q-11 3 -24 5t-27 2h-29h-41v86l356 20v-585l2 -115q0 -75 50 -119l24 -16l33 -13q38 -10 74 -10q153 0 223 137q29 65 37 112q6 47 6 151v288q-3 26 -11 39t-32 17
l-57 4h-16h-28l-18 4h-37v86l387 20v-88l43 51q14 20 31 58q9 23 9 36l-3 13l-8 2l-10 -2h-33l-19 2l-24 8q-22 15 -33 34q-10 22 -10 44q0 12 6.5 28.5t22.5 30.5q29 27 63 27q60 0 92 -45q15 -21 24 -48.5t9 -58.5q0 -72 -49 -145l-20 -28l-26 -29q-30 -30 -65 -58z" />
    <glyph glyph-name="uni1EEE" unicode="&#x1eee;" horiz-adv-x="1669" 
d="M1636 1386q-154 0 -204 -92q-29 -56 -29 -233v-449q0 -38 -3 -98t-3 -82q-6 -72 -23 -121q-27 -92 -94.5 -173.5t-198.5 -131.5q-106 -37 -241 -37h-52h-13q-21 0 -40 4q-15 0 -37 3t-61 12q-40 7 -69 15.5t-60 25.5q-66 28 -117 77q-33 34 -58.5 68t-41.5 66
q-29 69 -29 159v887v25l-6 35q0 7 -25 22q-19 11 -53 14l-78 4h-65v93h684v-93l-150 -10q-49 0 -69 -14q-9 -6 -15 -25v-821q0 -151 24.5 -219.5t84.5 -122.5q59 -47 133 -76q80 -22 172 -22q110 0 196.5 45t145.5 137l21 41l22 76q7 33 10.5 57t3.5 47v654q0 145 -46 199
t-193 54v93h577q31 12 31 59q0 12 -6 18l-8 3l-11 -3h-32q-18 0 -43 11q-43 30 -43 78q0 30 28 57q30 26 64 29q62 0 92 -45q8 -12 20.5 -39.5t12.5 -67.5q0 -35 -5 -60.5t-18 -45.5q-18 -38 -82 -87zM1165 1851h60l-2 -18l-21 -64l-39 -63q-24 -30 -51 -45l-53 -21l-49 -6
q-45 0 -99 19q-28 6 -94 43l-47 20q-6 3 -21 5.5t-26 4.5q-49 0 -76 -28l-20 -25l-19 -39h-61q18 97 94 164q28 23 66 35l57 8h33l32 -10q11 -2 23 -5.5t25 -10.5l55 -27l65 -31l56 -8l37 6q55 26 75 96z" />
    <glyph glyph-name="uni1EEF" unicode="&#x1eef;" horiz-adv-x="1251" 
d="M1036 782v-555v-31q0 -22 2.5 -33.5t18.5 -31.5q12 -12 33 -18l84 -4h43v-89l-369 -20v160q-24 -45 -57 -78q-15 -15 -35 -31q-16 -13 -43 -31q-39 -22 -87.5 -36.5t-93.5 -14.5q-111 0 -196 52t-107 139q-5 7 -14 69l-4 105v440q0 32 -12 44t-35 19q-11 3 -24 5t-27 2
h-29h-41v86l356 20v-585l2 -115q0 -75 50 -119l24 -16l33 -13q38 -10 74 -10q153 0 223 137q29 65 37 112q6 47 6 151v288q-3 26 -11 39t-32 17l-57 4h-16h-28l-18 4h-37v86l387 20v-88l43 51q14 20 31 58q9 23 9 36l-3 13l-8 2l-10 -2h-33l-19 2l-24 8q-22 15 -33 34
q-10 22 -10 44q0 12 6.5 28.5t22.5 30.5q29 27 63 27q60 0 92 -45q15 -21 24 -48.5t9 -58.5q0 -72 -49 -145l-20 -28l-26 -29q-30 -30 -65 -58zM951 1376l1 -6q0 -12 -9 -33l-19 -43l-22 -39l-17 -25q-21 -27 -51 -45l-22 -10l-34 -10q-23 -6 -46 -6q-45 0 -99 18
q-25 6 -94 43l-27 13l-17 7l-25 7l-25 4q-50 0 -76 -29l-20 -24l-19 -39h-61q18 99 94 163l31 21l19 8l15 6l50 8q48 0 84 -14l125 -57l21 -11l22 -8l36 -4l21 1q7 0 24 7q57 27 76 97h64z" />
    <glyph glyph-name="uni1EF0" unicode="&#x1ef0;" horiz-adv-x="1669" 
d="M1636 1386q-154 0 -204 -92q-29 -56 -29 -233v-449q0 -38 -3 -98t-3 -82q-6 -72 -23 -121q-27 -92 -94.5 -173.5t-198.5 -131.5q-106 -37 -241 -37h-52h-13q-21 0 -40 4q-15 0 -37 3t-61 12q-40 7 -69 15.5t-60 25.5q-66 28 -117 77q-33 34 -58.5 68t-41.5 66
q-29 69 -29 159v887v25l-6 35q0 7 -25 22q-19 11 -53 14l-78 4h-65v93h684v-93l-150 -10q-49 0 -69 -14q-9 -6 -15 -25v-821q0 -151 24.5 -219.5t84.5 -122.5q59 -47 133 -76q80 -22 172 -22q110 0 196.5 45t145.5 137l21 41l22 76q7 33 10.5 57t3.5 47v654q0 145 -46 199
t-193 54v93h577q31 12 31 59q0 12 -6 18l-8 3l-11 -3h-32q-18 0 -43 11q-43 30 -43 78q0 30 28 57q30 26 64 29q62 0 92 -45q8 -12 20.5 -39.5t12.5 -67.5q0 -35 -5 -60.5t-18 -45.5q-18 -38 -82 -87zM721 -281q0 48 37 91q36 36 92 36q45 0 86 -37t41 -90q0 -47 -39 -86
q-19 -20 -40.5 -30.5t-45.5 -10.5q-50 0 -90.5 39t-40.5 88z" />
    <glyph glyph-name="uni1EF1" unicode="&#x1ef1;" horiz-adv-x="1251" 
d="M1036 782v-555v-31q0 -22 2.5 -33.5t18.5 -31.5q12 -12 33 -18l84 -4h43v-89l-369 -20v160q-24 -45 -57 -78q-15 -15 -35 -31q-16 -13 -43 -31q-39 -22 -87.5 -36.5t-93.5 -14.5q-111 0 -196 52t-107 139q-5 7 -14 69l-4 105v440q0 32 -12 44t-35 19q-11 3 -24 5t-27 2
h-29h-41v86l356 20v-585l2 -115q0 -75 50 -119l24 -16l33 -13q38 -10 74 -10q153 0 223 137q29 65 37 112q6 47 6 151v288q-3 26 -11 39t-32 17l-57 4h-16h-28l-18 4h-37v86l387 20v-88l43 51q14 20 31 58q9 23 9 36l-3 13l-8 2l-10 -2h-33l-19 2l-24 8q-22 15 -33 34
q-10 22 -10 44q0 12 6.5 28.5t22.5 30.5q29 27 63 27q60 0 92 -45q15 -21 24 -48.5t9 -58.5q0 -72 -49 -145l-20 -28l-26 -29q-30 -30 -65 -58zM780 -289q0 -44 -36.5 -82.5t-86.5 -38.5q-42 0 -84 39q-34 40 -34 86q0 45 36.5 81t83.5 36q50 0 85.5 -35.5t35.5 -85.5z" />
    <glyph glyph-name="Ygrave" unicode="&#x1ef2;" horiz-adv-x="1442" 
d="M629 1479v-93h-66h-24l-27 3l-51 -7q-18 0 -29 -14q-6 -9 -6 -22l4 -29l12 -25l13 -18l344 -551l241 430l41 82l9 57l-7 39q-10 15 -16 21.5t-12 9.5q-40 13 -78 18l-94 6v93h577v-93q-105 0 -172 -49q-48 -35 -110 -147l-326 -582v-389q0 -82 18 -106q21 -21 105 -21
h115v-92h-703v92h62h47q58 0 85.5 8t41.5 39l6 58v47v346l-412 653l-45 72q-28 40 -68 55q-38 16 -81 16h-50v93h656zM631 1796l-37 23l-33 32q-10 16 -16 54q0 31 18 55q5 5 29 8l37 -6l35 -14q19 -6 30 -23l33 -31l283 -284h-84z" />
    <glyph glyph-name="ygrave" unicode="&#x1ef3;" horiz-adv-x="1100" 
d="M217 -291l-4 -6l2 -18l10 -9l12 -1q82 0 171 128l114 213l-329 752q-30 71 -60 90q-14 9 -40 15t-66 6v71h483v-71l-37 -2h-35q-32 0 -48.5 -10.5t-16.5 -40.5l6 -23l16 -37l221 -522l168 422l21 51l12 35q12 30 12 41q0 52 -26 69q-12 8 -35 12.5t-47 4.5h-37v71h403
v-71q-59 0 -98 -29q-34 -21 -84 -137l-254 -627l-67 -147q-90 -198 -197 -287q-87 -72 -192 -72q-80 0 -132 37q-57 45 -57 123q0 47 37 84q18 15 41 25q22 8 47 8q31 0 63.5 -24t32.5 -62v-14l-2 -22q-2 -16 -8 -26zM465 1417l13 1q24 0 57 -21q22 -13 55 -47l282 -285h-94
l-284 186l-35 23l-31 24q-14 16 -20 45l-2 17q0 12 9 30t50 27z" />
    <glyph glyph-name="uni1EF4" unicode="&#x1ef4;" horiz-adv-x="1442" 
d="M629 1479v-93h-66h-24l-27 3l-51 -7q-18 0 -29 -14q-6 -9 -6 -22l4 -29l12 -25l13 -18l344 -551l241 430l41 82l9 57l-7 39q-10 15 -16 21.5t-12 9.5q-40 13 -78 18l-94 6v93h577v-93q-105 0 -172 -49q-48 -35 -110 -147l-326 -582v-389q0 -82 18 -106q21 -21 105 -21
h115v-92h-703v92h62h47q58 0 85.5 8t41.5 39l6 58v47v346l-412 653l-45 72q-28 40 -68 55q-38 16 -81 16h-50v93h656zM590 -281q0 48 37 91q36 36 92 36q45 0 86 -37.5t41 -89.5q0 -47 -39 -86q-19 -20 -40.5 -30.5t-45.5 -10.5q-50 0 -90.5 39t-40.5 88z" />
    <glyph glyph-name="uni1EF5" unicode="&#x1ef5;" horiz-adv-x="1100" 
d="M217 -291l-4 -6l2 -18l10 -9l12 -1q82 0 171 128l114 213l-329 752q-30 71 -60 90q-14 9 -40 15t-66 6v71h483v-71l-37 -2h-35q-32 0 -48.5 -10.5t-16.5 -40.5l6 -23l16 -37l221 -522l168 422l21 51l12 35q12 30 12 41q0 52 -26 69q-12 8 -35 12.5t-47 4.5h-37v71h403
v-71q-59 0 -98 -29q-34 -21 -84 -137l-254 -627l-67 -147q-90 -198 -197 -287q-87 -72 -192 -72q-80 0 -132 37q-57 45 -57 123q0 47 37 84q18 15 41 25q22 8 47 8q31 0 63.5 -24t32.5 -62v-14l-2 -22q-2 -16 -8 -26zM881 -289q0 -43 -37 -84q-19 -17 -41.5 -27t-44.5 -10
q-43 0 -82 39q-17 19 -27 41t-10 45q0 45 36.5 81t84.5 36q46 0 83.5 -36.5t37.5 -84.5z" />
    <glyph glyph-name="uni1EF6" unicode="&#x1ef6;" horiz-adv-x="1442" 
d="M629 1479v-93h-66h-24l-27 3l-51 -7q-18 0 -29 -14q-6 -9 -6 -22l4 -29l12 -25l13 -18l344 -551l241 430l41 82l9 57l-7 39q-10 15 -16 21.5t-12 9.5q-40 13 -78 18l-94 6v93h577v-93q-105 0 -172 -49q-48 -35 -110 -147l-326 -582v-389q0 -82 18 -106q21 -21 105 -21
h115v-92h-703v92h62h47q58 0 85.5 8t41.5 39l6 58v47v346l-412 653l-45 72q-28 40 -68 55q-38 16 -81 16h-50v93h656zM809 1573h-45v35q0 11 1 21q0 10 3 16l43 61l37 51q43 58 43 127q0 68 -30.5 104.5t-96.5 36.5q-36 0 -74 -18q-19 -11 -22 -33q0 -14 4 -18l8 -10
q37 -25 37 -60q0 -25 -18.5 -43t-43.5 -18t-51 24q-18 26 -18 62q0 57 55 108q16 18 47 33l62 16l49 5q87 0 147 -53t60 -140q0 -58 -41 -115q-10 -14 -15 -19.5t-20 -19.5l-58 -51l-51 -37q-6 -6 -12 -65z" />
    <glyph glyph-name="uni1EF7" unicode="&#x1ef7;" horiz-adv-x="1100" 
d="M217 -291l-4 -6l2 -18l10 -9l12 -1q82 0 171 128l114 213l-329 752q-30 71 -60 90q-14 9 -40 15t-66 6v71h483v-71l-37 -2h-35q-32 0 -48.5 -10.5t-16.5 -40.5l6 -23l16 -37l221 -522l168 422l21 51l12 35q12 30 12 41q0 52 -26 69q-12 8 -35 12.5t-47 4.5h-37v71h403
v-71q-59 0 -98 -29q-34 -21 -84 -137l-254 -627l-67 -147q-90 -198 -197 -287q-87 -72 -192 -72q-80 0 -132 37q-57 45 -57 123q0 47 37 84q18 15 41 25q22 8 47 8q31 0 63.5 -24t32.5 -62v-14l-2 -22q-2 -16 -8 -26zM649 1143h-45v35v19q0 9 4 17l18 28l25 34l37 51
q43 58 43 127q0 66 -31 103.5t-96 37.5q-33 0 -74 -18q-23 -12 -23 -32q0 -9 5 -19l8 -10q37 -25 37 -60q0 -24 -18.5 -42.5t-42.5 -18.5q-26 0 -52 24q-18 26 -18 62q0 59 55 108q22 22 47 33l30 8l32 8l49 4q44 0 80 -12.5t67 -40.5q60 -54 60 -139q0 -28 -9 -57
q-4 -13 -12 -28t-20 -29q-22 -31 -92 -91l-51 -37q-6 -6 -13 -65z" />
    <glyph glyph-name="uni1EF8" unicode="&#x1ef8;" horiz-adv-x="1442" 
d="M629 1479v-93h-66h-24l-27 3l-51 -7q-18 0 -29 -14q-6 -9 -6 -22l4 -29l12 -25l13 -18l344 -551l241 430l41 82l9 57l-7 39q-10 15 -16 21.5t-12 9.5q-40 13 -78 18l-94 6v93h577v-93q-105 0 -172 -49q-48 -35 -110 -147l-326 -582v-389q0 -82 18 -106q21 -21 105 -21
h115v-92h-703v92h62h47q58 0 85.5 8t41.5 39l6 58v47v346l-412 653l-45 72q-28 40 -68 55q-38 16 -81 16h-50v93h656zM1108 1851h59l-2 -18l-20 -64l-39 -63q-24 -30 -51 -45l-54 -21l-49 -6q-44 0 -98 19q-28 6 -94 43l-47 20q-8 3 -23.5 6t-23.5 4q-26 0 -44 -6.5
t-32 -21.5l-21 -25l-18 -39h-62q19 99 95 164q14 12 29 20t36 15l58 8h32l33 -10q10 -1 20.5 -4t26.5 -12l55 -27l66 -31l55 -8l37 6q56 26 76 96z" />
    <glyph glyph-name="uni1EF9" unicode="&#x1ef9;" horiz-adv-x="1100" 
d="M217 -291l-4 -6l2 -18l10 -9l12 -1q82 0 171 128l114 213l-329 752q-30 71 -60 90q-14 9 -40 15t-66 6v71h483v-71l-37 -2h-35q-32 0 -48.5 -10.5t-16.5 -40.5l6 -23l16 -37l221 -522l168 422l21 51l12 35q12 30 12 41q0 52 -26 69q-12 8 -35 12.5t-47 4.5h-37v71h403
v-71q-59 0 -98 -29q-34 -21 -84 -137l-254 -627l-67 -147q-90 -198 -197 -287q-87 -72 -192 -72q-80 0 -132 37q-57 45 -57 123q0 47 37 84q18 15 41 25q22 8 47 8q31 0 63.5 -24t32.5 -62v-14l-2 -22q-2 -16 -8 -26zM956 1323l1 -6q0 -12 -9 -33l-18 -43q-27 -51 -39 -63
q-22 -28 -50 -44q-19 -9 -55 -22q-24 -6 -49 -6q-42 0 -98 18l-50 21l-44 22q-22 13 -47 21l-22 6l-25 4q-51 0 -76 -29q-12 -9 -21 -24l-18 -39h-62q18 99 95 164q14 13 31 21l34 14l49 8q45 0 84 -15l125 -57l43 -18l37 -4l21 1q7 0 24 7q55 27 76 96h63z" />
    <glyph glyph-name="quoteleft" unicode="&#x2018;" horiz-adv-x="418" 
d="M326 1521l32 -42q-96 -68 -144 -140t-48 -122q0 -34 24 -34l10 1q24 6 40 6q41 0 74 -32.5t33 -80.5q0 -53 -34 -90.5t-77 -37.5q-59 0 -110.5 54.5t-51.5 141.5q0 205 252 376z" />
    <glyph glyph-name="quoteright" unicode="&#x2019;" horiz-adv-x="418" 
d="M95 943l-32 45q99 71 145.5 140.5t46.5 119.5q0 13 -5 23t-18 11l-10 -2q-24 -6 -41 -6q-44 0 -76 32q-31 34 -31 79q0 48 33 86.5t78 38.5q60 0 111 -54.5t51 -138.5q0 -100 -58 -191t-194 -183z" />
    <glyph glyph-name="quotedblleft" unicode="&#x201c;" horiz-adv-x="797" 
d="M327 1521l32 -42q-96 -68 -144 -140t-48 -122q0 -34 24 -34l10 1q24 6 40 6q41 0 74 -32.5t33 -80.5q0 -53 -34 -90.5t-77 -37.5q-59 0 -110.5 54.5t-51.5 141.5q0 205 252 376zM737 1521l33 -42q-96 -68 -144 -140t-48 -122q0 -34 23 -34l10 1q24 6 40 6q42 0 75 -32.5
t33 -80.5q0 -53 -34 -90.5t-77 -37.5q-61 0 -111.5 54.5t-50.5 141.5q0 209 251 376z" />
    <glyph glyph-name="quotedblright" unicode="&#x201d;" horiz-adv-x="797" 
d="M45 943l-32 45q99 71 145.5 140.5t46.5 119.5q0 13 -5 23t-18 11l-10 -2q-24 -6 -40 -6q-45 0 -77 32q-31 34 -31 79q0 48 33 86.5t78 38.5q60 0 111 -54.5t51 -138.5q0 -203 -252 -374zM456 943l-32 45q99 71 145.5 140.5t46.5 118.5q0 14 -6 25q-6 8 -18 10l-10 -2
q-24 -6 -40 -6q-44 0 -76 32q-31 34 -31 79q0 48 33 86.5t78 38.5q60 0 111 -54.5t51 -138.5q0 -204 -252 -374z" />
    <glyph glyph-name="ellipsis" unicode="&#x2026;" horiz-adv-x="1355" 
d="M285 218q48 0 84 -36.5t36 -85.5q0 -52 -35 -88t-86 -36q-44 0 -86 36q-35 37 -35 87q0 52 35.5 87.5t86.5 35.5zM666 218q48 0 84 -36.5t36 -85.5q0 -52 -35 -88t-86 -36q-44 0 -86 36q-35 37 -35 87q0 52 35.5 87.5t86.5 35.5zM1037 219q48 0 84 -36.5t36 -85.5
q0 -52 -35 -88t-86 -36q-44 0 -86 36q-35 37 -35 87q0 52 35.5 87.5t86.5 35.5z" />
    <glyph glyph-name="ugrave" horiz-adv-x="582" 
 />
    <glyph glyph-name="uacute" horiz-adv-x="580" 
 />
    <glyph glyph-name="yacute" horiz-adv-x="629" 
 />
    </font>
</defs>
</svg>
